<svg width="60" height="60" viewBox="0 0 60 60" fill="none" xmlns="http://www.w3.org/2000/svg">
<path d="M54.9314 20.8707V20.8538C54.9314 20.7442 54.9061 20.6345 54.8808 20.5333C54.8724 20.508 54.8724 20.4912 54.864 20.4659C54.8302 20.3647 54.7796 20.2635 54.7122 20.1707C54.7037 20.1538 54.6869 20.1454 54.6784 20.1285C54.611 20.0442 54.5351 19.9683 54.4507 19.9008L54.4254 19.8755L31.1657 3.22771C30.744 2.9241 30.179 2.9241 29.7573 3.22771L6.50601 19.9008L6.48071 19.9261C6.39638 19.9936 6.32047 20.0695 6.25301 20.1538C6.24457 20.1707 6.22771 20.1791 6.21927 20.196C6.1518 20.2888 6.10964 20.3815 6.06747 20.4912C6.05903 20.5165 6.0506 20.5333 6.0506 20.5586C6.01687 20.6598 6 20.7695 6 20.8791V55.794C6 56.4603 6.53975 57 7.206 57H53.7254C54.3917 57 54.9314 56.4603 54.9314 55.794V20.8707C54.9314 20.8791 54.9314 20.8707 54.9314 20.8707ZM30.4657 5.69873L49.9641 19.6731H10.9674L30.4657 5.69873ZM45.6292 54.5543H15.2938V51.8049H45.6292V54.5543ZM45.6292 49.3929H15.2938V45.4629H45.6292V49.3929ZM45.6292 43.0509H15.2938V40.4028H45.6292V43.0509ZM45.6292 37.9908H15.2938V34.0608H45.6292V37.9908ZM45.6292 31.6488H15.2938V28.8994H45.6292V31.6488ZM52.5194 54.5543H48.0581V27.6934C48.0581 27.0272 47.5183 26.4874 46.8521 26.4874H14.0878C13.4215 26.4874 12.8818 27.0272 12.8818 27.6934V54.5627H8.41199V22.0935H52.511V54.5543H52.5194Z" fill="#E02C2B"/>
</svg>
