<svg width="60" height="60" viewBox="0 0 60 60" fill="none" xmlns="http://www.w3.org/2000/svg">
<g clip-path="url(#clip0_27_94)">
<path d="M40 26.1429H57.1429V25.4452L49.0441 17.5714H40V26.1429ZM40 29V38.9993C41.3032 37.2648 43.3777 36.1429 45.7143 36.1429C48.6433 36.1429 51.1606 37.9058 52.2628 40.4286H57.1429V29H40ZM37.1429 40.4286V14.7143V11.8571H2.85714V40.4286H4.88006C5.98229 37.9058 8.49954 36.1429 11.4286 36.1429C14.3576 36.1429 16.8749 37.9058 17.9771 40.4286H37.1429ZM40 14.7143H50.2041L60 24.2381V40.4286C60 42.0065 58.7208 43.2857 57.1429 43.2857H52.8571C52.8571 47.2306 49.6592 50.4286 45.7143 50.4286C41.7694 50.4286 38.5714 47.2306 38.5714 43.2857H18.5714C18.5714 47.2306 15.3735 50.4286 11.4286 50.4286C7.48368 50.4286 4.28571 47.2306 4.28571 43.2857H2.85714C1.27919 43.2857 0 42.0065 0 40.4286V11.8571C0 10.2792 1.27919 9 2.85714 9H37.1429C38.7208 9 40 10.2792 40 11.8571V14.7143ZM11.4286 47.5714C13.7955 47.5714 15.7143 45.6526 15.7143 43.2857C15.7143 40.9188 13.7955 39 11.4286 39C9.06164 39 7.14286 40.9188 7.14286 43.2857C7.14286 45.6526 9.06164 47.5714 11.4286 47.5714ZM45.7143 47.5714C48.0812 47.5714 50 45.6526 50 43.2857C50 40.9188 48.0812 39 45.7143 39C43.3474 39 41.4286 40.9188 41.4286 43.2857C41.4286 45.6526 43.3474 47.5714 45.7143 47.5714Z" fill="#E02C2B"/>
</g>
<defs>
<clipPath id="clip0_27_94">
<rect width="60" height="60" fill="white"/>
</clipPath>
</defs>
</svg>
