<svg width="60" height="60" viewBox="0 0 60 60" fill="none" xmlns="http://www.w3.org/2000/svg">
<g clip-path="url(#clip0_27_96)">
<path d="M55.0001 9.75001C54.9417 9.46342 54.7846 9.20639 54.5562 9.02367C54.3278 8.84095 54.0425 8.74411 53.7501 8.75001H6.25012C5.95768 8.74411 5.67244 8.84095 5.44404 9.02367C5.21565 9.20639 5.05856 9.46342 5.00012 9.75001C-0.174883 34.75 -0.399883 34.75 0.212617 35.6375C1.16262 38.2625 5.12512 40.2625 10.5126 41.625C10.7824 42.1848 11.1003 42.7201 11.4626 43.225C12.3952 44.4408 12.9006 45.9303 12.9006 47.4625C12.9006 48.9948 12.3952 50.4842 11.4626 51.7C11.2504 51.9553 11.1484 52.2844 11.1788 52.6149C11.2093 52.9454 11.3698 53.2503 11.6251 53.4625C11.8804 53.6747 12.2095 53.7768 12.54 53.7463C12.8706 53.7158 13.1754 53.5553 13.3876 53.3C14.5866 51.7477 15.2729 49.8609 15.3512 47.9011C15.4296 45.9412 14.8963 44.0056 13.8251 42.3625C15.8376 42.7375 17.9751 43.0375 20.1751 43.2625C21.0986 44.475 21.5988 45.9571 21.5988 47.4813C21.5988 49.0054 21.0986 50.4875 20.1751 51.7C19.9629 51.9553 19.8609 52.2844 19.8913 52.6149C19.9218 52.9454 20.0823 53.2503 20.3376 53.4625C20.5929 53.6747 20.922 53.7768 21.2525 53.7463C21.5831 53.7158 21.8879 53.5553 22.1001 53.3C23.1669 51.93 23.8323 50.2907 24.0222 48.5648C24.212 46.8388 23.9187 45.0941 23.1751 43.525C25.1751 43.6625 27.1876 43.7375 29.2001 43.75C29.9751 44.9434 30.3644 46.3462 30.3152 47.7683C30.266 49.1904 29.7807 50.563 28.9251 51.7C28.7129 51.9553 28.6109 52.2844 28.6413 52.6149C28.6718 52.9454 28.8323 53.2503 29.0876 53.4625C29.3429 53.6747 29.672 53.7768 30.0025 53.7463C30.3331 53.7158 30.6379 53.5553 30.8501 53.3C31.9053 51.9719 32.582 50.3833 32.8087 48.7023C33.0353 47.0212 32.8034 45.3101 32.1376 43.75C34.0501 43.75 35.9751 43.6125 37.8626 43.4625C38.7359 44.6665 39.1998 46.1189 39.1863 47.6061C39.1728 49.0934 38.6826 50.5371 37.7876 51.725C37.5754 51.9803 37.4734 52.3094 37.5038 52.6399C37.5343 52.9704 37.6948 53.2753 37.9501 53.4875C38.2054 53.6997 38.5345 53.8018 38.865 53.7713C39.1956 53.7408 39.5004 53.5803 39.7126 53.325C40.8189 51.9019 41.492 50.1903 41.6516 48.3949C41.8112 46.5994 41.4505 44.796 40.6126 43.2C47.0626 42.475 45.6126 41.95 46.4876 43.2C47.4202 44.4158 47.9256 45.9053 47.9256 47.4375C47.9256 48.9698 47.4202 50.4592 46.4876 51.675C46.2754 51.9303 46.1734 52.2594 46.2038 52.5899C46.2343 52.9204 46.3948 53.2253 46.6501 53.4375C46.9054 53.6497 47.2345 53.7518 47.565 53.7213C47.8956 53.6908 48.2004 53.5303 48.4126 53.275C49.6801 51.6404 50.3762 49.6352 50.3943 47.5669C50.4123 45.4986 49.7513 43.4815 48.5126 41.825C54.3001 40.475 58.6126 38.4375 59.6751 35.7375C60.4501 34.8125 60.0001 33.925 55.0001 9.75001ZM47.3876 39.575C47.0581 38.5227 46.9838 37.407 47.1707 36.3202C47.3576 35.2335 47.8005 34.2068 48.4626 33.325C48.5677 33.1986 48.6468 33.0528 48.6955 32.8958C48.7442 32.7388 48.7615 32.5738 48.7464 32.4101C48.7313 32.2464 48.6841 32.0874 48.6076 31.9419C48.531 31.7965 48.4265 31.6676 48.3001 31.5625C48.1737 31.4575 48.0279 31.3783 47.8709 31.3296C47.7139 31.2809 47.5489 31.2636 47.3852 31.2787C47.2215 31.2938 47.0625 31.341 46.917 31.4176C46.7716 31.4941 46.6427 31.5986 46.5376 31.725C45.6331 32.8954 45.016 34.2619 44.7359 35.7143C44.4558 37.1668 44.5206 38.6647 44.9251 40.0875C43.1751 40.3875 41.2626 40.65 39.1876 40.85C38.5405 39.683 38.2457 38.3534 38.3389 37.0222C38.4321 35.6911 38.9093 34.4155 39.7126 33.35C39.9248 33.0947 40.0269 32.7656 39.9964 32.4351C39.9659 32.1046 39.8054 31.7997 39.5501 31.5875C39.2948 31.3753 38.9657 31.2733 38.6352 31.3037C38.3047 31.3342 37.9998 31.4947 37.7876 31.75C36.775 33.0582 36.126 34.6109 35.9065 36.2506C35.687 37.8904 35.9047 39.559 36.5376 41.0875C34.7001 41.2125 32.7876 41.275 30.6876 41.2875C29.9154 40.0948 29.5288 38.6934 29.5803 37.2734C29.6317 35.8535 30.1187 34.4838 30.9751 33.35C31.1873 33.0947 31.2894 32.7656 31.2589 32.4351C31.2284 32.1046 31.0679 31.7997 30.8126 31.5875C30.5573 31.3753 30.2282 31.2733 29.8977 31.3037C29.5672 31.3342 29.2623 31.4947 29.0501 31.75C28.0184 33.0813 27.3629 34.665 27.1518 36.336C26.9407 38.007 27.1819 39.704 27.8501 41.25C25.6751 41.25 23.6376 41.1 21.7251 40.9375C21.0521 39.7603 20.7396 38.4113 20.8262 37.0581C20.9129 35.7048 21.395 34.4068 22.2126 33.325C22.4248 33.0697 22.5269 32.7406 22.4964 32.4101C22.4659 32.0796 22.3054 31.7747 22.0501 31.5625C21.7948 31.3503 21.4657 31.2483 21.1352 31.2787C20.8047 31.3092 20.4998 31.4697 20.2876 31.725C19.3183 32.9726 18.6794 34.4446 18.4303 36.0047C18.1812 37.5649 18.3299 39.1626 18.8626 40.65C16.683 40.393 14.5177 40.0258 12.3751 39.55C12.0474 38.4967 11.9751 37.3805 12.1642 36.2937C12.3533 35.2069 12.7983 34.1807 13.4626 33.3C13.6748 33.0447 13.7769 32.7156 13.7464 32.3851C13.7159 32.0546 13.5554 31.7497 13.3001 31.5375C13.0448 31.3253 12.7157 31.2233 12.3852 31.2537C12.0547 31.2842 11.7498 31.4447 11.5376 31.7C10.7621 32.6984 10.1953 33.8425 9.87104 35.0644C9.54678 36.2863 9.47165 37.561 9.65012 38.8125C5.36262 37.5 2.88762 35.9875 2.50012 34.65C2.57512 33.6125 2.01262 36.5125 7.23762 11.25H27.5001V12.5H25.0001C24.3371 12.5 23.7012 12.7634 23.2323 13.2322C22.7635 13.7011 22.5001 14.337 22.5001 15V17.5C22.5001 18.1631 22.7635 18.7989 23.2323 19.2678C23.7012 19.7366 24.3371 20 25.0001 20H28.7501C28.7501 20.3315 28.8818 20.6495 29.1162 20.8839C29.3507 21.1183 29.6686 21.25 30.0001 21.25C30.3316 21.25 30.6496 21.1183 30.884 20.8839C31.1184 20.6495 31.2501 20.3315 31.2501 20H35.0001C35.6632 20 36.299 19.7366 36.7679 19.2678C37.2367 18.7989 37.5001 18.1631 37.5001 17.5V15C37.5001 14.337 37.2367 13.7011 36.7679 13.2322C36.299 12.7634 35.6632 12.5 35.0001 12.5H30.0001V11.25H52.7376C57.9251 36.375 57.4001 33.65 57.5001 34.5875C57.2001 37.0125 50.0001 39 47.3876 39.575ZM25.0001 17.5V15H35.0001V17.5H25.0001Z" fill="#E02C2B"/>
</g>
<defs>
<clipPath id="clip0_27_96">
<rect width="60" height="60" fill="white"/>
</clipPath>
</defs>
</svg>
