<svg width="60" height="60" viewBox="0 0 60 60" fill="none" xmlns="http://www.w3.org/2000/svg">
<path fill-rule="evenodd" clip-rule="evenodd" d="M47.5 32.5C47.44 32.5 47.3838 32.4862 47.3238 32.4825C46.993 34.9464 46.1751 37.3198 44.9177 39.4644C43.6603 41.609 41.9886 43.4818 40 44.9738V53.75C40 55.0761 39.4732 56.3479 38.5355 57.2855C37.5979 58.2232 36.3261 58.75 35 58.75H22.5C21.1739 58.75 19.9021 58.2232 18.9645 57.2855C18.0268 56.3479 17.5 55.0761 17.5 53.75V44.9738C12.9537 41.5525 10 36.1275 10 30C10 23.8713 12.9537 18.4463 17.5 15.0262V6.25C17.5 4.92392 18.0268 3.65215 18.9645 2.71447C19.9021 1.77678 21.1739 1.25 22.5 1.25H35C36.3261 1.25 37.5979 1.77678 38.5355 2.71447C39.4732 3.65215 40 4.92392 40 6.25V15.0262C41.9888 16.518 43.6607 18.3907 44.9181 20.5354C46.1755 22.68 46.9933 25.0535 47.3238 27.5175C47.3838 27.5138 47.44 27.5 47.5 27.5C48.163 27.5 48.7989 27.7634 49.2678 28.2322C49.7366 28.7011 50 29.337 50 30C50 30.663 49.7366 31.2989 49.2678 31.7678C48.7989 32.2366 48.163 32.5 47.5 32.5ZM20 53.75C20 54.413 20.2634 55.0489 20.7322 55.5178C21.2011 55.9866 21.837 56.25 22.5 56.25H35C35.663 56.25 36.2989 55.9866 36.7678 55.5178C37.2366 55.0489 37.5 54.413 37.5 53.75V46.5775C34.8862 47.9588 31.9112 48.75 28.75 48.75C25.5887 48.75 22.6138 47.9588 20 46.5775V53.75ZM37.5 6.25C37.5 5.58696 37.2366 4.95107 36.7678 4.48223C36.2989 4.01339 35.663 3.75 35 3.75H22.5C21.837 3.75 21.2011 4.01339 20.7322 4.48223C20.2634 4.95107 20 5.58696 20 6.25V13.4225C22.6138 12.04 25.5887 11.25 28.75 11.25C31.9112 11.25 34.8862 12.04 37.5 13.4225V6.25ZM28.75 13.75C19.775 13.75 12.5 21.025 12.5 30C12.5 38.975 19.775 46.25 28.75 46.25C37.725 46.25 45 38.975 45 30C45 21.025 37.725 13.75 28.75 13.75ZM30 33.52V41.25C30 41.5815 29.8683 41.8995 29.6339 42.1339C29.3995 42.3683 29.0815 42.5 28.75 42.5C28.4185 42.5 28.1005 42.3683 27.8661 42.1339C27.6317 41.8995 27.5 41.5815 27.5 41.25V33.52C26.7706 33.2637 26.1385 32.7875 25.6908 32.1572C25.2431 31.5268 25.0017 30.7732 25 30C25 29.4112 25.1475 28.8625 25.39 28.365L21.6075 24.5825C21.3904 24.3512 21.2717 24.0445 21.2767 23.7273C21.2817 23.4102 21.41 23.1074 21.6343 22.883C21.8586 22.6587 22.1614 22.5305 22.4786 22.5255C22.7958 22.5205 23.1025 22.6391 23.3337 22.8563L27.1163 26.6388C27.6241 26.3862 28.1829 26.2533 28.75 26.25C29.7446 26.25 30.6984 26.6451 31.4017 27.3483C32.1049 28.0516 32.5 29.0054 32.5 30C32.4986 30.7733 32.2574 31.5271 31.8097 32.1575C31.3619 32.7879 30.7296 33.264 30 33.52ZM28.75 28.75C28.4185 28.75 28.1005 28.8817 27.8661 29.1161C27.6317 29.3505 27.5 29.6685 27.5 30C27.5 30.3315 27.6317 30.6495 27.8661 30.8839C28.1005 31.1183 28.4185 31.25 28.75 31.25C29.0815 31.25 29.3995 31.1183 29.6339 30.8839C29.8683 30.6495 30 30.3315 30 30C30 29.6685 29.8683 29.3505 29.6339 29.1161C29.3995 28.8817 29.0815 28.75 28.75 28.75Z" fill="#E02C2B"/>
</svg>
