<svg width="16" height="16" viewBox="0 0 16 16" fill="none" xmlns="http://www.w3.org/2000/svg">
<path d="M4.46722 11.5287C4.46722 11.5287 7.95727 15.284 11.6129 15.9329C14.4132 16.4299 15.6409 14.0414 15.9582 12.8541C16.0685 12.4399 15.9582 12.0119 15.6547 11.722C15.365 11.4321 12.7854 10.2723 12.1646 10.2309C11.737 10.2033 11.3921 10.3828 11.0887 10.7832L10.4679 11.5701C10.2196 11.8877 9.88852 11.9705 9.58504 11.8048C8.96428 11.4597 7.88829 10.7417 6.5778 9.43014C5.26731 8.11854 4.53619 7.04165 4.19132 6.42037C4.01199 6.11663 4.10856 5.78528 4.42583 5.53677L5.21213 4.91548C5.61217 4.59794 5.7915 4.26659 5.76392 3.83859C5.72253 3.2035 4.56378 0.635531 4.27409 0.345599C3.9844 0.0418605 3.55677 -0.0685895 3.14293 0.0418608C1.97038 0.359406 -0.429889 1.58817 0.0667187 4.39084C0.715068 8.03571 4.46722 11.5287 4.46722 11.5287Z" fill="white"/>
</svg>
