<svg width="51" height="15" viewBox="0 0 51 15" fill="none" xmlns="http://www.w3.org/2000/svg">
<path fill-rule="evenodd" clip-rule="evenodd" d="M13.521 0.253662V0.260155C13.5145 0.260155 11.5607 0.253662 11.0398 2.13002C10.5624 3.85056 9.21664 8.60036 9.17957 8.73114H8.80697C8.80697 8.73114 7.43059 3.8756 6.94678 2.12353C6.42588 0.24717 4.46559 0.253662 4.46559 0.253662H0V14.5281H4.46559V6.05062H4.83818L7.44264 14.5281H10.5439L13.1484 6.05712H13.521V14.529H17.9865V0.253662H13.521ZM29.8577 0.253662C29.8577 0.253662 28.5379 0.372384 27.9187 1.74974L24.7276 8.73114H24.3522V0.253662H19.8477V14.5281H24.1019C24.1019 14.5281 25.4848 14.4047 26.1039 13.0329L29.2321 6.05062H29.6074V14.5281H34.112V0.253662H29.8577ZM35.9731 6.46058V14.529H40.359V9.81726H45.11C47.1815 9.81726 48.9361 8.41671 49.5867 6.45966H35.974L35.9731 6.46058ZM45.3807 0.253662H35.4086C35.9073 2.84421 37.9436 4.92462 40.5786 5.60171C41.1908 5.75995 41.8205 5.84008 42.4527 5.84008H50.1382C50.2068 5.53029 50.2383 5.21586 50.2383 4.88845C50.2383 2.32758 48.0648 0.253662 45.3807 0.253662Z" fill="#808187"/>
</svg>
