<svg width="50" height="17" viewBox="0 0 50 17" fill="none" xmlns="http://www.w3.org/2000/svg">
<path d="M21.8868 15.3907H17.9866L20.4261 0.326024H24.3253L21.8868 15.3907ZM35.4179 0.979921C34.2844 0.542403 33.0795 0.320635 31.8644 0.326024C27.9521 0.326024 25.1966 2.41664 25.1799 5.40416C25.1475 7.60886 27.1523 8.83411 28.6519 9.5687C30.1849 10.32 30.7058 10.8106 30.7058 11.4794C30.6901 12.5089 29.4675 12.9819 28.3266 12.9819C26.7444 12.9819 25.8973 12.738 24.6099 12.1657L24.0871 11.9209L23.5329 15.3666C24.4625 15.7905 26.1744 16.167 27.9521 16.1828C32.1091 16.1828 34.8155 14.1256 34.8479 10.9414C34.8637 9.19398 33.8043 7.85465 31.5214 6.76019C30.1358 6.05806 29.2886 5.58503 29.2886 4.8662C29.3044 4.21231 30.006 3.54357 31.5706 3.54357C32.8589 3.51111 33.8043 3.8209 34.5217 4.13161L34.8804 4.29393L35.4179 0.979921ZM41.5667 10.0538C41.8948 9.18842 43.1535 5.83917 43.1535 5.83917C43.1377 5.8707 43.4806 4.95803 43.6771 4.39688L43.9552 5.6954C43.9552 5.6954 44.7069 9.30065 44.8709 10.0547H41.5667V10.0538ZM46.4735 0.326024H43.3991C42.4509 0.326024 41.7307 0.597785 41.3211 1.57631L35.417 15.3907H39.5879L40.422 13.1313H45.5253C45.6393 13.66 45.9998 15.3907 45.9998 15.3907H49.6795L46.4725 0.326024H46.4735ZM4.70846 2.24319C3.48594 1.56611 2.09937 1.02166 0.556152 0.636741L0.623811 0.326024H7.21097C8.10353 0.358487 8.82833 0.636741 9.06468 1.61991L10.4957 8.69498C9.85806 7.00505 8.80145 5.44497 7.35278 4.12698C8.70413 5.42364 9.76538 7.01525 10.2186 8.52339L10.6459 10.6103L14.5572 0.326024H18.779L12.5033 15.3907H8.27963L4.70846 2.24319Z" fill="#808187"/>
</svg>
