<svg width="115" height="20" viewBox="0 0 115 20" fill="none" xmlns="http://www.w3.org/2000/svg">
<path fill-rule="evenodd" clip-rule="evenodd" d="M17.1661 2.14163C15.976 3.07567 15.013 4.26863 14.3521 5.63008C13.6903 6.99154 13.3474 8.48576 13.3493 9.99954C13.3474 11.5134 13.6903 13.0078 14.3521 14.3695C15.013 15.7311 15.976 16.9242 17.1661 17.8584C18.3561 16.9243 19.3182 15.7313 19.98 14.3699C20.6408 13.0084 20.9838 11.5142 20.9828 10.0005C20.9847 8.48639 20.6418 6.99182 19.98 5.63004C19.3191 4.26825 18.3571 3.07499 17.1661 2.1407V2.14163ZM23.3417 0C21.2961 0 19.3933 0.615871 17.8102 1.67138C17.8909 1.73723 17.9733 1.80309 18.0512 1.87172C19.2135 2.88256 20.1459 4.13131 20.7854 5.53362C21.424 6.93594 21.7558 8.45918 21.7558 10.0005C21.7558 13.116 20.4054 16.0785 18.0512 18.1283C17.9733 18.196 17.8909 18.2618 17.8102 18.3286C19.448 19.4211 21.373 20.0028 23.3417 20C28.8602 20 33.335 15.5229 33.335 10.0005C33.335 4.47711 28.8602 0 23.3417 0ZM16.2809 18.1283C16.3588 18.196 16.4412 18.2618 16.5219 18.3286C14.8841 19.4213 12.9591 20.003 10.9904 20C5.471 20 0.99707 15.5229 0.99707 10.0005C0.99707 4.47711 5.471 0 10.9904 0C13.036 0 14.9388 0.615871 16.5219 1.67138C16.4412 1.73723 16.3588 1.80309 16.2809 1.8708C15.1177 2.88178 14.1862 4.13068 13.5467 5.53316C12.9071 6.93563 12.5763 8.45903 12.5763 10.0005C12.5763 13.1169 13.9258 16.0794 16.2809 18.1283ZM53.2921 10.0431C53.2921 8.87446 54.0567 7.91448 55.3089 7.91448C56.5046 7.91448 57.3109 8.83272 57.3109 10.0431C57.3109 11.2535 56.5046 12.1718 55.3089 12.1718C54.0577 12.1718 53.2921 11.2118 53.2921 10.0431ZM58.6734 10.0431V6.71798H57.2275V7.52492C56.7687 6.92667 56.0736 6.55103 55.1282 6.55103C53.2652 6.55103 51.8045 8.01186 51.8045 10.0431C51.8045 12.0744 53.2643 13.5352 55.1282 13.5352C56.0736 13.5352 56.7687 13.1596 57.2275 12.5613V13.3683H58.6734V10.0431ZM107.5 10.0431C107.5 8.87446 108.266 7.91448 109.517 7.91448C110.713 7.91448 111.519 8.83272 111.519 10.0431C111.519 11.2535 110.713 12.1718 109.517 12.1718C108.266 12.1718 107.501 11.2118 107.501 10.0431H107.5ZM114.498 13.0529V13.1577H114.595C114.614 13.1586 114.632 13.1541 114.648 13.1447C114.661 13.1355 114.667 13.1225 114.667 13.1039C114.667 13.0965 114.666 13.0892 114.662 13.0825C114.659 13.0758 114.654 13.0702 114.648 13.0659C114.632 13.0563 114.614 13.0518 114.595 13.0529H114.499H114.498ZM114.596 12.9787C114.646 12.9787 114.685 12.9908 114.712 13.013C114.725 13.024 114.736 13.0379 114.743 13.0537C114.75 13.0694 114.754 13.0867 114.753 13.1039C114.754 13.1189 114.751 13.1338 114.745 13.1477C114.74 13.1616 114.731 13.1742 114.72 13.1846C114.694 13.2073 114.662 13.2211 114.628 13.2236L114.756 13.372H114.656L114.537 13.2236H114.499V13.372H114.415V12.9796H114.596V12.9787ZM114.571 13.5055C114.614 13.5059 114.656 13.4977 114.696 13.4812C114.736 13.4648 114.772 13.4406 114.802 13.41C114.832 13.3796 114.857 13.3433 114.873 13.3033C114.89 13.2633 114.898 13.2204 114.897 13.1772C114.898 13.1228 114.885 13.069 114.859 13.0208C114.834 12.9727 114.797 12.9317 114.752 12.9015C114.706 12.8714 114.654 12.853 114.6 12.8482C114.546 12.8434 114.491 12.8522 114.441 12.8739C114.363 12.9072 114.3 12.9697 114.267 13.0483C114.249 13.0889 114.241 13.1326 114.241 13.1767C114.241 13.2209 114.249 13.2646 114.267 13.3052C114.292 13.365 114.335 13.416 114.388 13.4517C114.442 13.4875 114.506 13.5061 114.571 13.5055ZM114.571 12.7543C114.684 12.7535 114.793 12.7977 114.873 12.8769C114.954 12.9562 114.999 13.0642 115 13.1772C115 13.2327 114.99 13.2877 114.968 13.3387C114.946 13.3897 114.914 13.4358 114.874 13.474C114.793 13.553 114.684 13.5978 114.571 13.5992C114.458 13.6002 114.35 13.5564 114.268 13.4773C114.187 13.3982 114.141 13.2904 114.139 13.1772C114.14 13.1211 114.151 13.0655 114.173 13.0139C114.195 12.9623 114.227 12.9155 114.267 12.8762C114.308 12.837 114.355 12.8061 114.407 12.7853C114.459 12.7645 114.515 12.7543 114.571 12.7552V12.7543ZM112.881 10.0431V4.04674H111.436V7.52492C110.977 6.92667 110.282 6.55103 109.336 6.55103C107.473 6.55103 106.013 8.01186 106.013 10.0431C106.013 12.0744 107.473 13.5352 109.336 13.5352C110.282 13.5352 110.977 13.1596 111.436 12.5613V13.3683H112.881V10.0431ZM76.608 7.84491C77.5395 7.84491 78.1373 8.42924 78.2903 9.45879H74.8424C74.9953 8.49881 75.5792 7.84491 76.608 7.84491ZM76.6358 6.55103C74.6894 6.55103 73.327 7.97013 73.327 10.0431C73.327 12.1579 74.745 13.5352 76.7331 13.5352C77.7341 13.5352 78.6517 13.2848 79.4581 12.6031L78.7491 11.5318C78.1929 11.977 77.4839 12.2274 76.8166 12.2274C75.8851 12.2274 75.037 11.7961 74.8285 10.5996H79.764C79.7779 10.4188 79.7918 10.2379 79.7918 10.0431C79.7779 7.97013 78.4988 6.55103 76.6358 6.55103ZM94.0839 10.0431C94.0839 8.87446 94.8485 7.91448 96.1007 7.91448C97.2963 7.91448 98.1027 8.83272 98.1027 10.0431C98.1027 11.2535 97.2963 12.1718 96.1007 12.1718C94.8495 12.1718 94.0839 11.2118 94.0839 10.0431ZM99.4652 10.0431V6.71798H98.0193V7.52492C97.5605 6.92667 96.8653 6.55103 95.919 6.55103C94.0561 6.55103 92.5963 8.01186 92.5963 10.0431C92.5963 12.0744 94.0561 13.5352 95.919 13.5352C96.8644 13.5352 97.5596 13.1596 98.0193 12.5613V13.3683H99.4652V10.0431ZM85.9238 10.0431C85.9238 12.0605 87.3271 13.5352 89.4691 13.5352C90.4701 13.5352 91.1374 13.3126 91.8603 12.7422L91.1652 11.5735C90.6221 11.9631 90.053 12.1718 89.4264 12.1718C88.2725 12.1579 87.4244 11.3231 87.4244 10.0431C87.4244 8.76315 88.2725 7.92839 89.4264 7.91448C90.052 7.91448 90.6221 8.12317 91.1643 8.51272L91.8594 7.34405C91.1365 6.77363 90.4691 6.55103 89.4681 6.55103C87.3271 6.55103 85.9229 8.02578 85.9229 10.0431H85.9238ZM104.554 6.55103C103.719 6.55103 103.177 6.94059 102.802 7.52492V6.71798H101.37V13.3683H102.816V9.63966C102.816 8.54055 103.288 7.92839 104.234 7.92839C104.526 7.92839 104.832 7.97013 105.138 8.09534L105.582 6.7319C105.252 6.61358 104.904 6.55242 104.554 6.55103ZM65.8194 7.24667C65.1243 6.78755 64.165 6.55103 63.1084 6.55103C61.4261 6.55103 60.3417 7.35797 60.3417 8.67967C60.3417 9.76487 61.1481 10.4327 62.6348 10.6414L63.3169 10.7388C64.1094 10.8501 64.4848 11.0588 64.4848 11.4344C64.4848 11.9492 63.9565 12.2413 62.9694 12.2413C61.9684 12.2413 61.2454 11.9213 60.7579 11.5457L60.0776 12.6726C60.8691 13.257 61.871 13.5352 62.9555 13.5352C64.874 13.5352 65.9863 12.6309 65.9863 11.3648C65.9863 10.1962 65.1104 9.58401 63.6645 9.37532L62.9833 9.27793C62.3576 9.19445 61.8571 9.06924 61.8571 8.62402C61.8571 8.13708 62.3298 7.84491 63.1223 7.84491C63.9704 7.84491 64.7906 8.1649 65.1938 8.41533L65.8194 7.24667ZM84.4631 6.55103C83.629 6.55103 83.0867 6.94059 82.7114 7.52492V6.71798H81.2794V13.3683H82.7253V9.63966C82.7253 8.54055 83.198 7.92839 84.1434 7.92839C84.4353 7.92839 84.7412 7.97013 85.047 8.09534L85.4919 6.7319C85.162 6.61354 84.8135 6.55239 84.4631 6.55103ZM72.1313 6.71798H69.7678V4.70064H68.308V6.71798H66.9595V8.03969H68.308V11.0727C68.308 12.617 68.9059 13.5352 70.6159 13.5352C71.2415 13.5352 71.9645 13.3404 72.4233 13.0204L72.0062 11.7822C71.5752 12.0326 71.1025 12.1579 70.7271 12.1579C70.0042 12.1579 69.7678 11.7127 69.7678 11.0448V8.03969H72.1313V6.71798ZM50.5263 13.3683V9.19445C50.5263 7.62231 49.5253 6.56494 47.9126 6.55103C47.0636 6.53712 46.1887 6.80146 45.5769 7.73361C45.1172 6.99624 44.3943 6.55103 43.3803 6.55103C42.6703 6.55103 41.9752 6.75972 41.4339 7.53883V6.71798H39.988V13.3683H41.4469V9.6814C41.4469 8.52663 42.0864 7.91448 43.0735 7.91448C44.0328 7.91448 44.5194 8.54055 44.5194 9.66749V13.3683H45.9792V9.6814C45.9792 8.52663 46.6465 7.91448 47.6058 7.91448C48.5929 7.91448 49.0656 8.54055 49.0656 9.66749V13.3683H50.5254H50.5263ZM33.0227 16.1972V15.8076H32.9207L32.8049 16.0757L32.6881 15.8086H32.5871V16.1963H32.6584V15.9041L32.7678 16.1564H32.8419L32.9513 15.9032V16.1963H33.0227V16.1972ZM32.3813 16.1972V15.8744H32.5111V15.8095H32.1811V15.8744H32.3109V16.1963H32.3813V16.1972Z" fill="#808187"/>
</svg>
