<svg width="60" height="60" viewBox="0 0 60 60" fill="none" xmlns="http://www.w3.org/2000/svg">
<path d="M17.8869 55.0434C20.2343 55.0434 22.1371 53.1405 22.1371 50.7932C22.1371 48.4459 20.2343 46.543 17.8869 46.543C15.5396 46.543 13.6367 48.4459 13.6367 50.7932C13.6367 53.1405 15.5396 55.0434 17.8869 55.0434Z" fill="black"/>
<path d="M48.5451 55.0434C50.8925 55.0434 52.7954 53.1405 52.7954 50.7932C52.7954 48.4459 50.8925 46.543 48.5451 46.543C46.1978 46.543 44.2949 48.4459 44.2949 50.7932C44.2949 53.1405 46.1978 55.0434 48.5451 55.0434Z" fill="black"/>
<path d="M52.9556 43.8586C52.9556 44.3739 52.7465 44.8428 52.4062 45.1835C52.2327 45.3585 52.0261 45.4972 51.7985 45.5916C51.5708 45.686 51.3267 45.7341 51.0803 45.7332H19.7064C19.2723 45.734 18.8489 45.5988 18.4956 45.3465C18.1423 45.0942 17.877 44.7376 17.7368 44.3268L17.7027 44.2265L16.9899 41.9829L7.73172 12.9123L7.31593 11.6058C7.00313 10.6185 7.54658 9.56474 8.53483 9.24922C9.00907 9.0986 9.52371 9.14239 9.96568 9.37097C10.4076 9.59956 10.7408 9.99424 10.892 10.4683L11.233 11.5392L12.4418 15.332L13.6364 19.0826L19.7409 38.2569L20.5005 40.6387C20.6303 40.9961 20.8563 41.3107 21.1535 41.5479C21.4507 41.7851 21.8076 41.9357 22.1849 41.9831H51.0801C51.3265 41.9829 51.5704 42.0312 51.7981 42.1254C52.0257 42.2196 52.2325 42.3578 52.4067 42.5319C52.5809 42.7061 52.7191 42.913 52.8132 43.1406C52.9074 43.3682 52.9558 43.6122 52.9556 43.8586V43.8586Z" fill="#E8E8ED"/>
<path d="M52.9556 20.2454V33.3429C52.9556 36.0558 50.7592 38.2559 48.0463 38.2559H19.7415L13.6377 19.0816H52.4668C52.5841 19.0816 52.6983 19.0713 52.8108 19.0508C52.9061 19.4327 52.9556 19.8332 52.9556 20.2454V20.2454Z" fill="#E02C2B"/>
<path d="M12.0344 10.8333C12.0344 11.3525 11.8251 11.8214 11.4846 12.159C11.3111 12.334 11.1046 12.4727 10.8771 12.5672C10.6495 12.6616 10.4054 12.7098 10.1591 12.709H1.8755C0.84065 12.709 0 11.8682 0 10.8333C0 10.3146 0.209256 9.84563 0.549976 9.50799C0.723418 9.33301 0.929931 9.19428 1.1575 9.09986C1.38506 9.00544 1.62913 8.95722 1.8755 8.95802H10.1591C11.1937 8.95802 12.0344 9.79921 12.0344 10.8333V10.8333ZM41.1189 24.0219V33.1153C41.1189 34.1494 40.277 34.9895 39.2425 34.9895C38.7246 34.9895 38.2561 34.7799 37.9186 34.4392C37.7435 34.2661 37.6047 34.0599 37.5102 33.8326C37.4156 33.6053 37.3674 33.3614 37.3681 33.1153V24.0219C37.3681 22.9878 38.2082 22.1477 39.2425 22.1477C39.7624 22.1477 40.2308 22.3573 40.5684 22.698C40.7434 22.8711 40.8822 23.0773 40.9767 23.3046C41.0712 23.5319 41.1196 23.7757 41.1189 24.0219V24.0219ZM24.9284 24.0219V33.1153C24.9284 34.1494 24.0883 34.9895 23.0522 34.9895C22.8061 34.9901 22.5622 34.9418 22.3349 34.8473C22.1076 34.7528 21.9013 34.6141 21.7281 34.4392C21.553 34.2661 21.4142 34.0599 21.3196 33.8326C21.2251 33.6053 21.1768 33.3614 21.1776 33.1153V24.0219C21.1776 22.9878 22.0177 22.1477 23.0522 22.1477C23.5719 22.1477 24.0407 22.3573 24.3797 22.698C24.5542 22.8714 24.6925 23.0778 24.7867 23.305C24.8808 23.5322 24.929 23.7759 24.9284 24.0219V24.0219ZM32.9019 24.0219V33.1153C32.9019 34.1494 32.06 34.9895 31.0257 34.9895C30.7793 34.99 30.5352 34.9416 30.3076 34.8471C30.0801 34.7526 29.8735 34.614 29.6998 34.4392C29.3591 34.1033 29.1513 33.6331 29.1513 33.1153V24.0219C29.1513 22.9878 29.9914 22.1477 31.0257 22.1477C31.5454 22.1477 32.0139 22.3573 32.3516 22.698C32.5265 22.8711 32.6653 23.0774 32.7598 23.3046C32.8543 23.5319 32.9026 23.7757 32.9019 24.0219V24.0219ZM49.5796 24.0219V33.1153C49.5796 34.1494 48.7397 34.9895 47.7052 34.9895C47.1873 34.9895 46.717 34.7799 46.3793 34.4392C46.2043 34.2661 46.0654 34.0599 45.9709 33.8326C45.8764 33.6053 45.8282 33.3614 45.829 33.1153V24.0219C45.829 22.9878 46.6707 22.1477 47.7052 22.1477C48.2231 22.1477 48.6935 22.3573 49.0311 22.698C49.2054 22.8715 49.3437 23.0778 49.4378 23.3051C49.532 23.5323 49.5802 23.7759 49.5796 24.0219V24.0219ZM23.4285 44.0214C23.6063 44.1919 23.7485 44.3961 23.8467 44.622C23.9449 44.848 23.9972 45.0912 24.0006 45.3375C24.0062 45.5839 23.9626 45.8289 23.8725 46.0582C23.7824 46.2876 23.6476 46.4967 23.4758 46.6734L20.1312 50.1399C19.4129 50.8842 18.2239 50.9053 17.4796 50.187C17.3016 50.0166 17.1593 49.8125 17.0611 49.5865C16.9628 49.3606 16.9105 49.1173 16.9073 48.8709C16.9018 48.6246 16.9454 48.3796 17.0354 48.1503C17.1255 47.921 17.2603 47.7118 17.4319 47.5351L20.7765 44.0689C21.4948 43.3244 22.6839 43.3032 23.4285 44.0214ZM48.6657 43.4966C48.912 43.4923 49.1567 43.5369 49.3856 43.628C49.6145 43.719 49.823 43.8546 49.9991 44.0268C50.1766 44.1977 50.3185 44.4022 50.4163 44.6284C50.514 44.8546 50.5658 45.098 50.5686 45.3444L50.6395 50.1609C50.6546 51.195 49.8264 52.0478 48.7918 52.0631C48.5455 52.0676 48.3007 52.0231 48.0719 51.9321C47.843 51.841 47.6345 51.7053 47.4586 51.5329C47.281 51.3621 47.1391 51.1577 47.0413 50.9315C46.9435 50.7054 46.8916 50.462 46.8887 50.2157L46.818 45.3993C46.8026 44.365 47.6311 43.5119 48.6657 43.4966V43.4966ZM54.3408 17.2075C54.3408 17.7255 54.1312 18.1959 53.7903 18.5334C53.5246 18.8024 53.1825 18.9831 52.8106 19.0511C52.6982 19.0716 52.5839 19.0819 52.4666 19.0819H13.6375L12.4427 15.3327H52.4666C53.5007 15.3329 54.3408 16.1733 54.3408 17.2075Z" fill="#C51E1D"/>
<path d="M49.7357 12.2082H54.5676C55.3981 12.2082 56.0745 12.8844 56.0745 13.7149C56.0745 14.1325 55.9058 14.5089 55.6324 14.7795C55.4931 14.9201 55.3273 15.0317 55.1445 15.1076C54.9618 15.1835 54.7657 15.2223 54.5678 15.2217H49.7359L49.7357 12.2082ZM49.7357 15.2217H47.9159C47.085 15.2217 46.4092 14.5456 46.4092 13.7147C46.4092 13.2989 46.5773 12.9214 46.8513 12.6501C46.9905 12.5095 47.1564 12.398 47.3392 12.3221C47.5219 12.2462 47.718 12.2074 47.9159 12.208H49.7357" fill="#F5F5F8"/>
</svg>
