<svg width="12" height="12" viewBox="0 0 12 12" fill="none" xmlns="http://www.w3.org/2000/svg">
<path d="M10.8188 2.56914L9.53213 1.5543C9.49229 1.52148 9.44307 1.49805 9.38682 1.49805C9.33057 1.49805 9.279 1.52148 9.23916 1.55664L4.55869 7.5707C4.55869 7.5707 2.71885 5.80117 2.66729 5.74961C2.61572 5.69805 2.54775 5.61133 2.44463 5.61133C2.3415 5.61133 2.29463 5.68398 2.24072 5.73789C2.20088 5.78008 1.54463 6.46914 1.22119 6.81133C1.20244 6.83242 1.19072 6.84414 1.17432 6.86055C1.14619 6.90039 1.12744 6.94492 1.12744 6.99414C1.12744 7.0457 1.14619 7.08789 1.17432 7.12773L1.23994 7.18867C1.23994 7.18867 4.50479 10.3246 4.55869 10.3785C4.6126 10.4324 4.67822 10.5004 4.77432 10.5004C4.86807 10.5004 4.94541 10.3996 4.98994 10.3551L10.8282 2.85508C10.8563 2.81523 10.8751 2.7707 10.8751 2.71914C10.8751 2.66055 10.8517 2.61133 10.8188 2.56914Z" fill="white"/>
</svg>
