<svg width="60" height="60" viewBox="0 0 60 60" fill="none" xmlns="http://www.w3.org/2000/svg">
<path d="M30 55C16.1929 55 5 43.8071 5 30C5 16.1929 16.1929 5 30 5C43.8071 5 55 16.1929 55 30C55 43.8071 43.8071 55 30 55ZM30 52.5C42.4264 52.5 52.5 42.4264 52.5 30C52.5 17.5736 42.4264 7.5 30 7.5C17.5736 7.5 7.5 17.5736 7.5 30C7.5 42.4264 17.5736 52.5 30 52.5ZM37.8661 22.8661C38.3543 22.378 39.1457 22.378 39.6339 22.8661C40.122 23.3543 40.122 24.1457 39.6339 24.6339L27.1339 37.1339C26.6457 37.622 25.8543 37.622 25.3661 37.1339L20.3661 32.1339C19.878 31.6457 19.878 30.8543 20.3661 30.3661C20.8543 29.878 21.6457 29.878 22.1339 30.3661L26.25 34.4822L37.8661 22.8661Z" fill="#E02C2B"/>
</svg>
