<svg width="40" height="40" viewBox="0 0 40 40" fill="none" xmlns="http://www.w3.org/2000/svg">
<g clip-path="url(#clip0_539_4366)">
<path d="M31.6131 24.7787C30.7942 23.9261 29.8065 23.4702 28.7596 23.4702C27.7212 23.4702 26.725 23.9176 25.8724 24.7703L23.2046 27.4296C22.9851 27.3114 22.7656 27.2017 22.5546 27.0919C22.2506 26.94 21.9636 26.7964 21.7188 26.6445C19.2199 25.0573 16.9489 22.989 14.7708 20.3128C13.7155 18.9789 13.0063 17.8561 12.4914 16.7164C13.1836 16.0832 13.8252 15.4247 14.45 14.7915C14.6864 14.5551 14.9227 14.3103 15.1591 14.0739C16.932 12.3011 16.932 10.0048 15.1591 8.23188L12.8544 5.92714C12.5927 5.66543 12.3225 5.39527 12.0693 5.12512C11.5627 4.6017 11.0309 4.06139 10.4821 3.55486C9.66321 2.7444 8.6839 2.31384 7.65394 2.31384C6.62399 2.31384 5.6278 2.7444 4.78357 3.55486C4.77513 3.5633 4.77513 3.5633 4.76669 3.57174L1.89631 6.46744C0.815703 7.54805 0.199417 8.86505 0.0643408 10.3931C-0.138274 12.8582 0.587762 15.1545 1.14495 16.6573C2.5126 20.3465 4.55563 23.7657 7.60329 27.4296C11.301 31.8449 15.7501 35.3316 20.8323 37.7883C22.7741 38.7085 25.3658 39.7975 28.2615 39.9833C28.4388 39.9917 28.6246 40.0002 28.7934 40.0002C30.7436 40.0002 32.3814 39.2994 33.6646 37.9065C33.673 37.8896 33.6899 37.8811 33.6984 37.8643C34.1374 37.3324 34.6439 36.8512 35.1758 36.3362C35.5388 35.9901 35.9102 35.6271 36.2733 35.2472C37.109 34.3776 37.548 33.3645 37.548 32.3261C37.548 31.2793 37.1006 30.2747 36.2479 29.4304L31.6131 24.7787ZM34.6355 33.6684C34.627 33.6684 34.627 33.6769 34.6355 33.6684C34.3062 34.023 33.9685 34.3438 33.6055 34.6984C33.0567 35.2218 32.4996 35.7706 31.9761 36.3869C31.1235 37.2986 30.1188 37.7292 28.8018 37.7292C28.6752 37.7292 28.5401 37.7292 28.4135 37.7207C25.9061 37.5603 23.5761 36.581 21.8285 35.7452C17.0502 33.4321 12.8544 30.148 9.36773 25.986C6.48891 22.5162 4.56407 19.3081 3.28929 15.8637C2.50416 13.7616 2.21712 12.1238 2.34375 10.5788C2.42818 9.59108 2.80808 8.77218 3.50879 8.07147L6.3876 5.19266C6.80128 4.80431 7.24027 4.59326 7.67083 4.59326C8.20269 4.59326 8.63325 4.91406 8.9034 5.18422C8.91184 5.19266 8.92029 5.2011 8.92873 5.20954C9.44371 5.69075 9.93336 6.18885 10.4483 6.72071C10.71 6.99086 10.9802 7.26102 11.2504 7.53961L13.5551 9.84435C14.45 10.7392 14.45 11.5666 13.5551 12.4615C13.3103 12.7063 13.0739 12.9511 12.8291 13.1875C12.1199 13.9135 11.4445 14.5889 10.71 15.2474C10.6932 15.2643 10.6763 15.2727 10.6678 15.2896C9.9418 16.0157 10.0769 16.7248 10.2288 17.206C10.2373 17.2313 10.2457 17.2567 10.2542 17.282C10.8536 18.7341 11.6978 20.1017 12.981 21.7311L12.9895 21.7395C15.3195 24.6099 17.7762 26.8471 20.4862 28.5609C20.8323 28.7804 21.1869 28.9577 21.5246 29.1265C21.8285 29.2785 22.1156 29.422 22.3604 29.5739C22.3942 29.5908 22.4279 29.6162 22.4617 29.633C22.7487 29.7766 23.0189 29.8441 23.2975 29.8441C23.9982 29.8441 24.4372 29.4051 24.5807 29.2616L27.468 26.3743C27.755 26.0873 28.2109 25.7412 28.7427 25.7412C29.2662 25.7412 29.6967 26.0704 29.9584 26.3574C29.9669 26.3659 29.9669 26.3659 29.9753 26.3743L34.627 31.026C35.4966 31.8871 35.4966 32.7736 34.6355 33.6684Z" fill="#E02C2B"/>
<path d="M21.6163 9.51505C23.8281 9.88651 25.8374 10.9334 27.4414 12.5374C29.0455 14.1414 30.0839 16.1507 30.4638 18.3626C30.5566 18.9197 31.0378 19.3081 31.5866 19.3081C31.6541 19.3081 31.7132 19.2997 31.7808 19.2912C32.4055 19.1899 32.8192 18.5989 32.7179 17.9742C32.262 15.298 30.9956 12.8582 29.0624 10.9249C27.1291 8.99163 24.6892 7.72529 22.013 7.26941C21.3883 7.1681 20.8058 7.58177 20.696 8.19806C20.5863 8.81435 20.9915 9.41375 21.6163 9.51505Z" fill="#E02C2B"/>
<path d="M39.9531 17.6451C39.2018 13.2383 37.125 9.2282 33.9338 6.03702C30.7426 2.84584 26.7325 0.769043 22.3257 0.0176806C21.7094 -0.0920689 21.1269 0.330045 21.0171 0.946331C20.9158 1.57106 21.3295 2.15358 21.9542 2.26333C25.8883 2.93026 29.4763 4.79601 32.3298 7.64105C35.1832 10.4945 37.0405 14.0825 37.7075 18.0166C37.8004 18.5738 38.2816 18.9621 38.8303 18.9621C38.8978 18.9621 38.9569 18.9537 39.0245 18.9453C39.6408 18.8524 40.0629 18.2614 39.9531 17.6451Z" fill="#E02C2B"/>
</g>
<defs>
<clipPath id="clip0_539_4366">
<rect width="40" height="40" fill="white"/>
</clipPath>
</defs>
</svg>
