<svg width="40" height="40" viewBox="0 0 40 40" fill="none" xmlns="http://www.w3.org/2000/svg">
<g clip-path="url(#clip0_539_4406)">
<path d="M31.25 39.9999H20C19.31 39.9999 18.75 39.4399 18.75 38.7499V29.5832C18.75 28.8933 19.31 28.3333 20 28.3333H31.25C31.94 28.3333 32.5 28.8933 32.5 29.5832V38.7499C32.5 39.4399 31.94 39.9999 31.25 39.9999ZM21.25 37.4999H30V30.8332H21.25V37.4999Z" fill="#E02C2B"/>
<path d="M25.4172 30.8333H14.5839C13.8939 30.8333 13.3339 30.2733 13.3339 29.5833V19.5833C13.3339 18.8933 13.8939 18.3333 14.5839 18.3333H25.4172C26.1072 18.3333 26.6672 18.8933 26.6672 19.5833V29.5833C26.6672 30.2733 26.1072 30.8333 25.4172 30.8333ZM15.8339 28.3333H24.1672V20.8333H15.8339V28.3333Z" fill="#E02C2B"/>
<path d="M20 39.9999H8.74999C8.05999 39.9999 7.49999 39.4399 7.49999 38.7499V29.5832C7.49999 28.8933 8.05999 28.3333 8.74999 28.3333H20C20.69 28.3333 21.25 28.8933 21.25 29.5832V38.7499C21.25 39.4399 20.69 39.9999 20 39.9999ZM9.99999 37.4999H18.75V30.8332H9.99999V37.4999Z" fill="#E02C2B"/>
<path d="M20 23.3333C19.31 23.3333 18.75 22.7733 18.75 22.0833V19.5833C18.75 18.8933 19.31 18.3333 20 18.3333C20.69 18.3333 21.25 18.8933 21.25 19.5833V22.0833C21.25 22.7733 20.69 23.3333 20 23.3333Z" fill="#E02C2B"/>
<path d="M14.5839 33.3333C13.8939 33.3333 13.3339 32.7733 13.3339 32.0833V29.5833C13.3339 28.8933 13.8939 28.3333 14.5839 28.3333C15.2739 28.3333 15.8339 28.8933 15.8339 29.5833V32.0833C15.8339 32.7733 15.2739 33.3333 14.5839 33.3333Z" fill="#E02C2B"/>
<path d="M25.4161 33.3333C24.7261 33.3333 24.1661 32.7733 24.1661 32.0833V29.5833C24.1661 28.8933 24.7261 28.3333 25.4161 28.3333C26.1061 28.3333 26.6661 28.8933 26.6661 29.5833V32.0833C26.6661 32.7733 26.1061 33.3333 25.4161 33.3333Z" fill="#E02C2B"/>
<path d="M37.0833 40.0001H2.91666C1.30833 40.0001 -7.62939e-06 38.6918 -7.62939e-06 37.0834V14.1668C-7.62939e-06 13.7551 0.203326 13.3701 0.541659 13.1368L19.2917 0.22009C19.7183 -0.0749097 20.2833 -0.0749097 20.71 0.22009L39.46 13.1368C39.7967 13.3701 40 13.7551 40 14.1668V37.0834C40 38.6918 38.6917 40.0001 37.0833 40.0001ZM2.49999 14.8234V37.0834C2.49999 37.3134 2.68666 37.5001 2.91666 37.5001H37.0833C37.3133 37.5001 37.5 37.3134 37.5 37.0834V14.8234L20 2.76842L2.49999 14.8234Z" fill="#E02C2B"/>
</g>
<defs>
<clipPath id="clip0_539_4406">
<rect width="40" height="40" fill="white"/>
</clipPath>
</defs>
</svg>
