<svg width="138" height="50" viewBox="0 0 138 50" fill="none" xmlns="http://www.w3.org/2000/svg">
<path d="M6.73835 49.5713H0.812429L5.30466 34.1385H0L1.38591 29.4229H17.9689L16.583 34.1385H11.2784L6.73835 49.5713Z" fill="#E02C2B"/>
<path d="M22.5567 49.9524C19.4503 49.9524 17.252 49.0474 16.0095 47.1897C14.767 45.3797 14.6236 42.8075 15.5794 39.5209C16.5352 36.2343 18.16 33.6622 20.5017 31.8522C22.7956 30.0421 25.5196 29.1371 28.6737 29.1371C30.442 29.1371 31.9234 29.4705 33.166 30.185C34.3607 30.8995 35.2209 31.8998 35.651 33.1858C36.0811 34.4719 36.0811 35.9485 35.6032 37.568H29.9163C30.203 36.4248 30.0596 35.5198 29.5817 34.8054C29.1039 34.0909 28.3392 33.7574 27.2879 33.7574C26.0453 33.7574 24.9462 34.2814 23.9426 35.2817C22.939 36.282 22.1744 37.7109 21.6487 39.4733C21.123 41.2833 21.0752 42.7123 21.4575 43.7126C21.8876 44.7129 22.7001 45.2368 23.9426 45.2368C24.9462 45.2368 25.902 44.9034 26.81 44.1889C27.6702 43.4744 28.3392 42.5694 28.7693 41.4262H34.4563C33.9784 43.0933 33.1182 44.5223 31.9235 45.856C30.7287 47.1421 29.3428 48.1424 27.7179 48.8568C26.0453 49.5713 24.3249 49.9524 22.5567 49.9524Z" fill="#E02C2B"/>
<path d="M39.9048 49.5713H34.3135L40.1916 29.4229H44.7794L49.5106 39.8544H49.6061L52.6647 29.4229H58.2561L52.3779 49.5713H47.8379L43.1067 38.9494H42.9634L39.9048 49.5713Z" fill="#E02C2B"/>
<path d="M70.6804 49.6189L70.537 45.6178H64.3722L62.4128 49.6189H56.3435L67.5263 29.4706H74.9814L76.9886 49.6189H70.6804ZM70.0591 34.1385L66.4271 41.4738H70.4414L70.1547 34.1385H70.0591Z" fill="black"/>
<path d="M88.5064 29.5182L85.6868 41.8073C85.4479 42.8552 85.4957 43.6649 85.878 44.2365C86.2603 44.8081 86.9294 45.0939 87.8852 45.0939C88.8409 45.0939 89.6534 44.8081 90.2746 44.2365C90.8959 43.6649 91.3738 42.8552 91.6127 41.8073L94.4323 29.5182H100.358L97.3953 42.4741C96.8696 44.7605 95.6271 46.5705 93.7155 47.9518C91.8039 49.3331 89.4622 50 86.786 50C84.1098 50 82.1026 49.3331 80.8123 47.9518C79.522 46.5705 79.0919 44.7605 79.6176 42.4741L82.5805 29.5182H88.5064Z" fill="black"/>
<path d="M109.103 49.6189H103.177L106.714 34.1861H101.409L102.46 29.4706H119.043L117.992 34.1861H112.687L109.103 49.6189Z" fill="black"/>
<path d="M121.767 31.9474C124.013 30.0897 126.737 29.1371 129.843 29.1371C132.95 29.1371 135.244 30.0897 136.63 31.9474C138.015 33.8051 138.35 36.3772 137.633 39.5685C136.916 42.7599 135.387 45.332 133.141 47.1897C130.895 49.0473 128.219 50 125.064 50C121.91 50 119.664 49.0473 118.278 47.1897C116.892 45.332 116.558 42.8075 117.275 39.5685C117.992 36.3772 119.473 33.8527 121.767 31.9474ZM131.373 35.4246C130.847 34.3767 129.987 33.8527 128.744 33.8527C127.502 33.8527 126.403 34.3767 125.399 35.4246C124.395 36.4725 123.726 37.8538 123.296 39.5685C122.914 41.2833 122.962 42.6646 123.487 43.7125C124.013 44.7605 124.873 45.2844 126.116 45.2844C127.358 45.2844 128.505 44.7605 129.461 43.7125C130.465 42.6646 131.134 41.2833 131.516 39.5685C131.994 37.8538 131.898 36.4725 131.373 35.4246Z" fill="black"/>
<path fill-rule="evenodd" clip-rule="evenodd" d="M2 23.5101C8.39688 14.1853 33.7195 15.0365 54.3106 17.0872C77.8163 19.4474 99.1266 21.5755 121.572 16.1586C95.3415 27.031 77.2864 24.1291 58.8528 21.885C38.2238 19.4087 11.16 16.5842 2 23.5101Z" fill="#E02C2B"/>
<path fill-rule="evenodd" clip-rule="evenodd" d="M99.2777 11.709C100.489 10.8965 102.268 9.15536 101.889 7.95591C101.322 6.21478 91.556 3.39028 79.7086 3.39028C70.6621 3.39028 52.9477 7.64638 44.6582 12.6763C53.6668 5.6731 68.0882 0.991375 78.8758 0.178846C85.6134 -0.36284 93.0701 0.294927 101.322 2.57775C108.703 4.97664 125.812 11.2834 138 9.73573C130.808 13.8758 110.898 19.2539 71.3434 16.0812C71.3813 16.0425 92.9187 15.3848 99.2777 11.709Z" fill="#E02C2B"/>
</svg>
