<svg width="550" height="200" viewBox="0 0 550 200" fill="none" xmlns="http://www.w3.org/2000/svg">
<path d="M26.8558 197.568H3.23795L21.1418 136.06H0L5.52357 117.266H71.6153L66.0918 136.06H44.9501L26.8558 197.568Z" fill="#F5F5F8"/>
<path d="M89.8998 199.086C77.5195 199.086 68.758 195.48 63.8059 188.076C58.8538 180.862 58.2825 170.611 62.0918 157.512C65.9011 144.413 72.3769 134.162 81.7098 126.948C90.8522 119.734 101.709 116.127 114.279 116.127C121.327 116.127 127.231 117.456 132.183 120.303C136.945 123.151 140.373 127.138 142.088 132.263C143.802 137.389 143.802 143.274 141.897 149.728H119.232C120.374 145.172 119.803 141.565 117.898 138.718C115.994 135.87 112.946 134.541 108.756 134.541C103.804 134.541 99.4232 136.63 95.4234 140.616C91.4236 144.603 88.3761 150.298 86.281 157.322C84.1859 164.536 83.9954 170.231 85.5191 174.218C87.2333 178.204 90.4712 180.292 95.4234 180.292C99.4232 180.292 103.232 178.964 106.851 176.116C110.28 173.268 112.946 169.661 114.66 165.105H137.326C135.421 171.75 131.993 177.445 127.231 182.76C122.47 187.886 116.946 191.873 110.47 194.72C103.804 197.568 96.9471 199.086 89.8998 199.086Z" fill="#F5F5F8"/>
<path d="M159.042 197.568H136.757L160.184 117.266H178.469L197.325 158.841H197.706L209.896 117.266H232.181L208.753 197.568H190.659L171.803 155.234H171.231L159.042 197.568Z" fill="#F5F5F8"/>
<path d="M281.698 197.758L281.127 181.811H256.556L248.747 197.758H224.558L269.127 117.456H298.84L306.84 197.758H281.698ZM279.222 136.06L264.746 165.295H280.746L279.603 136.06H279.222Z" fill="#F5F5F8"/>
<path d="M352.744 117.646L341.506 166.624C340.554 170.801 340.744 174.028 342.268 176.306C343.792 178.584 346.458 179.723 350.268 179.723C354.077 179.723 357.315 178.584 359.791 176.306C362.267 174.028 364.172 170.801 365.124 166.624L376.361 117.646H399.979L388.17 169.282C386.075 178.394 381.123 185.608 373.504 191.113C365.886 196.619 356.553 199.277 345.887 199.277C335.221 199.277 327.221 196.619 322.079 191.113C316.936 185.608 315.222 178.394 317.317 169.282L329.126 117.646H352.744Z" fill="#F5F5F8"/>
<path d="M434.832 197.758H411.215L425.309 136.25H404.167L408.358 117.456H474.449L470.259 136.25H449.117L434.832 197.758Z" fill="#F5F5F8"/>
<path d="M485.304 127.327C494.256 119.924 505.113 116.127 517.493 116.127C529.873 116.127 539.016 119.924 544.539 127.327C550.063 134.731 551.396 144.982 548.539 157.702C545.682 170.421 539.587 180.672 530.635 188.076C521.683 195.479 511.017 199.276 498.446 199.276C485.876 199.276 476.924 195.479 471.4 188.076C465.877 180.672 464.543 170.611 467.4 157.702C470.257 144.982 476.162 134.921 485.304 127.327ZM523.588 141.186C521.493 137.009 518.064 134.921 513.112 134.921C508.16 134.921 503.779 137.009 499.78 141.186C495.78 145.362 493.113 150.867 491.399 157.702C489.875 164.536 490.066 170.041 492.161 174.218C494.256 178.394 497.685 180.482 502.637 180.482C507.589 180.482 512.16 178.394 515.969 174.218C519.969 170.041 522.636 164.536 524.159 157.702C526.064 150.867 525.683 145.362 523.588 141.186Z" fill="#F5F5F8"/>
<path fill-rule="evenodd" clip-rule="evenodd" d="M7.9707 93.6997C33.4656 56.5358 134.389 59.9283 216.455 68.1013C310.138 77.5079 395.07 85.9893 484.529 64.4003C379.985 107.733 308.026 96.167 234.558 87.223C152.341 77.3537 44.4782 66.0966 7.9707 93.6997Z" fill="#F5F5F8"/>
<path fill-rule="evenodd" clip-rule="evenodd" d="M395.673 46.6665C400.5 43.4282 407.59 36.4888 406.082 31.7084C403.819 24.7691 364.898 13.512 317.68 13.512C281.625 13.512 211.024 30.4748 177.986 50.5217C213.89 22.6102 271.366 3.95114 314.361 0.712795C341.213 -1.4461 370.932 1.17543 403.819 10.2736C433.236 19.8345 501.424 44.9702 550 38.8019C521.337 55.3021 441.986 76.7369 284.34 64.0919C284.491 63.9377 370.329 61.3162 395.673 46.6665Z" fill="#F5F5F8"/>
</svg>
