<svg width="20" height="20" viewBox="0 0 20 20" fill="none" xmlns="http://www.w3.org/2000/svg">
<path d="M5 0C4.3125 0 3.75 0.5625 3.75 1.25V18.75C3.75 19.4375 4.3125 20 5 20H17.5C18.1875 20 18.75 19.4375 18.75 18.75V5L13.75 0H5Z" fill="#E2E5E7"/>
<path d="M15 5H18.75L13.75 0V3.75C13.75 4.4375 14.3125 5 15 5Z" fill="#B0B7BD"/>
<path d="M18.75 8.75L15 5H18.75V8.75Z" fill="#CAD1D8"/>
<path d="M16.25 16.25C16.25 16.5937 15.9687 16.875 15.625 16.875H1.875C1.53125 16.875 1.25 16.5937 1.25 16.25V9.99996C1.25 9.6562 1.53125 9.375 1.875 9.375H15.625C15.9687 9.375 16.25 9.6562 16.25 9.99996V16.25Z" fill="#E02C2B"/>
<path d="M3.97656 11.842C3.97656 11.6771 4.10656 11.4971 4.31594 11.4971H5.47031C6.12031 11.4971 6.70532 11.932 6.70532 12.7658C6.70532 13.5558 6.12031 13.9958 5.47031 13.9958H4.63594V14.6558C4.63594 14.8758 4.49594 15.0002 4.31594 15.0002C4.15094 15.0002 3.97656 14.8758 3.97656 14.6558V11.842ZM4.63594 12.1264V13.3715H5.47031C5.80531 13.3715 6.07031 13.0758 6.07031 12.7658C6.07031 12.4164 5.80531 12.1264 5.47031 12.1264H4.63594Z" fill="white"/>
<path d="M7.68558 15.0002C7.52058 15.0002 7.34058 14.9102 7.34058 14.6908V11.852C7.34058 11.6726 7.52058 11.542 7.68558 11.542H8.82995C11.1137 11.542 11.0637 15.0002 8.87491 15.0002H7.68558ZM8.00059 12.152V14.3908H8.82995C10.1793 14.3908 10.2393 12.152 8.82995 12.152H8.00059Z" fill="white"/>
<path d="M11.8725 12.1916V12.986H13.1469C13.3269 12.986 13.5069 13.166 13.5069 13.3404C13.5069 13.5053 13.3269 13.6404 13.1469 13.6404H11.8725V14.6897C11.8725 14.8647 11.7482 14.9991 11.5731 14.9991C11.3531 14.9991 11.2188 14.8647 11.2188 14.6897V11.851C11.2188 11.6716 11.3538 11.541 11.5731 11.541H13.3276C13.5476 11.541 13.6776 11.6716 13.6776 11.851C13.6776 12.011 13.5476 12.191 13.3276 12.191H11.8725V12.1916Z" fill="white"/>
<path d="M15.625 16.875H3.75V17.5H15.625C15.9687 17.5 16.25 17.2187 16.25 16.875V16.25C16.25 16.5938 15.9687 16.875 15.625 16.875Z" fill="#CAD1D8"/>
</svg>
