<svg width="40" height="40" viewBox="0 0 40 40" fill="none" xmlns="http://www.w3.org/2000/svg">
<g clip-path="url(#clip0_33_620)">
<path d="M19.6425 0.00992714C11.43 0.342427 5 7.29493 5 15.8349C5 27.7499 19.5 37.8349 20.1175 38.2599L20.855 38.7599L21.5725 38.2299C22.1425 37.8049 35.5225 27.7049 35.5225 14.7124C35.52 10.7949 33.9275 7.10743 31.035 4.32743C29.5214 2.8823 27.7332 1.75558 25.7764 1.01397C23.8195 0.272356 21.7337 -0.069063 19.6425 0.00992714ZM20.0575 9.72743C20.7148 9.69366 21.3721 9.79319 21.9899 10.02C22.6077 10.2469 23.1732 10.5964 23.6525 11.0474C24.635 11.9524 25.2025 13.1874 25.26 14.5224C25.2875 15.1787 25.1845 15.8339 24.9571 16.4501C24.7296 17.0664 24.3822 17.6314 23.935 18.1124C23.4904 18.5965 22.9546 18.988 22.3582 19.2643C21.7618 19.5406 21.1167 19.6963 20.46 19.7224H20.255C18.995 19.7224 17.8025 19.2549 16.87 18.3974C16.3859 17.9541 15.9945 17.4191 15.7186 16.8235C15.4426 16.2279 15.2876 15.5834 15.2625 14.9274C15.2104 13.6024 15.6859 12.3108 16.5848 11.336C17.4838 10.3612 18.7326 9.78267 20.0575 9.72743Z" fill="#E02C2B"/>
</g>
<defs>
<clipPath id="clip0_33_620">
<rect width="40" height="40" fill="white"/>
</clipPath>
</defs>
</svg>
