<svg width="24" height="24" viewBox="0 0 24 24" fill="none" xmlns="http://www.w3.org/2000/svg">
<path d="M7 17.259V6.74099C6.99995 6.56503 7.04632 6.39218 7.13444 6.23988C7.22256 6.08759 7.3493 5.96123 7.50188 5.87359C7.65445 5.78594 7.82744 5.7401 8.0034 5.7407C8.17935 5.7413 8.35203 5.78831 8.504 5.87699L17.519 11.137C17.6698 11.2251 17.795 11.3512 17.8819 11.5027C17.9689 11.6542 18.0147 11.8258 18.0147 12.0005C18.0147 12.1752 17.9689 12.3468 17.8819 12.4983C17.795 12.6498 17.6698 12.7759 17.519 12.864L8.504 18.123C8.35203 18.2117 8.17935 18.2587 8.0034 18.2593C7.82744 18.2599 7.65445 18.214 7.50188 18.1264C7.3493 18.0387 7.22256 17.9124 7.13444 17.7601C7.04632 17.6078 6.99995 17.4349 7 17.259Z" fill="white"/>
</svg>
