<svg width="20" height="20" viewBox="0 0 20 20" fill="none" xmlns="http://www.w3.org/2000/svg">
<g clip-path="url(#clip0_71_1303)">
<path d="M6.2069 4.1377H4.21103C3.72521 4.1377 3.26194 4.34267 2.93518 4.70218L0 7.9308L9.77 8.96525L20 7.9308L17.0648 4.70218C16.7381 4.34267 16.2748 4.1377 15.789 4.1377H13.7931" fill="#90BAE1"/>
<path d="M6.54941 0H13.446C13.6364 0 13.7908 0.154385 13.7908 0.344827V6.2069H6.20459V0.344827C6.20459 0.154385 6.35897 0 6.54941 0Z" fill="#BDC3C7"/>
<path d="M14.4822 6.55196H5.51671C5.32626 6.55196 5.17188 6.39758 5.17188 6.20713C5.17188 6.01669 5.32626 5.8623 5.51671 5.8623H14.4822C14.6726 5.8623 14.827 6.01669 14.827 6.20713C14.827 6.39758 14.6726 6.55196 14.4822 6.55196Z" fill="#2C3E50"/>
<path d="M12.7591 16.552H7.2418C7.05136 16.552 6.89697 16.3976 6.89697 16.2072C6.89697 16.0167 7.05136 15.8623 7.2418 15.8623H12.7591C12.9495 15.8623 13.1039 16.0167 13.1039 16.2072C13.1039 16.3976 12.9495 16.552 12.7591 16.552Z" fill="black"/>
<path d="M15.1724 16.2065H18.2758C18.7331 16.2065 19.1717 16.0248 19.495 15.7016C19.8183 15.3782 20 14.9396 20 14.4824V7.93066H0V14.4824C0 14.9396 0.18165 15.3782 0.504988 15.7016C0.828328 16.0248 1.26687 16.2065 1.72414 16.2065H4.82758" fill="#4482C3"/>
<path d="M4.82773 16.2067H4.48291V13.1033C4.48291 11.5798 5.71798 10.3447 7.24153 10.3447H12.7587C14.2823 10.3447 15.5174 11.5798 15.5174 13.1033V16.2067H15.1726" fill="#2C3E50"/>
<path d="M12.7591 16.552H7.2418C7.05136 16.552 6.89697 16.3976 6.89697 16.2072C6.89697 16.0167 7.05136 15.8623 7.2418 15.8623H12.7591C12.9495 15.8623 13.1039 16.0167 13.1039 16.2072C13.1039 16.3976 12.9495 16.552 12.7591 16.552Z" fill="black"/>
<path d="M17.9319 11.0346C18.3127 11.0346 18.6215 10.7258 18.6215 10.345C18.6215 9.96407 18.3127 9.65527 17.9319 9.65527C17.551 9.65527 17.2422 9.96407 17.2422 10.345C17.2422 10.7258 17.551 11.0346 17.9319 11.0346Z" fill="#285680"/>
<path d="M17.9308 12.759C18.1212 12.759 18.2756 12.6046 18.2756 12.4142C18.2756 12.2237 18.1212 12.0693 17.9308 12.0693C17.7403 12.0693 17.5859 12.2237 17.5859 12.4142C17.5859 12.6046 17.7403 12.759 17.9308 12.759Z" fill="#CC4B4C"/>
<path d="M17.9308 13.7932C18.1212 13.7932 18.2756 13.6388 18.2756 13.4483C18.2756 13.2579 18.1212 13.1035 17.9308 13.1035C17.7403 13.1035 17.5859 13.2579 17.5859 13.4483C17.5859 13.6388 17.7403 13.7932 17.9308 13.7932Z" fill="#4FBA6F"/>
<path d="M17.9308 14.8273C18.1212 14.8273 18.2756 14.6729 18.2756 14.4825C18.2756 14.292 18.1212 14.1377 17.9308 14.1377C17.7403 14.1377 17.5859 14.292 17.5859 14.4825C17.5859 14.6729 17.7403 14.8273 17.9308 14.8273Z" fill="#4FBA6F"/>
<path d="M6.5505 13.4482H13.447C13.8279 13.4482 14.1367 13.757 14.1367 14.1379V15.5173H5.86084V14.1379C5.86084 13.757 6.16961 13.4482 6.5505 13.4482Z" fill="#285680"/>
<path d="M1.37754 10.0003C1.1871 10.0003 1.03271 9.84598 1.03271 9.6555V9.3107C1.03271 9.12022 1.1871 8.96582 1.37754 8.96582C1.56798 8.96582 1.72236 9.12022 1.72236 9.3107V9.6555C1.72236 9.84598 1.56798 10.0003 1.37754 10.0003Z" fill="#90BAE1"/>
<path d="M1.37754 13.4481C1.1871 13.4481 1.03271 13.2937 1.03271 13.1033V11.0343C1.03271 10.8439 1.1871 10.6895 1.37754 10.6895C1.56798 10.6895 1.72236 10.8439 1.72236 11.0343V13.1033C1.72236 13.2937 1.56798 13.4481 1.37754 13.4481Z" fill="#90BAE1"/>
<path d="M14.0133 18.966H16.5513C16.6819 18.966 16.8013 18.8922 16.8597 18.7754C16.9181 18.6586 16.9055 18.5188 16.8272 18.4143L15.172 16.2074L14.1375 14.8281H5.86165L4.82717 16.2074L3.172 18.4143C3.09363 18.5188 3.08102 18.6586 3.13943 18.7754C3.19785 18.8922 3.31725 18.966 3.44785 18.966H5.98579" fill="#4482C3"/>
<path d="M13.947 20.0002H6.0525C5.93526 20.0001 5.82607 19.9405 5.76262 19.8419C5.69918 19.7434 5.69017 19.6193 5.7387 19.5126L7.14939 16.4091C7.20535 16.2861 7.32802 16.207 7.46318 16.207H12.5363C12.6715 16.207 12.7941 16.2861 12.8501 16.4091L14.2608 19.5126C14.3093 19.6193 14.3003 19.7434 14.2368 19.8419C14.1734 19.9405 14.0642 20.0001 13.947 20.0002Z" fill="#BDC3C7"/>
<path d="M11.3785 17.9308H8.61995C8.42947 17.9308 8.27515 17.7764 8.27515 17.586C8.27515 17.3955 8.42947 17.2412 8.61995 17.2412H11.3785C11.569 17.2412 11.7234 17.3955 11.7234 17.586C11.7234 17.7764 11.569 17.9308 11.3785 17.9308Z" fill="#2C3E50"/>
<path d="M12.0687 18.9651H7.93077C7.74032 18.9651 7.58594 18.8107 7.58594 18.6203C7.58594 18.4298 7.74032 18.2754 7.93077 18.2754H12.0687C12.2591 18.2754 12.4135 18.4298 12.4135 18.6203C12.4135 18.8107 12.2591 18.9651 12.0687 18.9651Z" fill="#2C3E50"/>
</g>
<defs>
<clipPath id="clip0_71_1303">
<rect width="20" height="20" fill="white"/>
</clipPath>
</defs>
</svg>
