<svg width="40" height="40" viewBox="0 0 40 40" fill="none" xmlns="http://www.w3.org/2000/svg">
<path d="M20 0C8.97187 0 0 8.97187 0 20C0 31.0281 8.97187 40 20 40C31.0281 40 40 31.0281 40 20C40 8.97187 31.0281 0 20 0ZM20 37.5C10.3506 37.5 2.5 29.6494 2.5 20C2.5 10.3506 10.3506 2.5 20 2.5C29.6494 2.5 37.5 10.3506 37.5 20C37.5 29.6494 29.6494 37.5 20 37.5Z" fill="#E02C2B"/>
<path d="M20.3385 6.52148C15.401 6.52148 11.3848 10.5377 11.3848 15.474C11.3848 16.164 11.9441 16.724 12.6348 16.724C13.3254 16.724 13.8848 16.164 13.8848 15.474C13.8848 11.9165 16.7804 9.02148 20.3385 9.02148C23.8954 9.02148 26.7898 11.9165 26.7898 15.474C26.7898 19.0315 23.8954 21.9265 20.3385 21.9265C19.6479 21.9265 19.0885 22.4865 19.0885 23.1765V28.0084C19.0885 28.6984 19.6479 29.2584 20.3385 29.2584C21.0291 29.2584 21.5885 28.6984 21.5885 28.0084V24.339C25.9341 23.729 29.2898 19.9859 29.2898 15.4734C29.2898 10.5371 25.2741 6.52148 20.3385 6.52148Z" fill="#E02C2B"/>
<path d="M20.3369 34.121C21.0925 34.121 21.705 33.5085 21.705 32.7529C21.705 31.9973 21.0925 31.3848 20.3369 31.3848C19.5813 31.3848 18.9688 31.9973 18.9688 32.7529C18.9688 33.5085 19.5813 34.121 20.3369 34.121Z" fill="#E02C2B"/>
</svg>
