<svg width="60" height="60" viewBox="0 0 60 60" fill="none" xmlns="http://www.w3.org/2000/svg">
<path d="M17.8869 55.0434C20.2343 55.0434 22.1371 53.1405 22.1371 50.7932C22.1371 48.4459 20.2343 46.543 17.8869 46.543C15.5396 46.543 13.6367 48.4459 13.6367 50.7932C13.6367 53.1405 15.5396 55.0434 17.8869 55.0434Z" fill="black"/>
<path d="M48.5456 55.0434C50.8929 55.0434 52.7958 53.1405 52.7958 50.7932C52.7958 48.4459 50.8929 46.543 48.5456 46.543C46.1983 46.543 44.2954 48.4459 44.2954 50.7932C44.2954 53.1405 46.1983 55.0434 48.5456 55.0434Z" fill="black"/>
<path d="M52.9561 43.8576C52.9561 44.3729 52.747 44.8418 52.4067 45.1826C52.2332 45.3575 52.0266 45.4963 51.799 45.5906C51.5713 45.685 51.3272 45.7331 51.0808 45.7322H19.7069C19.2728 45.733 18.8494 45.5978 18.4961 45.3455C18.1428 45.0933 17.8774 44.7366 17.7373 44.3258L17.7032 44.2255L16.9904 41.9819L7.73221 12.9113L7.31642 11.6048C7.00362 10.6175 7.54707 9.56376 8.53532 9.24825C9.00956 9.09762 9.52419 9.14141 9.96616 9.37C10.4081 9.59858 10.7413 9.99326 10.8924 10.4673L11.2335 11.5383L12.4423 15.331L13.6369 19.0816L19.7414 38.2559L20.501 40.6377C20.6308 40.9951 20.8568 41.3097 21.154 41.5469C21.4512 41.7841 21.8081 41.9347 22.1854 41.9821H51.0806C51.327 41.9819 51.5709 42.0303 51.7985 42.1245C52.0262 42.2186 52.233 42.3568 52.4072 42.531C52.5814 42.7052 52.7195 42.912 52.8137 43.1396C52.9079 43.3673 52.9563 43.6112 52.9561 43.8576Z" fill="#D3D3D3"/>
<path d="M52.9557 20.2454V33.3429C52.9557 36.0558 50.7592 38.2559 48.0463 38.2559H19.7415L13.6377 19.0816H52.4668C52.5841 19.0816 52.6983 19.0713 52.8108 19.0508C52.9061 19.4327 52.9557 19.8332 52.9557 20.2454Z" fill="#E02C2B"/>
<path d="M12.0344 10.8324C12.0344 11.3515 11.8251 11.8204 11.4846 12.1581C11.3111 12.333 11.1046 12.4718 10.8771 12.5662C10.6495 12.6606 10.4054 12.7088 10.1591 12.708H1.8755C0.84065 12.708 0 11.8672 0 10.8324C0 10.3136 0.209256 9.84465 0.549976 9.50702C0.723418 9.33204 0.929931 9.1933 1.1575 9.09888C1.38506 9.00446 1.62913 8.95625 1.8755 8.95704H10.1591C11.1937 8.95704 12.0344 9.79823 12.0344 10.8324ZM41.1189 24.0209V33.1143C41.1189 34.1484 40.277 34.9885 39.2425 34.9885C38.7246 34.9885 38.2561 34.7789 37.9186 34.4382C37.7435 34.2651 37.6047 34.0589 37.5102 33.8316C37.4156 33.6043 37.3674 33.3605 37.3681 33.1143V24.0209C37.3681 22.9868 38.2082 22.1467 39.2425 22.1467C39.7624 22.1467 40.2308 22.3563 40.5684 22.697C40.7434 22.8701 40.8822 23.0764 40.9767 23.3036C41.0712 23.5309 41.1196 23.7748 41.1189 24.0209ZM24.9284 24.0209V33.1143C24.9284 34.1484 24.0883 34.9885 23.0522 34.9885C22.8061 34.9892 22.5622 34.9408 22.3349 34.8463C22.1076 34.7519 21.9013 34.6131 21.7281 34.4382C21.553 34.2652 21.4142 34.059 21.3196 33.8316C21.2251 33.6043 21.1768 33.3605 21.1776 33.1143V24.0209C21.1776 22.9868 22.0177 22.1467 23.0522 22.1467C23.5719 22.1467 24.0407 22.3563 24.3797 22.697C24.5542 22.8705 24.6925 23.0768 24.7867 23.304C24.8808 23.5313 24.929 23.7749 24.9284 24.0209ZM32.9019 24.0209V33.1143C32.9019 34.1484 32.06 34.9885 31.0257 34.9885C30.7793 34.989 30.5352 34.9406 30.3076 34.8461C30.0801 34.7516 29.8735 34.613 29.6998 34.4382C29.3591 34.1024 29.1513 33.6322 29.1513 33.1143V24.0209C29.1513 22.9868 29.9914 22.1467 31.0257 22.1467C31.5454 22.1467 32.0139 22.3563 32.3516 22.697C32.5265 22.8702 32.6653 23.0764 32.7598 23.3037C32.8543 23.531 32.9026 23.7748 32.9019 24.0209ZM49.5796 24.0209V33.1143C49.5796 34.1484 48.7397 34.9885 47.7052 34.9885C47.1873 34.9885 46.717 34.7789 46.3793 34.4382C46.2043 34.2651 46.0654 34.0589 45.9709 33.8316C45.8764 33.6043 45.8282 33.3605 45.829 33.1143V24.0209C45.829 22.9868 46.6707 22.1467 47.7052 22.1467C48.2231 22.1467 48.6935 22.3563 49.0311 22.697C49.2054 22.8705 49.3437 23.0769 49.4378 23.3041C49.532 23.5313 49.5802 23.775 49.5796 24.0209ZM23.4285 44.0204C23.6063 44.1909 23.7485 44.3951 23.8467 44.621C23.9449 44.847 23.9972 45.0902 24.0006 45.3365C24.0062 45.5829 23.9626 45.8279 23.8725 46.0572C23.7824 46.2866 23.6476 46.4957 23.4758 46.6724L20.1312 50.1389C19.4129 50.8833 18.2239 50.9043 17.4796 50.186C17.3016 50.0156 17.1593 49.8115 17.0611 49.5855C16.9628 49.3596 16.9105 49.1163 16.9073 48.8699C16.9018 48.6236 16.9454 48.3787 17.0354 48.1493C17.1255 47.92 17.2603 47.7109 17.4319 47.5341L20.7765 44.0679C21.4948 43.3234 22.6839 43.3022 23.4285 44.0204ZM48.6657 43.4957C48.912 43.4913 49.1567 43.536 49.3856 43.627C49.6145 43.718 49.823 43.8536 49.9991 44.0259C50.1766 44.1967 50.3185 44.4012 50.4163 44.6274C50.514 44.8536 50.5658 45.097 50.5686 45.3434L50.6395 50.1599C50.6546 51.1941 49.8264 52.0469 48.7918 52.0621C48.5455 52.0666 48.3007 52.0221 48.0718 51.9311C47.843 51.84 47.6345 51.7043 47.4586 51.5319C47.281 51.3611 47.1391 51.1567 47.0413 50.9305C46.9435 50.7044 46.8916 50.4611 46.8887 50.2147L46.818 45.3984C46.8026 44.364 47.6311 43.5109 48.6657 43.4957ZM54.3408 17.2065C54.3408 17.7246 54.1312 18.1949 53.7903 18.5324C53.5246 18.8014 53.1825 18.9821 52.8106 19.0501C52.6982 19.0706 52.5839 19.0809 52.4666 19.0809H13.6375L12.4427 15.3317H52.4666C53.5007 15.3319 54.3408 16.1724 54.3408 17.2065Z" fill="#C51E1D"/>
<path d="M49.7357 12.2072H54.5676C55.3981 12.2072 56.0745 12.8834 56.0745 13.7139C56.0745 14.1315 55.9058 14.5079 55.6324 14.7785C55.4931 14.9191 55.3273 15.0307 55.1445 15.1066C54.9618 15.1825 54.7657 15.2213 54.5678 15.2208H49.7359L49.7357 12.2072ZM49.7357 15.2208H47.9159C47.085 15.2208 46.4092 14.5446 46.4092 13.7137C46.4092 13.2979 46.5773 12.9204 46.8513 12.6491C46.9905 12.5085 47.1564 12.397 47.3392 12.3211C47.5219 12.2452 47.718 12.2065 47.9159 12.207H49.7357" fill="#F7F7F7"/>
</svg>
