<svg width="130" height="30" viewBox="0 0 130 30" fill="none" xmlns="http://www.w3.org/2000/svg">
<g clip-path="url(#clip0_99_1764)">
<path fill-rule="evenodd" clip-rule="evenodd" d="M129.715 9.22852L129.51 9.76054C129.309 10.2912 129.166 10.6038 128.973 11.0332C128.851 11.2986 128.71 11.6112 128.516 12.0625L124.39 22.3651C123.669 24.1991 122.231 25.2492 120.454 25.2492C119.839 25.2492 119.115 25.0618 118.706 24.8921L118.335 24.7353L118.502 24.3615C119.075 23.1267 119.446 22.7296 120.643 22.6305C121.097 22.5943 121.591 22.0564 121.939 21.2239L122.114 20.7962L118.378 12.0591C118.18 11.5914 118.03 11.2304 117.879 10.8653C117.735 10.5259 117.594 10.19 117.415 9.77514L117.181 9.22852H119.02C120.084 9.22852 120.556 9.55851 120.964 10.6038C120.964 10.6038 123.019 15.7412 123.173 16.1153C123.321 16.494 123.503 17.3985 123.503 17.3985L123.598 17.3929C123.598 17.3929 123.73 16.5865 123.889 16.1153C124.052 15.6473 125.882 10.6184 125.882 10.6184C126.265 9.58772 126.789 9.22852 127.872 9.22852H129.715Z" fill="#E51A4B"/>
<path fill-rule="evenodd" clip-rule="evenodd" d="M106.716 9.0918C105.468 9.0918 103.925 10.1753 103.585 11.56C103.585 11.5433 103.585 10.8864 103.585 10.7313C103.585 9.99797 103.149 9.22776 101.776 9.22776H100.75V21.2339H103.659V16.2516C103.659 15.5113 103.735 14.8885 103.904 14.3436C104.339 12.912 105.417 11.9874 106.647 11.9874C106.945 11.9874 107.196 12.0416 107.196 12.0416L107.677 12.1553V9.1916L107.346 9.14221C107.333 9.14221 107.027 9.0918 106.716 9.0918Z" fill="#E51A4B"/>
<path fill-rule="evenodd" clip-rule="evenodd" d="M115.151 9.0918C113.906 9.0918 112.368 10.1753 112.025 11.56C112.025 11.5433 112.025 10.8864 112.025 10.7313C112.025 9.99797 111.594 9.22776 110.216 9.22776H109.188V21.2339H112.096V16.2516C112.096 15.5113 112.177 14.8885 112.341 14.3436C112.777 12.912 113.856 11.9874 115.088 11.9874C115.389 11.9874 115.636 12.0416 115.636 12.0416L116.114 12.1553V9.1916L115.786 9.14221C115.772 9.14221 115.467 9.0918 115.151 9.0918Z" fill="#E51A4B"/>
<path fill-rule="evenodd" clip-rule="evenodd" d="M54.0041 9.36719C50.3773 9.36719 47.6445 12.0531 47.6445 15.6152C47.6445 19.2021 50.3773 21.9095 54.0041 21.9095C57.5848 21.9095 60.3891 19.1423 60.3891 15.6152C60.3891 12.0531 57.6473 9.36719 54.0041 9.36719ZM54.0041 19.2577C52.0607 19.2577 50.5934 17.6908 50.5934 15.6152C50.5934 13.5626 52.0607 12.0152 54.0041 12.0152C55.9614 12.0152 57.4364 13.5626 57.4364 15.6152C57.4364 17.6908 55.9614 19.2577 54.0041 19.2577Z" fill="#E51A4B"/>
<path fill-rule="evenodd" clip-rule="evenodd" d="M40.8186 9.36726C39.1757 9.36726 38.0477 10.0388 37.392 10.6094H37.308C37.308 10.6094 37.392 9.95181 37.392 9.28276C37.392 8.61234 37.392 7.01173 37.392 7.01173C37.392 5.78945 36.8004 5.19727 35.594 5.19727H34.4819V15.7162C34.6266 19.5364 36.9864 21.9096 40.649 21.9096C44.0222 21.9096 46.5676 19.2133 46.5676 15.6383C46.5676 12.0625 44.0968 9.36726 40.8186 9.36726ZM40.3381 19.2783C38.4683 19.2783 37.2754 17.4489 37.2754 15.6783C37.2754 12.9924 38.9828 12.0354 40.3808 12.0354C41.982 12.0354 43.6343 13.3926 43.6343 15.6567C43.6343 17.926 41.9574 19.2783 40.3381 19.2783Z" fill="#E51A4B"/>
<path fill-rule="evenodd" clip-rule="evenodd" d="M80.1339 9.36726C78.4893 9.36726 77.3634 10.0388 76.7024 10.6094H76.6195C76.6195 10.6094 76.7024 9.95181 76.7024 9.28276C76.7024 8.61234 76.7024 7.01173 76.7024 7.01173C76.7024 5.78945 76.1153 5.19727 74.9089 5.19727H73.7969V15.7162C73.9398 19.5364 76.303 21.9096 79.957 21.9096C83.3337 21.9096 85.879 19.2133 85.879 15.6383C85.879 12.0625 83.409 9.36726 80.1339 9.36726ZM79.6495 19.2783C77.7815 19.2783 76.5875 17.4489 76.5875 15.6783C76.5875 12.9924 78.295 12.0354 79.6926 12.0354C81.2959 12.0354 82.9496 13.3926 82.9496 15.6567C82.9496 17.926 81.273 19.2783 79.6495 19.2783Z" fill="#E51A4B"/>
<path fill-rule="evenodd" clip-rule="evenodd" d="M70.6174 19.0103L68.2525 15.228L70.2656 12.1933C70.632 11.6394 70.9179 11.244 71.2218 10.8253C71.4432 10.5235 71.667 10.2168 71.9168 9.8503L72.3404 9.23828H70.1473C68.9141 9.23828 68.4547 9.50744 67.7945 10.6087C67.7945 10.6087 66.908 12.0834 66.7848 12.2914C66.6689 12.4951 66.3629 13.1812 66.3559 13.1986H66.2758C66.2758 13.1986 66.002 12.5633 65.8358 12.2914C65.6748 12.0163 64.8154 10.6031 64.8154 10.6031C64.1194 9.50744 63.6551 9.23828 62.4681 9.23828H60.2798L60.7236 9.85585C61.2527 10.6087 61.5566 11.051 62.0126 11.7152L64.356 15.228L62.3658 18.5391C61.998 19.0861 61.7121 19.4884 61.4064 19.9053C61.1843 20.2103 60.963 20.5121 60.7093 20.8744L60.2892 21.4924H62.4824C63.7141 21.4924 64.1766 21.2271 64.8365 20.1254C64.8365 20.1254 65.7192 18.6528 65.8424 18.4431C65.959 18.239 66.2661 17.5515 66.2758 17.5352H66.3559C66.3559 17.5352 66.6276 18.167 66.7921 18.4431C66.9565 18.7143 67.8146 20.1313 67.8146 20.1313C68.5117 21.227 68.9728 21.4924 70.1611 21.4924H72.3474L71.9008 20.8744C71.3755 20.1254 71.0695 19.6817 70.6174 19.0103Z" fill="#E51A4B"/>
<path fill-rule="evenodd" clip-rule="evenodd" d="M96.9657 18.2194C96.6337 18.2194 96.3314 18.3603 96.0331 18.4956L95.9897 18.5136C95.3731 18.7988 94.6226 19.1472 93.732 19.1472C92.2164 19.1472 90.2571 18.2087 90.0843 16.1466C90.0843 16.1466 98.3584 16.1466 98.4587 16.1466C98.5101 15.7533 98.5409 15.1775 98.5409 14.8704C98.5409 11.4929 96.319 9.22363 93.0332 9.22363C89.5225 9.22363 87.0649 11.8055 87.0649 15.495C87.0649 19.1277 89.9764 21.7649 93.6247 21.7649C96.5854 21.7649 98.2419 19.9449 98.312 19.8747L98.5101 19.6747L98.3921 19.4195C98.1208 18.8638 97.7273 18.2194 96.9657 18.2194ZM93.2372 11.5162C94.4773 11.5162 95.7812 12.2837 95.7812 13.9104H90.1106C90.3036 12.6627 91.5658 11.5162 93.2372 11.5162Z" fill="#E51A4B"/>
<path fill-rule="evenodd" clip-rule="evenodd" d="M11.8421 22.9601C13.1093 21.6839 15.1595 21.6839 16.4252 22.9601C17.6962 24.2383 17.6962 26.3125 16.4252 27.5908C15.1595 28.8722 13.1093 28.8722 11.8421 27.5908C10.5819 26.3125 10.5819 24.2383 11.8421 22.9601Z" fill="#E51A4B"/>
<path fill-rule="evenodd" clip-rule="evenodd" d="M17.2881 17.461C16.0244 18.7372 16.0244 20.8101 17.2881 22.0915C18.5556 23.3659 20.6093 23.3659 21.8747 22.0915C23.1383 20.8101 23.1383 18.7372 21.8747 17.461C20.6093 16.1849 18.5556 16.1849 17.2881 17.461Z" fill="#E51A4B"/>
<path fill-rule="evenodd" clip-rule="evenodd" d="M22.7379 11.961C21.4721 13.2368 21.4721 15.3114 22.7379 16.5858C24.0036 17.871 26.0556 17.871 27.3231 16.5858C28.5854 15.3114 28.5854 13.2368 27.3231 11.961C26.0556 10.681 24.0036 10.681 22.7379 11.961Z" fill="#E51A4B"/>
<path fill-rule="evenodd" clip-rule="evenodd" d="M6.3982 17.461C5.12898 18.7372 5.12898 20.8115 6.3982 22.0915C7.66394 23.3659 9.71591 23.3659 10.9834 22.0915C12.2474 20.8115 12.2474 18.7372 10.9834 17.461C9.71591 16.1849 7.66394 16.1849 6.3982 17.461Z" fill="#E51A4B"/>
<path fill-rule="evenodd" clip-rule="evenodd" d="M0.950617 11.961C-0.316872 13.2403 -0.316872 15.3114 0.950617 16.5858C2.21602 17.871 4.26799 17.871 5.53373 16.5858C6.80086 15.3114 6.80086 13.2403 5.53373 11.961C4.26799 10.681 2.21602 10.681 0.950617 11.961Z" fill="#E51A4B"/>
<path fill-rule="evenodd" clip-rule="evenodd" d="M11.8421 11.961C10.5819 13.2368 10.5819 15.3114 11.8421 16.5858C13.1093 17.871 15.1595 17.871 16.4308 16.5858C17.6962 15.3114 17.6962 13.2368 16.4308 11.961C15.1595 10.681 13.1093 10.681 11.8421 11.961Z" fill="#E51A4B"/>
<path fill-rule="evenodd" clip-rule="evenodd" d="M6.3982 6.46026C5.12898 7.73957 5.12898 9.81066 6.3982 11.0907C7.66394 12.3689 9.71591 12.3689 10.9834 11.0907C12.2474 9.81066 12.2474 7.73957 10.9834 6.46026C9.71591 5.17991 7.66394 5.17991 6.3982 6.46026Z" fill="#E51A4B"/>
<path fill-rule="evenodd" clip-rule="evenodd" d="M17.2881 6.46026C16.0244 7.73957 16.0244 9.81066 17.2881 11.0907C18.5556 12.3689 20.6093 12.3689 21.8747 11.0907C23.1383 9.81066 23.1383 7.73957 21.8747 6.46026C20.6093 5.17991 18.5556 5.17991 17.2881 6.46026Z" fill="#E51A4B"/>
<path fill-rule="evenodd" clip-rule="evenodd" d="M11.8421 0.959743C13.1093 -0.319914 15.1595 -0.319914 16.4308 0.959743C17.6962 2.23974 17.6962 4.31015 16.4308 5.58806C15.1595 6.86632 13.1093 6.86632 11.8421 5.58806C10.5819 4.31015 10.5819 2.23974 11.8421 0.959743Z" fill="#B0CB1F"/>
<path fill-rule="evenodd" clip-rule="evenodd" d="M37.5584 26.5293V29.4649H37.0504V26.9967H35.7226V29.4649H35.2129V26.5293H37.5584Z" fill="#E51A4B"/>
<path fill-rule="evenodd" clip-rule="evenodd" d="M39.0106 26.5294V28.468L41.0018 26.3037V29.4649H40.498V27.5058L38.5078 29.6704V26.5294H39.0106Z" fill="#E51A4B"/>
<path fill-rule="evenodd" clip-rule="evenodd" d="M44.2318 27.3516C43.9674 27.0104 43.5812 26.9134 43.3206 26.9134C42.7821 26.9134 42.2926 27.2921 42.2926 28.0053C42.2926 28.724 42.7964 29.0979 43.3147 29.0979C43.6152 29.0979 43.9868 28.964 44.2519 28.6375V29.2474C43.9355 29.4786 43.6027 29.5506 43.3293 29.5506C42.423 29.5506 41.7725 28.8986 41.7725 28.0161C41.7725 27.1175 42.432 26.46 43.3293 26.46C43.7908 26.46 44.0912 26.6405 44.2318 26.7413V27.3516Z" fill="#E51A4B"/>
<path fill-rule="evenodd" clip-rule="evenodd" d="M45.0239 26.5293H45.5281V27.6539H46.0465C46.307 27.6539 46.6696 27.6775 46.9278 27.9428C47.0433 28.0566 47.1526 28.262 47.1526 28.5621C47.1526 28.8796 47.02 29.0984 46.8917 29.219C46.6429 29.459 46.3268 29.4649 46.0388 29.4649H45.0239V26.5293ZM45.9962 29.0132C46.1641 29.0132 46.3268 29.0062 46.4465 28.9353C46.5069 28.8925 46.636 28.7878 46.636 28.5621C46.636 28.4321 46.5985 28.2822 46.4517 28.1918C46.3268 28.107 46.1641 28.107 46.0031 28.107H45.5281V29.0132H45.9962Z" fill="#E51A4B"/>
<path fill-rule="evenodd" clip-rule="evenodd" d="M48.1912 26.3037L49.3958 28.6937L50.5707 26.3037L51.2733 29.4649H50.749L50.3684 27.6484L49.3802 29.6704L48.3806 27.6484L48.0087 29.4649H47.4868L48.1912 26.3037Z" fill="#E51A4B"/>
<path fill-rule="evenodd" clip-rule="evenodd" d="M54.1146 26.5288H54.6205V29.4644H54.1146V29.0544C53.9485 29.2759 53.632 29.5506 53.1206 29.5506C52.386 29.5506 51.707 29.029 51.707 27.9945C51.707 26.9816 52.377 26.46 53.1206 26.46C53.6803 26.46 53.9842 26.7688 54.1146 26.9475V26.5288ZM52.2254 27.9945C52.2254 28.625 52.5758 29.0979 53.1765 29.0979C53.7951 29.0979 54.1435 28.5811 54.1435 28.0022C54.1435 27.2437 53.6268 26.9134 53.1765 26.9134C52.6792 26.9134 52.2254 27.2796 52.2254 27.9945Z" fill="#E51A4B"/>
<path fill-rule="evenodd" clip-rule="evenodd" d="M57.708 26.5294V28.468L59.6993 26.3037V29.4649H59.1951V27.5058L57.2021 29.6704V26.5294H57.708Z" fill="#E51A4B"/>
<path fill-rule="evenodd" clip-rule="evenodd" d="M64.6232 26.5293V29.4649H64.1176V26.9967H62.7873V29.4649H62.2832V26.5293H64.6232Z" fill="#E51A4B"/>
<path fill-rule="evenodd" clip-rule="evenodd" d="M65.3921 28.0053C65.3921 27.1175 66.0447 26.46 66.9351 26.46C67.823 26.46 68.4756 27.1175 68.4756 28.0053C68.4756 28.8986 67.8143 29.5506 66.9351 29.5506C66.05 29.5506 65.3921 28.8986 65.3921 28.0053ZM65.9125 28.0053C65.9125 28.7296 66.4164 29.0979 66.9351 29.0979C67.4583 29.0979 67.9552 28.724 67.9552 28.0053C67.9552 27.2865 67.4659 26.9134 66.9351 26.9134C66.4039 26.9134 65.9125 27.2921 65.9125 28.0053Z" fill="#E51A4B"/>
<path fill-rule="evenodd" clip-rule="evenodd" d="M71.522 27.3516C71.2556 27.0104 70.8715 26.9134 70.6119 26.9134C70.0724 26.9134 69.5828 27.2921 69.5828 28.0053C69.5828 28.724 70.0887 29.0979 70.605 29.0979C70.9072 29.0979 71.2771 28.964 71.5415 28.6375V29.2474C71.2268 29.4786 70.8926 29.5506 70.6189 29.5506C69.715 29.5506 69.0645 28.8986 69.0645 28.0161C69.0645 27.1175 69.7237 26.46 70.6189 26.46C71.0803 26.46 71.3822 26.6405 71.522 26.7413V27.3516Z" fill="#E51A4B"/>
<path fill-rule="evenodd" clip-rule="evenodd" d="M72.312 26.5293H72.8196V27.6539H73.3349C73.5975 27.6539 73.9605 27.6775 74.2193 27.9428C74.3303 28.0566 74.4445 28.262 74.4445 28.5621C74.4445 28.8796 74.3109 29.0984 74.1856 29.219C73.9338 29.459 73.617 29.4649 73.3293 29.4649H72.312V26.5293ZM73.288 29.0132C73.4546 29.0132 73.617 29.0062 73.7349 28.9353C73.8016 28.8925 73.923 28.7878 73.923 28.5621C73.923 28.4321 73.8921 28.2822 73.7422 28.1918C73.617 28.107 73.4546 28.107 73.2957 28.107H72.8196V29.0132H73.288ZM74.7936 26.5293H75.2994V29.4649H74.7936V26.5293Z" fill="#E51A4B"/>
<path fill-rule="evenodd" clip-rule="evenodd" d="M78.4489 29.4649H77.9451V26.9967H76.9097V28.3184C76.9097 28.567 76.9097 28.8925 76.6845 29.1665C76.595 29.2802 76.3754 29.4791 75.9837 29.4791C75.9375 29.4791 75.8803 29.4718 75.832 29.4649V29.0003C75.8643 29.0062 75.9087 29.0132 75.9424 29.0132C76.1322 29.0132 76.2522 28.9158 76.3074 28.8216C76.4 28.6811 76.4039 28.4971 76.4039 28.3184V26.5293H78.4489V29.4649Z" fill="#E51A4B"/>
<path fill-rule="evenodd" clip-rule="evenodd" d="M79.9055 26.5293V27.7335L81.0834 26.5293H81.7L80.4405 27.8378L81.8558 29.4649H81.1962L80.063 28.1793L79.9055 28.3253V29.4649H79.4048V26.5293H79.9055Z" fill="#E51A4B"/>
<path fill-rule="evenodd" clip-rule="evenodd" d="M82.8636 26.5294V28.468L84.8532 26.3037V29.4649H84.3494V27.5058L82.3599 29.6704V26.5294H82.8636Z" fill="#E51A4B"/>
</g>
<defs>
<clipPath id="clip0_99_1764">
<rect width="130" height="30" fill="white"/>
</clipPath>
</defs>
</svg>
