<svg width="102" height="30" viewBox="0 0 102 30" fill="none" xmlns="http://www.w3.org/2000/svg">
<g clip-path="url(#clip0_99_1799)">
<path fill-rule="evenodd" clip-rule="evenodd" d="M15.6532 22.5302H11.2111C4.28231 22.5302 9.31614 7.19125 15.1495 7.19125H22.1677C23.2927 7.19125 25.2766 7.40695 26.254 4.50612L27.7642 0H18.1404C12.9287 0 8.87189 1.91332 5.94044 5.12348C0.87669 10.6171 -0.840447 19.1971 0.373437 23.3016C1.52831 27.098 4.66713 29.5976 9.58252 29.6593L13.4025 29.6904H18.1109L19.2658 26.0794C20.1243 23.5177 18.1994 22.5302 15.6532 22.5302ZM69.7233 16.1724L71.1745 11.2651H55.6878C53.1117 11.2651 51.9568 12.0058 51.5125 13.549L50.0613 18.4564H65.5485C68.1246 18.4564 69.2795 17.7156 69.7233 16.1724ZM47.752 24.8141L46.3008 29.721H61.7876C64.3342 29.721 65.5186 28.9807 65.9628 27.4375L67.414 22.5302H51.9268C49.3806 22.5302 48.2258 23.2709 47.752 24.8141ZM73.3363 4.93797L74.7871 0.0310643H59.3004C56.7242 0.0310643 55.5693 0.771363 55.1251 2.31453L53.6739 7.22188H69.1611C71.7077 7.22188 72.8621 6.48114 73.3363 4.93797ZM49.9429 5.92591C49.2917 1.3581 46.9525 0.0310643 41.267 0.0310643H30.903L24.8623 18.4564H28.6822C30.9621 18.4564 32.1169 18.487 33.3312 15.0922L35.8479 7.19125H39.6974C42.9846 7.19125 42.244 11.4812 40.5859 15.6474C39.1052 19.3205 36.5291 22.5608 33.4197 22.5608H26.9942C24.418 22.5608 23.2337 23.3016 22.7599 24.8447L21.1608 29.7521H25.8688L30.4883 29.721C34.5746 29.6904 37.9208 29.3819 41.8297 25.7089C45.975 21.7895 50.7724 11.728 49.9429 5.92591ZM102 0H93.0278L84.5883 9.35134C83.6113 10.4316 82.6044 11.5119 81.6274 12.7772H81.5385L85.7432 0H78.4291L68.5689 29.721H75.8825L79.0213 20.3697L82.2786 17.4995L84.8551 25.9561C85.6543 28.5795 86.4838 29.721 88.2604 29.721H93.8569L88.1124 13.1167L102 0Z" fill="#00B33C"/>
</g>
<defs>
<clipPath id="clip0_99_1799">
<rect width="102" height="30" fill="white"/>
</clipPath>
</defs>
</svg>
