<?xml version="1.0" encoding="utf-8"?><svg xmlns="http://www.w3.org/2000/svg" xmlns:xlink="http://www.w3.org/1999/xlink"><symbol viewBox="0 0 20 20" id="account" xmlns="http://www.w3.org/2000/svg"><path d="M13.342 10.692a5.426 5.426 0 10-6.711 0 9.044 9.044 0 00-5.626 7.398.91.91 0 101.81.199 7.235 7.235 0 0114.38 0 .904.904 0 00.904.805h.1a.905.905 0 00.796-.995 9.044 9.044 0 00-5.653-7.407zm-3.356-.643a3.618 3.618 0 110-7.235 3.618 3.618 0 010 7.235z"/></symbol><symbol viewBox="0 0 21 16" id="arrow-left" xmlns="http://www.w3.org/2000/svg"><path d="M.293 8.707a1 1 0 010-1.414L6.657.929A1 1 0 018.07 2.343L2.414 8l5.657 5.657a1 1 0 11-1.414 1.414L.293 8.707zM21 9H1V7h20v2z"/></symbol><symbol viewBox="0 0 21 16" id="arrow-right" xmlns="http://www.w3.org/2000/svg"><path d="M20.707 8.707a1 1 0 000-1.414L14.343.929a1 1 0 10-1.414 1.414L18.586 8l-5.657 5.657a1 1 0 001.414 1.414l6.364-6.364zM0 9h20V7H0v2z"/></symbol><symbol viewBox="0 0 20 20" id="basket" xmlns="http://www.w3.org/2000/svg"><g clip-path="url(#ada)"><path d="M19.404 3.397a2.55 2.55 0 00-.881-.662 2.611 2.611 0 00-1.087-.235H3.624l-.036-.292A2.48 2.48 0 002.746.631 2.6 2.6 0 001.044 0h-.19A.865.865 0 00.25.244a.823.823 0 00-.25.59c0 .22.09.432.25.589.16.156.378.244.604.244h.19a.87.87 0 01.568.21.827.827 0 01.28.525l1.176 9.75A4.135 4.135 0 004.47 14.78a4.333 4.333 0 002.84 1.053h8.92a.866.866 0 00.605-.244.823.823 0 00.25-.589.823.823 0 00-.25-.59.866.866 0 00-.604-.243H7.31a2.607 2.607 0 01-1.475-.461A2.507 2.507 0 014.9 12.5h10.183a4.337 4.337 0 002.74-.97 4.147 4.147 0 001.464-2.457l.67-3.629c.068-.36.053-.73-.043-1.083a2.474 2.474 0 00-.511-.963zm-1.122 1.751l-.672 3.629a2.488 2.488 0 01-.88 1.476 2.602 2.602 0 01-1.646.58H4.63l-.803-6.666h13.61a.872.872 0 01.66.297.828.828 0 01.186.684zM5.98 20c.943 0 1.708-.746 1.708-1.666 0-.921-.765-1.667-1.708-1.667-.944 0-1.709.746-1.709 1.666 0 .921.765 1.667 1.709 1.667zm8.543 0c.944 0 1.709-.746 1.709-1.666 0-.921-.765-1.667-1.709-1.667-.944 0-1.708.746-1.708 1.666 0 .921.764 1.667 1.708 1.667z"/></g><defs><clipPath id="ada"><path d="M0 0h20v20H0z"/></clipPath></defs></symbol><symbol viewBox="0 0 20 20" id="call" xmlns="http://www.w3.org/2000/svg"><path d="M16.175 10.833c-.183 0-.375-.058-.558-.1a8.2 8.2 0 01-1.092-.325 1.667 1.667 0 00-2.067.834l-.183.383a10.976 10.976 0 01-2.225-1.667 10.975 10.975 0 01-1.667-2.225l.384-.175A1.667 1.667 0 009.6 5.492a8.726 8.726 0 01-.325-1.1 6.539 6.539 0 01-.1-.559 2.5 2.5 0 00-2.5-2.075H4.167a2.5 2.5 0 00-1.867.834 2.5 2.5 0 00-.608 2A15.892 15.892 0 006.2 13.758a15.89 15.89 0 009.167 4.509c.108.008.216.008.325 0a2.5 2.5 0 002.282-1.478c.144-.322.218-.67.218-1.022v-2.5a2.5 2.5 0 00-2.017-2.434zm.408 5a.833.833 0 01-.593.798.834.834 0 01-.365.027A14.3 14.3 0 017.4 12.625a14.3 14.3 0 01-4.067-8.25.833.833 0 01.492-.888.833.833 0 01.342-.07h2.5a.833.833 0 01.833.65c0 .225.075.458.125.683.096.437.224.866.383 1.283l-1.166.55a.833.833 0 00-.434.467.833.833 0 000 .633 12.075 12.075 0 005.834 5.834c.202.083.43.083.633 0a.833.833 0 00.467-.434l.525-1.166a10.333 10.333 0 001.991.508.833.833 0 01.65.833l.075 2.575zM11.667 1.667h-.584a.836.836 0 10.142 1.666h.442a5 5 0 015 5v.442a.833.833 0 00.758.9h.067a.833.833 0 00.833-.758v-.584a6.666 6.666 0 00-6.658-6.666zm1.666 6.666a.833.833 0 101.667 0A3.333 3.333 0 0011.667 5a.833.833 0 000 1.667 1.667 1.667 0 011.666 1.666z"/></symbol><symbol viewBox="0 0 344.96 344.96" id="check" xmlns="http://www.w3.org/2000/svg"><g data-name="Слой 2"><path class="afcls-1" d="M321.85 86.24l-40-23.11-23.1-40H212.5L172.48 0l-40 23.11H86.24l-23.11 40-40 23.1v46.21L0 172.48l23.11 40v46.21l40 23.11 23.11 40h46.21l40 23.1 40-23.11h46.21l23.11-40 40-23.11V212.5l23.11-40-23.11-40V86.24zM156.91 243.07a16.79 16.79 0 01-23.34 0l-50.45-50.44a16.19 16.19 0 010-22.89l13.35-13.35a16.19 16.19 0 0122.89 0l25.87 25.87 80.34-80.35a16.19 16.19 0 0122.89 0l13.35 13.35a16.19 16.19 0 010 22.89z" data-name="Capa 1"/></g></symbol><symbol viewBox="0 0 20 20" id="chevron-left" xmlns="http://www.w3.org/2000/svg"><path d="M12.07 5.862L7.932 10l4.138 4.138"/></symbol><symbol viewBox="0 0 20 20" id="chevron-right" xmlns="http://www.w3.org/2000/svg"><path d="M7.931 14.138L12.07 10 7.931 5.862"/></symbol><symbol viewBox="0 0 20 20" id="close" xmlns="http://www.w3.org/2000/svg"><path d="M11.326 10l8.087-8.087A.937.937 0 1018.087.587L10 8.674 1.913.587A.937.937 0 10.587 1.913L8.674 10 .587 18.087a.937.937 0 101.326 1.326L10 11.326l8.087 8.087a.934.934 0 001.326 0 .937.937 0 000-1.326L11.326 10z"/></symbol><symbol viewBox="0 0 20 20" id="delete" xmlns="http://www.w3.org/2000/svg"><path d="M16.25 4.375h-3.125V2.5a.625.625 0 00-.625-.625h-5a.625.625 0 00-.625.625v1.875H3.75a.625.625 0 000 1.25h12.5a.625.625 0 100-1.25zm-8.125-1.25h3.75v1.25h-3.75v-1.25zM15 6.875a.625.625 0 00-.625.625v8.75a.625.625 0 01-.625.625h-7.5a.625.625 0 01-.625-.625V7.5a.625.625 0 00-1.25 0v8.75a1.877 1.877 0 001.875 1.875h7.5a1.877 1.877 0 001.875-1.875V7.5A.625.625 0 0015 6.875z"/><path d="M9.387 13.75v-5a.625.625 0 00-1.25 0v5a.625.625 0 101.25 0zm2.476 0v-5a.625.625 0 00-1.25 0v5a.624.624 0 101.25 0z"/></symbol><symbol viewBox="0 0 20 20" id="eye" xmlns="http://www.w3.org/2000/svg"><path d="M10 15.92c-4.706 0-8.381-5.338-8.537-5.57L1.25 10l.238-.35c.13-.23 3.806-5.568 8.512-5.568s8.381 5.338 8.538 5.569l.212.35-.238.35c-.13.231-3.806 5.568-8.512 5.568zM2.756 10c.869 1.138 3.838 4.67 7.244 4.67 3.406 0 6.375-3.525 7.244-4.67-.869-1.137-3.838-4.668-7.244-4.668-3.406 0-6.375 3.525-7.244 4.669z"/><path d="M10 6.875c-.1-.005-.2-.005-.3 0a.212.212 0 00-.194.207c0 .056.023.11.063.15a1.618 1.618 0 01-.02 2.287A1.644 1.644 0 018.388 10a1.612 1.612 0 01-1.112-.45.219.219 0 00-.375.113 2.58 2.58 0 00-.025.337A3.125 3.125 0 1010 6.875z"/></symbol><symbol viewBox="0 0 20 20" id="favorite" xmlns="http://www.w3.org/2000/svg"><g clip-path="url(#ala)"><path d="M14.5 1c-1.74 0-3.41.81-4.5 2.09C8.91 1.81 7.24 1 5.5 1 2.42 1 0 3.42 0 6.5c0 3.78 3.4 6.86 8.55 11.54L10 19.35l1.45-1.32C16.6 13.36 20 10.28 20 6.5 20 3.42 17.58 1 14.5 1zm-4.4 15.55l-.1.1-.1-.1C5.14 12.24 2 9.39 2 6.5 2 4.5 3.5 3 5.5 3c1.54 0 3.04.99 3.57 2.36h1.87C11.46 3.99 12.96 3 14.5 3c2 0 3.5 1.5 3.5 3.5 0 2.89-3.14 5.74-7.9 10.05z"/></g><defs><clipPath id="ala"><path d="M0 0h20v20H0z"/></clipPath></defs></symbol><symbol viewBox="0 0 24 24" id="favorites" xmlns="http://www.w3.org/2000/svg"><path d="M12 20S3 14.988 3 8.972c0-6.015 7-6.516 9-1.81 2-4.706 9-4.205 9 1.81C21 14.988 12 20 12 20z"/></symbol><symbol viewBox="0 0 20 20" id="favorites2" xmlns="http://www.w3.org/2000/svg"><g clip-path="url(#ana)"><path d="M14.5 1c-1.74 0-3.41.81-4.5 2.09C8.91 1.81 7.24 1 5.5 1 2.42 1 0 3.42 0 6.5c0 3.78 3.4 6.86 8.55 11.54L10 19.35l1.45-1.32C16.6 13.36 20 10.28 20 6.5 20 3.42 17.58 1 14.5 1zm-4.4 15.55l-.1.1-.1-.1C5.14 12.24 2 9.39 2 6.5 2 4.5 3.5 3 5.5 3c1.54 0 3.04.99 3.57 2.36h1.87C11.46 3.99 12.96 3 14.5 3c2 0 3.5 1.5 3.5 3.5 0 2.89-3.14 5.74-7.9 10.05z"/></g><defs><clipPath id="ana"><path d="M0 0h20v20H0z"/></clipPath></defs></symbol><symbol viewBox="0 0 24 24" id="fb" xmlns="http://www.w3.org/2000/svg"><path d="M13.397 20.997v-8.196h2.765l.411-3.209h-3.176V7.548c0-.926.258-1.56 1.587-1.56h1.684v-2.86A22.108 22.108 0 0014.201 3c-2.444 0-4.122 1.492-4.122 4.231v2.355H7.332v3.21h2.753v8.201h3.312z"/></symbol><symbol viewBox="0 0 20 20" id="home" xmlns="http://www.w3.org/2000/svg"><path d="M17.282 6.415l-5.394-4.728a2.697 2.697 0 00-3.595 0L2.899 6.415A2.697 2.697 0 002 8.447v7.856A2.697 2.697 0 004.697 19h10.787a2.697 2.697 0 002.697-2.697V8.438a2.696 2.696 0 00-.9-2.023zm-5.394 10.787H8.293v-4.495a.899.899 0 01.898-.898h1.798a.9.9 0 01.9.899v4.494zm4.495-.899a.9.9 0 01-.9.9h-1.797v-4.495a2.697 2.697 0 00-2.697-2.697H9.191a2.697 2.697 0 00-2.696 2.697v4.494H4.697a.9.9 0 01-.9-.899V8.438a.9.9 0 01.307-.675l5.393-4.719a.899.899 0 011.187 0l5.393 4.72a.899.899 0 01.306.674v7.865z"/></symbol><symbol viewBox="0 0 24 24" id="instagram" xmlns="http://www.w3.org/2000/svg"><path d="M11.999 7.377a4.624 4.624 0 100 9.248 4.624 4.624 0 000-9.248zm0 7.627a3.004 3.004 0 110-6.008 3.004 3.004 0 010 6.008zm4.807-6.719a1.078 1.078 0 100-2.156 1.078 1.078 0 000 2.156z"/><path d="M20.533 6.11A4.605 4.605 0 0017.9 3.48a6.607 6.607 0 00-2.186-.42c-.963-.042-1.268-.054-3.71-.054s-2.755 0-3.71.054a6.554 6.554 0 00-2.184.42 4.6 4.6 0 00-2.633 2.63 6.585 6.585 0 00-.419 2.186c-.043.962-.056 1.267-.056 3.71 0 2.442 0 2.753.056 3.71.015.748.156 1.486.419 2.187a4.61 4.61 0 002.634 2.632 6.583 6.583 0 002.185.45c.963.042 1.268.055 3.71.055s2.755 0 3.71-.055a6.616 6.616 0 002.186-.42 4.613 4.613 0 002.633-2.632c.263-.7.404-1.438.419-2.186.043-.962.056-1.267.056-3.71s0-2.753-.056-3.71a6.583 6.583 0 00-.421-2.217zm-1.218 9.533a5.046 5.046 0 01-.311 1.688 2.987 2.987 0 01-1.712 1.71c-.535.2-1.1.305-1.67.312-.95.044-1.218.055-3.654.055-2.438 0-2.687 0-3.655-.055a4.961 4.961 0 01-1.67-.311 2.984 2.984 0 01-1.718-1.711 5.08 5.08 0 01-.311-1.67c-.043-.95-.053-1.217-.053-3.653 0-2.437 0-2.686.053-3.655a5.038 5.038 0 01.311-1.687c.305-.79.93-1.41 1.719-1.712a5.01 5.01 0 011.669-.311c.95-.043 1.218-.055 3.655-.055s2.687 0 3.654.055a4.96 4.96 0 011.67.31 2.99 2.99 0 011.712 1.713 5.06 5.06 0 01.311 1.669c.043.95.054 1.218.054 3.655 0 2.436 0 2.698-.043 3.654h-.011v-.001z"/></symbol><symbol viewBox="0 0 20 20" id="list" xmlns="http://www.w3.org/2000/svg"><path d="M1.111 5.222a1.111 1.111 0 100-2.222 1.111 1.111 0 000 2.222zm0 5.555a1.111 1.111 0 100-2.222 1.111 1.111 0 000 2.222zm0 5.557a1.111 1.111 0 100-2.223 1.111 1.111 0 000 2.223zm17.844-7.779H5.49c-.577 0-1.045.467-1.045 1.044v.133c0 .577.468 1.045 1.045 1.045h13.466c.577 0 1.045-.468 1.045-1.045V9.6c0-.577-.468-1.044-1.045-1.044zm0 5.556H5.49c-.577 0-1.045.468-1.045 1.045v.133c0 .577.468 1.045 1.045 1.045h13.466c.577 0 1.045-.468 1.045-1.045v-.133c0-.577-.468-1.045-1.045-1.045zm0-11.111H5.49c-.577 0-1.045.468-1.045 1.044v.134c0 .577.468 1.044 1.045 1.044h13.466c.577 0 1.045-.467 1.045-1.044v-.134A1.046 1.046 0 0018.955 3z"/></symbol><symbol viewBox="0 0 20 20" id="login" xmlns="http://www.w3.org/2000/svg"><path d="M13.342 10.692a5.426 5.426 0 10-6.711 0 9.044 9.044 0 00-5.626 7.398.91.91 0 101.81.199 7.235 7.235 0 0114.38 0 .904.904 0 00.904.805h.1a.905.905 0 00.796-.995 9.044 9.044 0 00-5.653-7.407zm-3.356-.643a3.618 3.618 0 110-7.235 3.618 3.618 0 010 7.235z"/></symbol><symbol viewBox="0 0 20 20" id="logout" xmlns="http://www.w3.org/2000/svg"><path d="M4.823 3.882a.941.941 0 000-1.882H2.941A.941.941 0 002 2.941v13.174a.94.94 0 00.941.941h1.882a.941.941 0 000-1.882h-.941V3.882h.941zm13.005 5.1l-2.654-3.764A.941.941 0 1013.64 6.31l1.619 2.277H7.646a.941.941 0 100 1.882h7.528l-1.694 2.259a.94.94 0 101.506 1.129l2.823-3.764a.941.941 0 00.019-1.11z"/></symbol><symbol viewBox="0 0 20 20" id="mail" xmlns="http://www.w3.org/2000/svg"><path d="M16.667 2.5H3.333A2.5 2.5 0 00.833 5v10a2.5 2.5 0 002.5 2.5h13.334a2.5 2.5 0 002.5-2.5V5a2.5 2.5 0 00-2.5-2.5zm0 1.667a.83.83 0 01.274.046L10 9.766 3.059 4.213a.826.826 0 01.274-.046h13.334zm0 11.666H3.333A.834.834 0 012.5 15V5.9l6.98 5.584a.831.831 0 001.04 0L17.5 5.9V15a.833.833 0 01-.833.833z"/></symbol><symbol viewBox="0 0 16 16" id="menu" xmlns="http://www.w3.org/2000/svg"><path fill-rule="evenodd" clip-rule="evenodd" d="M14.4 13.607c0 .441-.395.793-.836.793h-2.4a.716.716 0 01-.542-.226.788.788 0 01-.222-.567v-2.4a.832.832 0 01.22-.572.754.754 0 01.544-.235h2.4c.442 0 .836.366.836.807v2.4zM13.564 8.8h-2.4C9.838 8.8 8.8 9.882 8.8 11.207v2.4C8.8 14.933 9.838 16 11.164 16h2.4C14.89 16 16 14.933 16 13.607v-2.4C16 9.882 14.89 8.8 13.564 8.8zM5.6 13.607c0 .441-.395.793-.836.793h-2.4a.715.715 0 01-.542-.226.788.788 0 01-.222-.567v-2.4a.83.83 0 01.22-.572.754.754 0 01.544-.235h2.4c.442 0 .836.366.836.807v2.4zM4.764 8.8h-2.4C1.038 8.8 0 9.882 0 11.207v2.4C0 14.933 1.038 16 2.364 16h2.4C6.09 16 7.2 14.933 7.2 13.607v-2.4C7.2 9.882 6.09 8.8 4.764 8.8zM14.4 4.807c0 .441-.395.793-.836.793h-2.4a.715.715 0 01-.542-.226.818.818 0 01-.222-.567v-2.4a.831.831 0 01.22-.572.726.726 0 01.544-.235h2.4c.442 0 .836.366.836.807v2.4zM13.564 0h-2.4C9.838 0 8.8 1.082 8.8 2.407v2.4C8.8 6.133 9.838 7.2 11.164 7.2h2.4C14.89 7.2 16 6.133 16 4.807v-2.4C16 1.082 14.89 0 13.564 0zM5.6 4.807c0 .441-.395.793-.836.793h-2.4a.715.715 0 01-.542-.226.818.818 0 01-.222-.567v-2.4a.83.83 0 01.22-.572.726.726 0 01.544-.235h2.4c.442 0 .836.366.836.807v2.4zM4.764 0h-2.4C1.038 0 0 1.082 0 2.407v2.4C0 6.133 1.038 7.2 2.364 7.2h2.4C6.09 7.2 7.2 6.133 7.2 4.807v-2.4C7.2 1.082 6.09 0 4.764 0z"/></symbol><symbol viewBox="0 0 20 20" id="pin" xmlns="http://www.w3.org/2000/svg"><path d="M10 20c-2.333 0-7.5-7.25-7.5-12.5C2.5 3.333 5.833 0 10 0s7.5 3.333 7.5 7.5c0 3.333-2 6.833-2.833 8.167-.5.75-2.834 4.333-4.667 4.333zm0-18.333A5.797 5.797 0 004.167 7.5c0 4.667 4.666 10.583 5.833 10.833 1.167-.25 5.833-6.166 5.833-10.833A5.797 5.797 0 0010 1.667z"/><path d="M10 11.667A4.126 4.126 0 015.833 7.5 4.126 4.126 0 0110 3.333 4.126 4.126 0 0114.167 7.5 4.126 4.126 0 0110 11.667zM10 5C8.583 5 7.5 6.083 7.5 7.5S8.583 10 10 10s2.5-1.083 2.5-2.5S11.417 5 10 5z"/></symbol><symbol viewBox="0 0 14 14" id="play" xmlns="http://www.w3.org/2000/svg"><path d="M4.222 9.922V4.078a.555.555 0 01.836-.48l5.008 2.923a.555.555 0 010 .959l-5.008 2.922a.556.556 0 01-.836-.48z"/></symbol><symbol viewBox="0 0 20 20" id="repeat" xmlns="http://www.w3.org/2000/svg"><path d="M7.188 7.084h-3.75a.833.833 0 01-.834-.834V2.5a.833.833 0 111.667 0v2.917h2.917a.833.833 0 110 1.667z"/><path d="M17.5 10.834a.833.833 0 01-.833-.834A6.663 6.663 0 004.233 6.668a.833.833 0 11-1.442-.835A8.33 8.33 0 0118.333 10a.834.834 0 01-.833.834zm-.938 7.5a.833.833 0 01-.833-.834v-2.916h-2.916a.833.833 0 010-1.667h3.75a.833.833 0 01.833.833v3.75a.834.834 0 01-.834.834z"/><path d="M10 18.334A8.344 8.344 0 011.667 10a.833.833 0 011.666 0 6.662 6.662 0 0012.434 3.333.834.834 0 011.442.835A8.36 8.36 0 0110 18.334z"/></symbol><symbol viewBox="0 0 20 20" id="search" xmlns="http://www.w3.org/2000/svg"><path d="M17.258 16.075l-2.833-2.825a6.6 6.6 0 001.408-4.083 6.667 6.667 0 10-6.666 6.666 6.6 6.6 0 004.083-1.408l2.825 2.833a.833.833 0 001.183 0 .833.833 0 000-1.183zM4.167 9.167a5 5 0 1110 0 5 5 0 01-10 0z"/></symbol><symbol viewBox="0 0 20 20" id="tel" xmlns="http://www.w3.org/2000/svg"><path d="M16.769 10.929c-.199 0-.406-.064-.605-.109a8.516 8.516 0 01-1.184-.353 1.801 1.801 0 00-2.24.905l-.198.408a11 11 0 01-2.403-1.812 11.03 11.03 0 01-1.806-2.41l.379-.253a1.81 1.81 0 00.903-2.246 9.379 9.379 0 01-.352-1.187 6.737 6.737 0 01-.108-.616 2.72 2.72 0 00-.94-1.63A2.705 2.705 0 006.445 1h-2.71a2.703 2.703 0 00-2.06.923 2.72 2.72 0 00-.65 2.166 17.231 17.231 0 004.912 10.022A17.142 17.142 0 0015.947 19h.343A2.705 2.705 0 0019 16.273v-2.717a2.723 2.723 0 00-.646-1.714 2.708 2.708 0 00-1.585-.913zm.452 5.435a.91.91 0 01-.654.871.956.956 0 01-.394.035 15.338 15.338 0 01-8.93-4.412 15.417 15.417 0 01-4.357-8.977.99.99 0 01.226-.743.904.904 0 01.677-.308H6.5a.902.902 0 01.903.716c.036.247.082.492.136.734.104.477.243.946.415 1.404l-1.264.588a.903.903 0 00-.526.86.91.91 0 00.083.345 13.107 13.107 0 006.323 6.341.9.9 0 00.686 0 .903.903 0 00.515-.47l.56-1.269c.467.168.944.307 1.427.417.241.054.485.1.732.136a.903.903 0 01.713.906l.019 2.826z"/></symbol><symbol viewBox="0 0 16 16" id="telegram" xmlns="http://www.w3.org/2000/svg"><path d="M14.629 3.698l-2.012 9.618c-.152.679-.548.848-1.11.528l-3.066-2.29-1.48 1.442c-.163.166-.3.305-.616.305l.22-3.165 5.683-5.204c.247-.223-.054-.347-.384-.123L4.839 9.29l-3.024-.959c-.658-.208-.67-.667.137-.986L13.78 2.727c.548-.208 1.027.124.849.971z"/></symbol><symbol viewBox="0 0 16 16" id="viber" xmlns="http://www.w3.org/2000/svg"><path d="M8 1.335c-1.071.013-3.374.19-4.662 1.37-.958.948-1.292 2.35-1.331 4.084-.033 1.728-.072 4.973 3.058 5.856v1.346s-.02.538.337.648c.438.14.688-.275 1.105-.72l.778-.879c2.142.178 3.782-.232 3.97-.293.435-.139 2.883-.451 3.283-3.696.41-3.351-.2-5.463-1.301-6.418h-.007c-.332-.306-1.668-1.279-4.652-1.29 0 0-.222-.014-.578-.008zm.037.942a7.02 7.02 0 01.488.011c2.527.007 3.732.767 4.017 1.023.927.794 1.405 2.697 1.055 5.495-.332 2.713-2.317 2.885-2.685 3.002-.156.05-1.6.406-3.42.289 0 0-1.356 1.634-1.78 2.055-.067.074-.146.095-.196.085-.071-.018-.093-.107-.089-.229l.013-2.233c-2.655-.733-2.498-3.5-2.47-4.946.033-1.446.304-2.628 1.113-3.43 1.088-.982 3.043-1.115 3.953-1.122zm.2 1.446a.166.166 0 100 .332 3.136 3.136 0 012.242.883c.606.588.9 1.378.912 2.411 0 .092.074.167.167.167V7.51a.167.167 0 00.168-.165 3.588 3.588 0 00-1.009-2.646c-.66-.645-1.496-.977-2.48-.977zm-2.198.382a.523.523 0 00-.342.067H5.69a2.61 2.61 0 00-.637.523 1.003 1.003 0 00-.256.525.71.71 0 00.026.302l.01.006c.172.504.396.988.67 1.444a8.48 8.48 0 001.29 1.762l.015.022.024.017.015.018.017.015c.532.505 1.127.94 1.769 1.295.734.4 1.18.588 1.447.667v.004c.078.024.15.034.221.034.228-.016.444-.109.613-.262a2.53 2.53 0 00.517-.638v-.004c.128-.241.085-.469-.1-.623-.37-.323-.77-.61-1.195-.857-.285-.155-.574-.061-.69.095l-.25.315c-.129.156-.361.134-.361.134l-.007.004C7.093 8.527 6.63 6.772 6.63 6.772s-.022-.239.139-.36l.312-.252c.15-.122.254-.41.094-.695a7.498 7.498 0 00-.856-1.194.475.475 0 00-.28-.167zm2.486.495c-.221 0-.221.334.003.334A2.098 2.098 0 0110 5.572 1.94 1.94 0 0110.5 7a.168.168 0 00.167.165l.007.009a.169.169 0 00.167-.167c.015-.662-.191-1.218-.595-1.663C9.84 4.9 9.273 4.65 8.549 4.6h-.024zm.274.898c-.228-.006-.236.335-.01.341.55.029.816.306.851.877a.166.166 0 00.165.163h.007a.168.168 0 00.16-.178c-.039-.744-.445-1.164-1.166-1.202H8.8z"/></symbol><symbol viewBox="0 0 24 24" id="vk" xmlns="http://www.w3.org/2000/svg"><path d="M21.579 6.855c.14-.465 0-.806-.662-.806h-2.193c-.558 0-.813.295-.953.619 0 0-1.115 2.719-2.695 4.482-.51.513-.743.675-1.021.675-.139 0-.341-.162-.341-.627V6.855c0-.558-.161-.806-.626-.806H9.642c-.348 0-.558.258-.558.504 0 .528.79.65.871 2.138v3.228c0 .707-.127.836-.407.836-.743 0-2.551-2.73-3.624-5.853-.209-.607-.42-.852-.98-.852H2.752c-.627 0-.752.295-.752.619 0 .582.743 3.462 3.461 7.27 1.812 2.602 4.363 4.012 6.687 4.012 1.393 0 1.565-.313 1.565-.853v-1.966c0-.626.133-.752.574-.752.324 0 .882.164 2.183 1.417 1.486 1.486 1.732 2.153 2.567 2.153h2.192c.626 0 .939-.313.759-.931-.197-.615-.907-1.51-1.849-2.57-.512-.603-1.277-1.253-1.51-1.578-.325-.42-.231-.604 0-.976.001 0 2.672-3.761 2.95-5.04z"/></symbol><symbol viewBox="0 0 16 16" id="whatsapp" xmlns="http://www.w3.org/2000/svg"><path fill-rule="evenodd" clip-rule="evenodd" d="M12.269 3.755A5.947 5.947 0 008.035 2 5.994 5.994 0 002.05 7.985a5.98 5.98 0 00.799 2.992L2 14.077l3.173-.832c.877.477 1.86.728 2.86.728h.002a5.993 5.993 0 005.533-8.276 5.953 5.953 0 00-1.3-1.942zm-4.234 9.208h-.002c-.89 0-1.765-.24-2.532-.694l-.181-.108-1.883.494.502-1.835-.118-.188a4.965 4.965 0 01-.76-2.647 4.982 4.982 0 016.88-4.597c.604.25 1.152.618 1.613 1.081a4.946 4.946 0 011.455 3.52 4.982 4.982 0 01-4.974 4.974zm2.729-3.726c-.15-.075-.885-.436-1.022-.486-.137-.05-.236-.075-.336.074-.1.15-.387.486-.474.586-.087.1-.175.112-.324.038-.15-.075-.631-.233-1.203-.742a4.505 4.505 0 01-.832-1.036c-.087-.15-.009-.231.066-.306.068-.066.15-.174.224-.262.075-.087.1-.149.15-.249.05-.1.025-.187-.013-.262-.037-.075-.337-.811-.461-1.11-.121-.29-.244-.252-.336-.256a6.418 6.418 0 00-.286-.005.55.55 0 00-.4.186c-.137.15-.523.512-.523 1.248s.536 1.447.61 1.547c.075.1 1.055 1.61 2.555 2.258.358.154.636.246.853.315.358.114.684.098.942.06.287-.043.885-.362 1.01-.711.124-.35.124-.649.087-.711-.038-.063-.138-.101-.287-.176z"/></symbol></svg>