<svg width="20" height="20" viewBox="0 0 20 20" fill="none" xmlns="http://www.w3.org/2000/svg">
<g clip-path="url(#clip0_131_645)">
<path fill-rule="evenodd" clip-rule="evenodd" d="M10.0422 0C15.5661 0 20.0422 4.47612 20.0422 10C20.0422 15.5239 15.5661 20 10.0422 20C4.51832 20 0.0422363 15.5239 0.0422363 10C0.0422363 4.47612 4.51832 0 10.0422 0Z" fill="#2FA6D9"/>
<path fill-rule="evenodd" clip-rule="evenodd" d="M4.33058 10.1181L7.24157 11.0484L12.9963 7.34357C13.8651 6.78539 14.1729 6.82786 13.2752 7.64713L8.77725 11.7796L10.4122 13.033L13.0956 15.0894C13.506 15.3571 13.9356 15.1775 14.067 14.7042C14.6153 12.0146 15.1507 9.32492 15.7085 6.63854C16.0964 4.77795 15.5899 5.07174 14.0638 5.66908L9.86726 7.31422L4.50048 9.41958C4.11896 9.54363 4.06768 10.0463 4.33058 10.1181Z" fill="#EFF7FC"/>
<path fill-rule="evenodd" clip-rule="evenodd" d="M7.2417 11.049L8.24194 14.3328C8.29324 14.5254 8.38941 14.6102 8.47279 14.5939C8.54333 14.5809 8.60103 14.4927 8.60103 14.3361C8.66513 13.4874 8.71003 12.6289 8.77413 11.7802L13.2753 7.65109C14.1697 6.83178 13.862 6.7861 12.9964 7.34753L7.2417 11.049Z" fill="#C8DAEA"/>
<path fill-rule="evenodd" clip-rule="evenodd" d="M8.77624 11.7798C8.7121 12.6285 8.66723 13.4869 8.60309 14.3356C8.60309 14.4923 8.54539 14.5804 8.47485 14.5935C8.7666 14.5935 8.86277 14.5543 9.06155 14.3585L10.4113 13.03L8.77624 11.7798Z" fill="#A9C9DD"/>
</g>
<defs>
<clipPath id="clip0_131_645">
<rect width="20" height="20" fill="white"/>
</clipPath>
</defs>
</svg>
