<svg width="16" height="16" viewBox="0 0 16 16" fill="none" xmlns="http://www.w3.org/2000/svg">
<path fill-rule="evenodd" clip-rule="evenodd" d="M0.22468 7.52559L4.2169 8.80142L12.1091 3.72053C13.3006 2.95503 13.7227 3.01327 12.4916 4.13684L6.32297 9.80416L8.56525 11.5232L12.2453 14.3434C12.8081 14.7105 13.3973 14.4642 13.5775 13.8151C14.3294 10.1265 15.0637 6.43781 15.8287 2.75363C16.3607 0.201965 15.666 0.604873 13.5732 1.42409L7.81784 3.68027L0.457694 6.56762C-0.0655328 6.73775 -0.135859 7.42709 0.22468 7.52559Z" fill="#EFF7FC"/>
<path fill-rule="evenodd" clip-rule="evenodd" d="M4.21729 8.80245L5.58904 13.3059C5.6594 13.57 5.79129 13.6863 5.90564 13.664C6.00237 13.6461 6.08151 13.5252 6.08151 13.3104C6.16941 12.1464 6.231 10.9691 6.31891 9.80519L12.4919 4.14239C13.7186 3.01876 13.2965 2.95612 12.1094 3.72608L4.21729 8.80245Z" fill="#C8DAEA"/>
<path fill-rule="evenodd" clip-rule="evenodd" d="M6.32202 9.80435C6.23406 10.9683 6.17253 12.1456 6.08456 13.3095C6.08456 13.5244 6.00543 13.6453 5.90869 13.6632C6.3088 13.6632 6.44069 13.6094 6.7133 13.3408L8.56436 11.5189L6.32202 9.80435Z" fill="#A9C9DD"/>
</svg>
