<svg width="20" height="20" viewBox="0 0 20 20" fill="none" xmlns="http://www.w3.org/2000/svg">
<circle cx="10" cy="10" r="10" fill="#8852C1"/>
<path d="M14.0335 9.10113C14.0473 7.53453 12.7119 6.09906 11.0591 5.89892C11.0246 5.89547 10.9901 5.88857 10.9521 5.88167C10.8693 5.86787 10.7865 5.85406 10.7002 5.85406C10.3621 5.85406 10.2723 6.09216 10.2482 6.23364C10.224 6.37166 10.2482 6.48899 10.3137 6.5787C10.4276 6.73053 10.6243 6.75814 10.783 6.77884C10.8279 6.78574 10.8727 6.79264 10.9107 6.79954C12.3945 7.13081 12.8948 7.65186 13.1398 9.12529C13.1467 9.15979 13.1502 9.20465 13.1502 9.25296C13.1605 9.42894 13.1847 9.79471 13.5781 9.79471C13.6091 9.79471 13.6471 9.79126 13.6816 9.78781C14.0473 9.7326 14.037 9.39789 14.0301 9.23571C14.0301 9.19085 14.0266 9.14599 14.0301 9.11838C14.0335 9.11493 14.0335 9.10803 14.0335 9.10113Z" fill="white"/>
<path d="M10.6078 5.32624C10.6526 5.3297 10.6941 5.33315 10.7286 5.3366C13.1647 5.71272 14.2862 6.86869 14.6002 9.32556C14.6071 9.36697 14.6071 9.41873 14.6071 9.47394C14.6105 9.66717 14.6174 10.064 15.0453 10.0744H15.0591C15.1937 10.0744 15.3007 10.0329 15.3766 9.95358C15.5112 9.81555 15.5008 9.60506 15.4939 9.43943C15.4905 9.39802 15.4905 9.36007 15.4905 9.32556C15.5215 6.81003 13.3442 4.53259 10.8321 4.44633C10.8217 4.44633 10.8114 4.44633 10.801 4.44633C10.7976 4.44633 10.7872 4.44633 10.77 4.44633C10.7458 4.44633 10.7148 4.44288 10.6802 4.44288C10.6423 4.43942 10.5974 4.43597 10.5491 4.43597C10.1488 4.43597 10.0729 4.71893 10.0626 4.89146C10.0453 5.28484 10.4249 5.31244 10.6078 5.32624Z" fill="white"/>
<path d="M14.4789 12.5035C14.4271 12.4655 14.3719 12.4241 14.3236 12.3827C14.0579 12.1688 13.775 11.9721 13.4989 11.7789C13.4437 11.7409 13.385 11.6995 13.3298 11.6615C12.9779 11.4165 12.6638 11.2958 12.3636 11.2958C11.9634 11.2958 11.6114 11.5166 11.3215 11.9548C11.1939 12.1481 11.0386 12.2447 10.8454 12.2447C10.7315 12.2447 10.6038 12.2136 10.4623 12.1481C9.33052 11.6339 8.51961 10.8472 8.05722 9.80508C7.83293 9.30129 7.9054 8.97347 8.29877 8.70777C8.52306 8.55595 8.93714 8.27299 8.90954 7.73124C8.87503 7.11702 7.52237 5.27092 6.94956 5.06043C6.70802 4.97071 6.45267 4.97071 6.19387 5.05698C5.53825 5.27782 5.06551 5.6643 4.83086 6.17844C4.60312 6.67189 4.61347 7.25505 4.86192 7.85891C5.57275 9.6084 6.57689 11.1301 7.83638 12.3896C9.07172 13.6215 10.59 14.6291 12.3498 15.3882C12.5086 15.4573 12.6742 15.4952 12.795 15.5194C12.8364 15.5297 12.8709 15.5366 12.8985 15.5435C12.9123 15.547 12.9261 15.5504 12.9434 15.5504H12.9572C13.7853 15.5504 14.7791 14.7947 15.0828 13.9321C15.3623 13.1764 14.8723 12.8037 14.4789 12.5035Z" fill="white"/>
<path d="M10.9729 7.32421C10.8314 7.32766 10.5347 7.33456 10.4312 7.63477C10.3829 7.77625 10.3898 7.89702 10.4484 7.99709C10.5347 8.14547 10.7038 8.19033 10.859 8.21448C11.4146 8.3042 11.701 8.61131 11.7562 9.18066C11.7838 9.44636 11.9633 9.6327 12.191 9.6327C12.2083 9.6327 12.2255 9.6327 12.2428 9.62925C12.5188 9.59474 12.6534 9.3946 12.6396 9.02538C12.643 8.64236 12.4429 8.20758 12.1013 7.85906C11.7597 7.51055 11.349 7.31386 10.9729 7.32421Z" fill="white"/>
</svg>
