<svg width="16" height="16" viewBox="0 0 16 16" fill="none" xmlns="http://www.w3.org/2000/svg">
<path d="M13.4825 6.71576C13.5024 4.46053 11.58 2.39407 9.20057 2.10596C9.15089 2.10099 9.10122 2.09106 9.04658 2.08112C8.92736 2.06125 8.80814 2.04138 8.68395 2.04138C8.19714 2.04138 8.06799 2.38414 8.03322 2.5878C7.99845 2.7865 8.03322 2.95539 8.1276 3.08455C8.29153 3.30312 8.57467 3.34285 8.80317 3.37266C8.86775 3.38259 8.93233 3.39253 8.98697 3.40246C11.123 3.87934 11.8432 4.62943 12.1959 6.75053C12.2059 6.8002 12.2108 6.86478 12.2108 6.93432C12.2257 7.18766 12.2605 7.71421 12.8268 7.71421C12.8715 7.71421 12.9261 7.70925 12.9758 7.70428C13.5024 7.6248 13.4875 7.14296 13.4775 6.90949C13.4775 6.84491 13.4726 6.78033 13.4775 6.74059C13.4825 6.73563 13.4825 6.72569 13.4825 6.71576Z" fill="white"/>
<path d="M8.55179 1.28161C8.61637 1.28657 8.67598 1.29154 8.72565 1.29651C12.2327 1.83796 13.8471 3.50206 14.2991 7.03889C14.3091 7.0985 14.3091 7.17301 14.3091 7.25249C14.314 7.53067 14.324 8.10193 14.9399 8.11683H14.9598C15.1535 8.11683 15.3075 8.05722 15.4168 7.94297C15.6105 7.74427 15.5956 7.44126 15.5857 7.20282C15.5807 7.14321 15.5807 7.08857 15.5807 7.03889C15.6254 3.41761 12.491 0.139089 8.87467 0.0149024C8.85977 0.0149024 8.84487 0.0149024 8.82997 0.0149024C8.825 0.0149024 8.8101 0.0149024 8.78526 0.0149024C8.75049 0.0149024 8.70578 0.00993492 8.65611 0.00993492C8.60146 0.00496746 8.53689 0 8.46734 0C7.89112 0 7.78183 0.407332 7.76693 0.655705C7.74209 1.222 8.28851 1.26174 8.55179 1.28161Z" fill="white"/>
<path d="M14.1242 11.6136C14.0497 11.559 13.9702 11.4994 13.9007 11.4397C13.5182 11.1318 13.1108 10.8486 12.7134 10.5704C12.634 10.5158 12.5495 10.4562 12.47 10.4016C11.9634 10.0489 11.5113 9.875 11.0792 9.875C10.5029 9.875 9.99625 10.1929 9.57898 10.8238C9.39518 11.102 9.17165 11.2411 8.89347 11.2411C8.72955 11.2411 8.54575 11.1963 8.34208 11.102C6.71276 10.3618 5.54541 9.22923 4.87977 7.72906C4.55688 7.00381 4.6612 6.5319 5.22749 6.14941C5.55037 5.93084 6.14647 5.52351 6.10673 4.74362C6.05705 3.85941 4.10981 1.20183 3.28522 0.898811C2.93749 0.769657 2.5699 0.769657 2.19734 0.893843C1.25353 1.21176 0.572985 1.76812 0.235198 2.50827C-0.0926538 3.21861 -0.0777514 4.05811 0.279905 4.92742C1.3032 7.44592 2.74873 9.63656 4.56185 11.4497C6.3402 13.2231 8.52588 14.6736 11.0593 15.7664C11.2878 15.8658 11.5262 15.9204 11.7001 15.9552C11.7597 15.9701 11.8094 15.98 11.8491 15.9899C11.869 15.9949 11.8888 15.9999 11.9137 15.9999H11.9336C13.1257 15.9999 14.5564 14.912 14.9935 13.6701C15.3959 12.5823 14.6905 12.0458 14.1242 11.6136Z" fill="white"/>
<path d="M9.07693 4.15771C8.87327 4.16268 8.44606 4.17261 8.29704 4.60478C8.2275 4.80845 8.23743 4.98231 8.32188 5.12636C8.44606 5.33996 8.68947 5.40454 8.913 5.43931C9.71277 5.56847 10.1251 6.01057 10.2045 6.8302C10.2443 7.21269 10.5026 7.48094 10.8304 7.48094C10.8553 7.48094 10.8801 7.48094 10.905 7.47597C11.3024 7.4263 11.4961 7.13818 11.4762 6.60667C11.4812 6.05528 11.1931 5.42938 10.7013 4.92767C10.2095 4.42595 9.61838 4.14281 9.07693 4.15771Z" fill="white"/>
</svg>
