<svg width="20" height="20" viewBox="0 0 20 20" fill="none" xmlns="http://www.w3.org/2000/svg">
<path d="M9.96 0C4.46 0.02 0 4.5 0 10C0 11.75 0.46 13.48 1.33 14.99L1.54 15.36L0.47 19.03L3.98 18L4.37 18.27C6.03 19.4 7.98 20 10 20C15.51 20 20 15.51 20 10C20 4.5 15.54 0.02 10.04 0H9.96Z" fill="#00C958"/>
<path d="M7.42409 12.7871C7.42409 12.7871 9.96892 15.5253 12.6345 15.9985C14.6764 16.3609 15.5716 14.6193 15.8029 13.7535C15.8834 13.4515 15.8029 13.1394 15.5816 12.928C15.3704 12.7166 13.4894 11.8709 13.0368 11.8407C12.725 11.8206 12.4735 11.9515 12.2522 12.2434L11.7996 12.8173C11.6185 13.0488 11.3771 13.1092 11.1558 12.9884C10.7032 12.7367 9.91863 12.2132 8.96306 11.2569C8.00749 10.3005 7.47439 9.51525 7.22292 9.06223C7.09216 8.84075 7.16257 8.59914 7.39392 8.41793L7.96726 7.96491C8.25896 7.73337 8.38972 7.49176 8.3696 7.17968C8.33943 6.71659 7.4945 4.84412 7.28327 4.63271C7.07204 4.41123 6.76023 4.33069 6.45847 4.41123C5.60349 4.64277 3.85329 5.53874 4.2154 7.58236C4.68815 10.2401 7.42409 12.7871 7.42409 12.7871Z" fill="white"/>
</svg>
