<svg width="20" height="20" viewBox="0 0 20 20" fill="none" xmlns="http://www.w3.org/2000/svg">
<path d="M13.3418 10.6916C14.2285 9.99393 14.8758 9.03727 15.1934 7.95467C15.5111 6.87207 15.4835 5.71736 15.1143 4.65121C14.7452 3.58505 14.053 2.66046 13.1339 2.00606C12.2148 1.35166 11.1146 1 9.98634 1C8.85809 1 7.75789 1.35166 6.83881 2.00606C5.91973 2.66046 5.22747 3.58505 4.85834 4.65121C4.4892 5.71736 4.46156 6.87207 4.77924 7.95467C5.09692 9.03727 5.74414 9.99393 6.63085 10.6916C5.11146 11.3003 3.78573 12.3099 2.79501 13.6128C1.80429 14.9158 1.1857 16.4631 1.00521 18.0899C0.992146 18.2087 1.0026 18.3289 1.03599 18.4436C1.06937 18.5583 1.12502 18.6654 1.19977 18.7586C1.35073 18.9469 1.57029 19.0675 1.81017 19.0939C2.05004 19.1202 2.29057 19.0503 2.47884 18.8993C2.66712 18.7483 2.78771 18.5288 2.8141 18.2889C3.0127 16.5209 3.85574 14.888 5.18213 13.7023C6.50853 12.5165 8.2253 11.861 10.0044 11.861C11.7836 11.861 13.5003 12.5165 14.8267 13.7023C16.1531 14.888 16.9962 16.5209 17.1948 18.2889C17.2193 18.5111 17.3254 18.7164 17.4924 18.865C17.6594 19.0137 17.8756 19.0952 18.0992 19.0939H18.1987C18.4358 19.0666 18.6525 18.9467 18.8016 18.7603C18.9506 18.574 19.02 18.3363 18.9946 18.099C18.8133 16.4675 18.1913 14.9162 17.1955 13.6113C16.1997 12.3064 14.8675 11.2971 13.3418 10.6916ZM9.98634 10.0494C9.27081 10.0494 8.57135 9.83723 7.97641 9.43971C7.38147 9.04218 6.91777 8.47716 6.64395 7.8161C6.37013 7.15504 6.29849 6.42762 6.43808 5.72584C6.57767 5.02406 6.92223 4.37944 7.42819 3.87348C7.93414 3.36753 8.57877 3.02297 9.28055 2.88337C9.98233 2.74378 10.7097 2.81542 11.3708 3.08925C12.0319 3.36307 12.5969 3.82677 12.9944 4.42171C13.3919 5.01665 13.6041 5.71611 13.6041 6.43164C13.6041 7.39113 13.223 8.31133 12.5445 8.98979C11.866 9.66825 10.9458 10.0494 9.98634 10.0494Z" fill="#E02C2B"/>
</svg>
