<svg width="20" height="20" viewBox="0 0 20 20" fill="none" xmlns="http://www.w3.org/2000/svg">
<path d="M16.1749 10.8334C15.9916 10.8334 15.7999 10.7751 15.6166 10.7334C15.2456 10.6505 14.8808 10.5419 14.5249 10.4084C14.1383 10.2678 13.7134 10.2751 13.3318 10.4289C12.9503 10.5828 12.6391 10.8723 12.4582 11.2417L12.2749 11.6251C11.4656 11.1661 10.7179 10.606 10.0499 9.95841C9.40228 9.29039 8.84223 8.54273 8.38323 7.73341L8.76657 7.55841C9.13604 7.37751 9.42555 7.06636 9.57939 6.68482C9.73324 6.30329 9.74054 5.87834 9.5999 5.49175C9.46756 5.13261 9.35899 4.76515 9.2749 4.39175C9.23323 4.20841 9.1999 4.01675 9.1749 3.83341C9.0737 3.24643 8.76625 2.71487 8.30792 2.33445C7.84958 1.95403 7.27048 1.74976 6.6749 1.75841H4.16657C3.81427 1.75795 3.46586 1.83195 3.14416 1.97557C2.82247 2.11918 2.53476 2.32916 2.2999 2.59175C2.06017 2.86146 1.88166 3.17987 1.77665 3.52511C1.67164 3.87035 1.64262 4.23423 1.69157 4.59175C2.14456 8.0602 3.72924 11.2823 6.1999 13.7584C8.67602 16.2291 11.8981 17.8138 15.3666 18.2667C15.4747 18.275 15.5834 18.275 15.6916 18.2667C16.3061 18.2676 16.8994 18.0422 17.3582 17.6334C17.6208 17.3986 17.8308 17.1108 17.9744 16.7892C18.118 16.4675 18.192 16.119 18.1916 15.7667V13.2667C18.1871 12.6909 17.9839 12.1343 17.6165 11.691C17.2491 11.2476 16.7399 10.9447 16.1749 10.8334ZM16.5832 15.8334C16.583 15.9497 16.5583 16.0646 16.511 16.1708C16.4636 16.2771 16.3946 16.3722 16.3082 16.4501C16.2169 16.5333 16.1082 16.5952 15.99 16.6312C15.8718 16.6672 15.7471 16.6765 15.6249 16.6584C12.5151 16.2523 9.62511 14.8351 7.3999 12.6251C5.17279 10.398 3.74326 7.49789 3.33323 4.37508C3.31513 4.25286 3.32443 4.12814 3.36046 4.00996C3.39649 3.89177 3.45835 3.78308 3.54157 3.69175C3.62042 3.60437 3.71688 3.53469 3.82461 3.48729C3.93233 3.4399 4.04888 3.41585 4.16657 3.41675H6.66657C6.8592 3.41204 7.04751 3.47424 7.19945 3.59275C7.35139 3.71126 7.45756 3.87876 7.4999 4.06675C7.4999 4.29175 7.5749 4.52508 7.6249 4.75008C7.72121 5.18663 7.84933 5.61556 8.00823 6.03341L6.84157 6.58341C6.64104 6.67547 6.4852 6.84329 6.40823 7.05008C6.32488 7.25297 6.32488 7.48053 6.40823 7.68341C7.60757 10.2524 9.6726 12.3174 12.2416 13.5167C12.4444 13.6001 12.672 13.6001 12.8749 13.5167C13.0817 13.4398 13.2495 13.2839 13.3416 13.0834L13.8666 11.9167C14.2965 12.0735 14.7363 12.2016 15.1832 12.3001C15.3999 12.3501 15.6332 12.3917 15.8582 12.4251C16.0462 12.4674 16.2137 12.5736 16.3322 12.7255C16.4507 12.8775 16.5129 13.0658 16.5082 13.2584L16.5832 15.8334ZM11.6666 1.66675C11.4749 1.66675 11.2749 1.66675 11.0832 1.66675C10.8622 1.68553 10.6577 1.79135 10.5147 1.96091C10.3717 2.13048 10.3019 2.3499 10.3207 2.57091C10.3395 2.79193 10.4453 2.99643 10.6149 3.13942C10.7845 3.28242 11.0039 3.3522 11.2249 3.33341H11.6666C12.9926 3.33341 14.2644 3.8602 15.2021 4.79788C16.1398 5.73556 16.6666 7.00733 16.6666 8.33341C16.6666 8.48341 16.6666 8.62508 16.6666 8.77508C16.6481 8.99492 16.7175 9.21312 16.8597 9.38183C17.0019 9.55054 17.2051 9.656 17.4249 9.67508H17.4916C17.7002 9.67593 17.9015 9.5985 18.0558 9.45809C18.2101 9.31769 18.3061 9.12452 18.3249 8.91675C18.3249 8.72508 18.3249 8.52508 18.3249 8.33341C18.3249 6.56675 17.6237 4.87232 16.3752 3.62231C15.1268 2.37231 13.4332 1.66896 11.6666 1.66675ZM13.3332 8.33341C13.3332 8.55443 13.421 8.76639 13.5773 8.92267C13.7336 9.07895 13.9456 9.16675 14.1666 9.16675C14.3876 9.16675 14.5995 9.07895 14.7558 8.92267C14.9121 8.76639 14.9999 8.55443 14.9999 8.33341C14.9999 7.44936 14.6487 6.60151 14.0236 5.97639C13.3985 5.35127 12.5506 5.00008 11.6666 5.00008C11.4456 5.00008 11.2336 5.08788 11.0773 5.24416C10.921 5.40044 10.8332 5.6124 10.8332 5.83341C10.8332 6.05443 10.921 6.26639 11.0773 6.42267C11.2336 6.57895 11.4456 6.66675 11.6666 6.66675C12.1086 6.66675 12.5325 6.84234 12.8451 7.1549C13.1576 7.46746 13.3332 7.89139 13.3332 8.33341Z" fill="#E02C2B"/>
</svg>
