<svg width="20" height="18" viewBox="0 0 20 18" fill="none" xmlns="http://www.w3.org/2000/svg">
<path d="M14.8797 2.09375H16.384C17.379 2.09375 18.2832 2.50053 18.9381 3.15541C19.593 3.81029 19.9998 4.71472 19.9998 5.70941V13.8452C19.9998 14.8402 19.5931 15.7444 18.9382 16.3992C18.2833 17.0542 17.379 17.461 16.384 17.461H3.6155C2.62055 17.461 1.71638 17.0542 1.0615 16.3992C0.406534 15.7444 -0.000244141 14.8402 -0.000244141 13.8452V5.70941C-0.000244141 4.71445 0.406534 3.81019 1.0615 3.15532C1.71638 2.50035 2.62055 2.09375 3.6155 2.09375H5.11989C5.26205 1.63314 5.53981 1.22791 5.88144 0.900332C6.46231 0.342997 7.25972 0 7.87709 0H12.1224C12.7397 0 13.5372 0.342997 14.118 0.900332C14.4595 1.22791 14.7373 1.63314 14.8796 2.09375H14.8797ZM9.99977 5.37061C11.2164 5.37061 12.3184 5.86398 13.1158 6.66138C13.9133 7.45888 14.4066 8.56078 14.4066 9.77746C14.4066 10.9941 13.9133 12.096 13.1158 12.8935C12.3182 13.6909 11.2165 14.1842 9.99977 14.1842C8.78299 14.1842 7.68137 13.6909 6.88378 12.8935C6.08638 12.0959 5.593 10.9941 5.593 9.77746C5.593 8.56069 6.08638 7.45897 6.88378 6.66138C7.68119 5.86398 8.78318 5.37061 9.99977 5.37061V5.37061ZM12.1572 7.62002C11.6053 7.06807 10.8424 6.72672 9.99977 6.72672C9.1572 6.72672 8.39428 7.06807 7.84233 7.62002C7.29056 8.17197 6.94902 8.93489 6.94902 9.77746C6.94902 10.6199 7.29056 11.383 7.84233 11.9348C8.39428 12.4867 9.1572 12.8282 9.99977 12.8282C10.8423 12.8282 11.6053 12.4867 12.1572 11.9348C12.7092 11.383 13.0505 10.62 13.0505 9.77746C13.0505 8.9348 12.7092 8.17197 12.1572 7.62002V7.62002ZM16.384 3.44977H14.3048C13.9304 3.44977 13.6268 3.14619 13.6268 2.7718C13.6268 2.43711 13.439 2.12258 13.1805 1.87485C12.8459 1.55375 12.4246 1.35611 12.1224 1.35611H7.87719C7.57507 1.35611 7.15369 1.55375 6.81909 1.87485C6.56068 2.12268 6.3728 2.43711 6.3728 2.7718C6.3728 3.14619 6.06922 3.44977 5.69484 3.44977H3.61559C2.99475 3.44977 2.42984 3.70426 2.02014 4.11395C1.61044 4.52374 1.35587 5.08865 1.35587 5.7095V13.8453C1.35587 14.466 1.61044 15.0311 2.02014 15.4408C2.42993 15.8505 2.99484 16.1051 3.61559 16.1051H16.3841C17.005 16.1051 17.5701 15.8505 17.9797 15.4408C18.3895 15.031 18.6439 14.4662 18.6439 13.8453V5.7095C18.6439 5.08884 18.3894 4.52374 17.9796 4.11414C17.5698 3.70435 17.0049 3.44977 16.3841 3.44977H16.384Z" fill="#808187"/>
</svg>
