<svg width="20" height="20" viewBox="0 0 20 20" fill="none" xmlns="http://www.w3.org/2000/svg">
<g opacity="0.5">
<path d="M10 15.9195C5.29375 15.9195 1.61875 10.582 1.4625 10.3508L1.25 10.0008L1.4875 9.65078C1.61875 9.41953 5.29375 4.08203 10 4.08203C14.7063 4.08203 18.3813 9.41953 18.5375 9.65078L18.75 10.0008L18.5125 10.3508C18.3813 10.582 14.7063 15.9195 10 15.9195ZM2.75625 10.0008C3.625 11.1383 6.59375 14.6695 10 14.6695C13.4062 14.6695 16.375 11.1445 17.2437 10.0008C16.375 8.86328 13.4062 5.33203 10 5.33203C6.59375 5.33203 3.625 8.85703 2.75625 10.0008Z" fill="#808187"/>
<path d="M10 6.87545C9.90008 6.86964 9.79992 6.86964 9.7 6.87545C9.64801 6.88003 9.59953 6.90359 9.5638 6.94163C9.52807 6.97967 9.50758 7.02952 9.50625 7.0817C9.50639 7.138 9.52887 7.19195 9.56875 7.2317C9.8633 7.53231 10.0292 7.93583 10.0312 8.3567C10.0312 8.79264 9.85807 9.21074 9.54981 9.519C9.24154 9.82726 8.82345 10.0004 8.3875 10.0004C7.97258 9.99916 7.57413 9.83799 7.275 9.55045C7.24716 9.52081 7.21161 9.49951 7.17234 9.48896C7.13308 9.4784 7.09164 9.479 7.0527 9.49068C7.01375 9.50237 6.97883 9.52467 6.95186 9.5551C6.92488 9.58553 6.90693 9.62288 6.9 9.66295C6.88429 9.77478 6.87594 9.88752 6.875 10.0004C6.875 10.6185 7.05828 11.2227 7.40166 11.7366C7.74504 12.2505 8.2331 12.651 8.80411 12.8876C9.37513 13.1241 10.0035 13.186 10.6097 13.0654C11.2158 12.9448 11.7727 12.6472 12.2097 12.2102C12.6467 11.7731 12.9444 11.2163 13.065 10.6101C13.1855 10.0039 13.1236 9.37558 12.8871 8.80456C12.6506 8.23354 12.2501 7.74548 11.7362 7.4021C11.2223 7.05872 10.6181 6.87545 10 6.87545Z" fill="#808187"/>
</g>
</svg>
