<svg width="20" height="20" viewBox="0 0 20 20" fill="none" xmlns="http://www.w3.org/2000/svg">
<g clip-path="url(#clip0_99_4953)">
<path d="M14.5002 1C12.7602 1 11.0902 1.81 10.0002 3.09C8.91024 1.81 7.24024 1 5.50024 1C2.42024 1 0.000244141 3.42 0.000244141 6.5C0.000244141 10.28 3.40024 13.36 8.55024 18.04L10.0002 19.35L11.4502 18.03C16.6002 13.36 20.0002 10.28 20.0002 6.5C20.0002 3.42 17.5802 1 14.5002 1ZM10.1002 16.55L10.0002 16.65L9.90024 16.55C5.14024 12.24 2.00024 9.39 2.00024 6.5C2.00024 4.5 3.50024 3 5.50024 3C7.04024 3 8.54024 3.99 9.07024 5.36H10.9402C11.4602 3.99 12.9602 3 14.5002 3C16.5002 3 18.0002 4.5 18.0002 6.5C18.0002 9.39 14.8602 12.24 10.1002 16.55Z" fill="black"/>
</g>
<defs>
<clipPath id="clip0_99_4953">
<rect width="20" height="20" fill="white"/>
</clipPath>
</defs>
</svg>
