<svg width="20" height="20" viewBox="0 0 20 20" fill="none" xmlns="http://www.w3.org/2000/svg">
<path d="M17.2818 6.41506L11.8883 1.68672C11.3938 1.24449 10.7537 1 10.0904 1C9.42706 1 8.78698 1.24449 8.29256 1.68672L2.89901 6.41506C2.61348 6.67042 2.38563 6.98368 2.23063 7.33398C2.07563 7.68428 1.99704 8.06358 2.00009 8.44663V16.3032C2.00009 17.0185 2.28421 17.7044 2.78995 18.2101C3.29569 18.7159 3.98163 19 4.69686 19H15.4839C16.1992 19 16.8851 18.7159 17.3909 18.2101C17.8966 17.7044 18.1807 17.0185 18.1807 16.3032V8.43764C18.1825 8.0561 18.1033 7.67853 17.9483 7.32988C17.7934 6.98122 17.5662 6.66942 17.2818 6.41506ZM11.8883 17.2022H8.29256V12.7075C8.29256 12.4691 8.38726 12.2405 8.55584 12.0719C8.72443 11.9033 8.95307 11.8086 9.19148 11.8086H10.9893C11.2277 11.8086 11.4564 11.9033 11.625 12.0719C11.7935 12.2405 11.8883 12.4691 11.8883 12.7075V17.2022ZM16.3829 16.3032C16.3829 16.5416 16.2882 16.7703 16.1196 16.9389C15.951 17.1074 15.7224 17.2022 15.4839 17.2022H13.6861V12.7075C13.6861 11.9923 13.402 11.3064 12.8962 10.8006C12.3905 10.2949 11.7046 10.0108 10.9893 10.0108H9.19148C8.47625 10.0108 7.79032 10.2949 7.28457 10.8006C6.77883 11.3064 6.49471 11.9923 6.49471 12.7075V17.2022H4.69686C4.45845 17.2022 4.2298 17.1074 4.06122 16.9389C3.89264 16.7703 3.79793 16.5416 3.79793 16.3032V8.43764C3.7981 8.31 3.82544 8.18387 3.87813 8.06762C3.93083 7.95138 4.00768 7.84768 4.10357 7.76345L9.49711 3.04409C9.66116 2.89998 9.87205 2.8205 10.0904 2.8205C10.3088 2.8205 10.5197 2.89998 10.6837 3.04409L16.0772 7.76345C16.1731 7.84768 16.25 7.95138 16.3027 8.06762C16.3554 8.18387 16.3827 8.31 16.3829 8.43764V16.3032Z" fill="black"/>
</svg>
