<svg width="20" height="20" viewBox="0 0 20 20" fill="none" xmlns="http://www.w3.org/2000/svg">
<path d="M1.11111 5.22222C1.72476 5.22222 2.22222 4.72476 2.22222 4.11111C2.22222 3.49746 1.72476 3 1.11111 3C0.497461 3 0 3.49746 0 4.11111C0 4.72476 0.497461 5.22222 1.11111 5.22222Z" fill="black"/>
<path d="M1.11111 10.7769C1.72476 10.7769 2.22222 10.2794 2.22222 9.6658C2.22222 9.05215 1.72476 8.55469 1.11111 8.55469C0.497461 8.55469 0 9.05215 0 9.6658C0 10.2794 0.497461 10.7769 1.11111 10.7769Z" fill="black"/>
<path d="M1.11111 16.3336C1.72476 16.3336 2.22222 15.8361 2.22222 15.2224C2.22222 14.6088 1.72476 14.1113 1.11111 14.1113C0.497461 14.1113 0 14.6088 0 15.2224C0 15.8361 0.497461 16.3336 1.11111 16.3336Z" fill="black"/>
<path d="M18.9554 8.55469H5.48878C4.91195 8.55469 4.44434 9.0223 4.44434 9.59913V9.73247C4.44434 10.3093 4.91195 10.7769 5.48878 10.7769H18.9554C19.5323 10.7769 19.9999 10.3093 19.9999 9.73247V9.59913C19.9999 9.0223 19.5323 8.55469 18.9554 8.55469Z" fill="black"/>
<path d="M18.9554 14.1113H5.48878C4.91195 14.1113 4.44434 14.5789 4.44434 15.1558V15.2891C4.44434 15.8659 4.91195 16.3336 5.48878 16.3336H18.9554C19.5323 16.3336 19.9999 15.8659 19.9999 15.2891V15.1558C19.9999 14.5789 19.5323 14.1113 18.9554 14.1113Z" fill="black"/>
<path d="M18.9554 3H5.48878C4.91195 3 4.44434 3.46761 4.44434 4.04444V4.17778C4.44434 4.75461 4.91195 5.22222 5.48878 5.22222H18.9554C19.5323 5.22222 19.9999 4.75461 19.9999 4.17778V4.04444C19.9999 3.46761 19.5323 3 18.9554 3Z" fill="black"/>
</svg>
