<svg width="20" height="20" viewBox="0 0 20 20" fill="none" xmlns="http://www.w3.org/2000/svg">
<path d="M4.82307 3.88205C5.07264 3.88205 5.312 3.7829 5.48847 3.60643C5.66495 3.42995 5.76409 3.1906 5.76409 2.94102C5.76409 2.69145 5.66495 2.4521 5.48847 2.27562C5.312 2.09914 5.07264 2 4.82307 2H2.94102C2.69145 2 2.4521 2.09914 2.27562 2.27562C2.09914 2.4521 2 2.69145 2 2.94102V16.1153C2 16.3649 2.09914 16.6043 2.27562 16.7807C2.4521 16.9572 2.69145 17.0564 2.94102 17.0564H4.82307C5.07264 17.0564 5.312 16.9572 5.48847 16.7807C5.66495 16.6043 5.76409 16.3649 5.76409 16.1153C5.76409 15.8658 5.66495 15.6264 5.48847 15.4499C5.312 15.2735 5.07264 15.1743 4.82307 15.1743H3.88205V3.88205H4.82307ZM17.828 8.98239L15.1743 5.2183C15.0304 5.01543 14.812 4.87778 14.5669 4.83546C14.3218 4.79314 14.0699 4.84958 13.8663 4.99245C13.7645 5.06377 13.6779 5.15454 13.6114 5.25952C13.5449 5.3645 13.4998 5.48162 13.4788 5.6041C13.4578 5.72659 13.4613 5.85202 13.489 5.97316C13.5168 6.0943 13.5682 6.20874 13.6405 6.30989L15.259 8.58716H7.64614C7.39656 8.58716 7.15721 8.6863 6.98073 8.86278C6.80426 9.03926 6.70511 9.27861 6.70511 9.52818C6.70511 9.77776 6.80426 10.0171 6.98073 10.1936C7.15721 10.3701 7.39656 10.4692 7.64614 10.4692H15.1743L13.4805 12.7277C13.4063 12.8265 13.3524 12.939 13.3217 13.0587C13.291 13.1784 13.2843 13.303 13.3017 13.4254C13.3192 13.5477 13.3606 13.6654 13.4236 13.7717C13.4865 13.8781 13.5698 13.9709 13.6687 14.0451C13.8316 14.1673 14.0297 14.2333 14.2333 14.2333C14.3794 14.2333 14.5235 14.1993 14.6541 14.134C14.7848 14.0686 14.8985 13.9738 14.9861 13.8569L17.8092 10.0928C17.9297 9.93364 17.9965 9.74028 17.9999 9.54067C18.0032 9.34106 17.9431 9.14554 17.828 8.98239Z" fill="black"/>
</svg>
