<svg width="20" height="20" viewBox="0 0 20 20" fill="none" xmlns="http://www.w3.org/2000/svg">
<path d="M16.6666 2.5H3.33325C1.95263 2.5 0.833252 3.61937 0.833252 5V15C0.833252 16.3806 1.95263 17.5 3.33325 17.5H16.6666C18.0472 17.5 19.1666 16.3806 19.1666 15V5C19.1666 3.61937 18.0472 2.5 16.6666 2.5ZM16.6666 4.16667C16.7628 4.16667 16.8553 4.18292 16.9412 4.21312L9.99992 9.76625L3.05867 4.21312C3.14691 4.18221 3.23975 4.1665 3.33325 4.16667H16.6666ZM16.6666 15.8333H3.33325C3.11224 15.8333 2.90028 15.7455 2.744 15.5893C2.58772 15.433 2.49992 15.221 2.49992 15V5.90042L9.47929 11.484C9.63138 11.6058 9.81554 11.6667 9.99992 11.6667C10.1843 11.6667 10.3685 11.6058 10.5205 11.484L17.4999 5.90042V15C17.4999 15.221 17.4121 15.433 17.2558 15.5893C17.0996 15.7455 16.8876 15.8333 16.6666 15.8333Z" fill="#E02C2B"/>
</svg>
