<svg width="16" height="16" viewBox="0 0 16 16" fill="none" xmlns="http://www.w3.org/2000/svg">
<path fill-rule="evenodd" clip-rule="evenodd" d="M14.4 13.6072C14.4 14.048 14.0053 14.4 13.5642 14.4H11.1642C11.064 14.4025 10.9643 14.3837 10.8711 14.3449C10.7779 14.3061 10.6931 14.2479 10.6218 14.1739C10.5505 14.0999 10.4941 14.0116 10.456 13.9143C10.4179 13.8169 10.3988 13.7125 10.4 13.6072V11.2072C10.3985 11.1012 10.4172 10.9959 10.455 10.8975C10.4928 10.7992 10.5489 10.7098 10.6201 10.6346C10.6913 10.5593 10.7762 10.4998 10.8696 10.4596C10.963 10.4193 11.0632 10.399 11.1642 10.4H13.5642C14.0061 10.4 14.4 10.7664 14.4 11.2072V13.6072ZM13.5642 8.8H11.1642C9.83848 8.8 8.8 9.8816 8.8 11.2072V13.6072C8.8 14.9328 9.83848 16 11.1642 16H13.5642C14.8899 16 16 14.9328 16 13.6072V11.2072C16 9.8816 14.8899 8.8 13.5642 8.8ZM5.6 13.6072C5.6 14.048 5.20533 14.4 4.76419 14.4H2.36419C2.26396 14.4025 2.16429 14.3837 2.07111 14.3449C1.97792 14.3061 1.89315 14.2479 1.82183 14.1739C1.75051 14.0999 1.69412 14.0116 1.65601 13.9143C1.61789 13.8169 1.59885 13.7125 1.6 13.6072V11.2072C1.59847 11.1012 1.61716 10.9959 1.65497 10.8975C1.69277 10.7992 1.74893 10.7098 1.82014 10.6346C1.89134 10.5593 1.97616 10.4998 2.06959 10.4596C2.16303 10.4193 2.26319 10.399 2.36419 10.4H4.76419C5.2061 10.4 5.6 10.7664 5.6 11.2072V13.6072ZM4.76419 8.8H2.36419C1.03848 8.8 0 9.8816 0 11.2072V13.6072C0 14.9328 1.03848 16 2.36419 16H4.76419C6.0899 16 7.2 14.9328 7.2 13.6072V11.2072C7.2 9.8816 6.0899 8.8 4.76419 8.8ZM14.4 4.8072C14.4 5.248 14.0053 5.6 13.5642 5.6H11.1642C11.064 5.60248 10.9643 5.58374 10.8711 5.54489C10.7779 5.50605 10.6931 5.4479 10.6218 5.37392C10.5505 5.29993 10.4941 5.21162 10.456 5.11425C10.4179 5.01689 10.3988 4.91246 10.4 4.8072V2.4072C10.3985 2.30116 10.4172 2.19587 10.455 2.09752C10.4928 1.99918 10.5489 1.90977 10.6201 1.83455C10.6913 1.75934 10.7762 1.69984 10.8696 1.65956C10.963 1.61928 11.0632 1.59903 11.1642 1.6H13.5642C14.0061 1.6 14.4 1.9664 14.4 2.4072V4.8072ZM13.5642 0H11.1642C9.83848 0 8.8 1.0816 8.8 2.4072V4.8072C8.8 6.1328 9.83848 7.2 11.1642 7.2H13.5642C14.8899 7.2 16 6.1328 16 4.8072V2.4072C16 1.0816 14.8899 0 13.5642 0ZM5.6 4.8072C5.6 5.248 5.20533 5.6 4.76419 5.6H2.36419C2.26396 5.60248 2.16429 5.58374 2.07111 5.54489C1.97792 5.50605 1.89315 5.4479 1.82183 5.37392C1.75051 5.29993 1.69412 5.21162 1.65601 5.11425C1.61789 5.01689 1.59885 4.91246 1.6 4.8072V2.4072C1.59847 2.30116 1.61716 2.19587 1.65497 2.09752C1.69277 1.99918 1.74893 1.90977 1.82014 1.83455C1.89134 1.75934 1.97616 1.69984 2.06959 1.65956C2.16303 1.61928 2.26319 1.59903 2.36419 1.6H4.76419C5.2061 1.6 5.6 1.9664 5.6 2.4072V4.8072ZM4.76419 0H2.36419C1.03848 0 0 1.0816 0 2.4072V4.8072C0 6.1328 1.03848 7.2 2.36419 7.2H4.76419C6.0899 7.2 7.2 6.1328 7.2 4.8072V2.4072C7.2 1.0816 6.0899 0 4.76419 0Z" fill="#E02C2B"/>
</svg>
