<svg width="20" height="20" viewBox="0 0 20 20" fill="none" xmlns="http://www.w3.org/2000/svg">
<path d="M10 20C7.66667 20 2.5 12.75 2.5 7.5C2.5 3.33333 5.83333 0 10 0C14.1667 0 17.5 3.33333 17.5 7.5C17.5 10.8333 15.5 14.3333 14.6667 15.6667C14.1667 16.4167 11.8333 20 10 20ZM10 1.66667C6.75 1.66667 4.16667 4.25 4.16667 7.5C4.16667 12.1667 8.83333 18.0833 10 18.3333C11.1667 18.0833 15.8333 12.1667 15.8333 7.5C15.8333 4.25 13.25 1.66667 10 1.66667Z" fill="#E02C2B"/>
<path d="M9.99992 11.6666C7.66659 11.6666 5.83325 9.83325 5.83325 7.49992C5.83325 5.16659 7.66659 3.33325 9.99992 3.33325C12.3333 3.33325 14.1666 5.16659 14.1666 7.49992C14.1666 9.83325 12.3333 11.6666 9.99992 11.6666ZM9.99992 4.99992C8.58325 4.99992 7.49992 6.08325 7.49992 7.49992C7.49992 8.91658 8.58325 9.99992 9.99992 9.99992C11.4166 9.99992 12.4999 8.91658 12.4999 7.49992C12.4999 6.08325 11.4166 4.99992 9.99992 4.99992Z" fill="#E02C2B"/>
</svg>
