<svg width="14" height="14" viewBox="0 0 14 14" fill="none" xmlns="http://www.w3.org/2000/svg">
<path d="M4.22217 9.92164V4.0783C4.22214 3.98055 4.2479 3.88452 4.29686 3.79991C4.34581 3.7153 4.41623 3.64511 4.50099 3.59641C4.58575 3.54772 4.68186 3.52225 4.77961 3.52259C4.87736 3.52292 4.97329 3.54904 5.05772 3.5983L10.0661 6.52052C10.1499 6.56947 10.2194 6.63951 10.2677 6.72368C10.316 6.80785 10.3414 6.9032 10.3414 7.00025C10.3414 7.09729 10.316 7.19265 10.2677 7.27681C10.2194 7.36098 10.1499 7.43102 10.0661 7.47997L5.05772 10.4016C4.97329 10.4509 4.87736 10.477 4.77961 10.4774C4.68186 10.4777 4.58575 10.4522 4.50099 10.4035C4.41623 10.3548 4.34581 10.2846 4.29686 10.2C4.2479 10.1154 4.22214 10.0194 4.22217 9.92164Z" fill="white"/>
</svg>
