<svg width="20" height="20" viewBox="0 0 20 20" fill="none" xmlns="http://www.w3.org/2000/svg">
<path d="M7.18758 7.08366H3.43758C3.21657 7.08366 3.00461 6.99586 2.84833 6.83958C2.69205 6.6833 2.60425 6.47134 2.60425 6.25033V2.50033C2.60425 2.27931 2.69205 2.06735 2.84833 1.91107C3.00461 1.75479 3.21657 1.66699 3.43758 1.66699C3.6586 1.66699 3.87056 1.75479 4.02684 1.91107C4.18312 2.06735 4.27091 2.27931 4.27091 2.50033V5.41699H7.18758C7.4086 5.41699 7.62056 5.50479 7.77684 5.66107C7.93312 5.81735 8.02091 6.02931 8.02091 6.25033C8.02091 6.47134 7.93312 6.6833 7.77684 6.83958C7.62056 6.99586 7.4086 7.08366 7.18758 7.08366Z" fill="#E02C2B"/>
<path d="M17.5 10.8335C17.279 10.8335 17.067 10.7457 16.9107 10.5894C16.7545 10.4331 16.6667 10.2212 16.6667 10.0002C16.6673 8.53311 16.1837 7.10687 15.2909 5.94275C14.3981 4.77864 13.1461 3.94174 11.729 3.56194C10.312 3.18213 8.80922 3.28065 7.4539 3.8422C6.09858 4.40376 4.9665 5.39696 4.23333 6.66767C4.12261 6.85895 3.94043 6.99842 3.72687 7.05538C3.51331 7.11235 3.28587 7.08214 3.09458 6.97142C2.9033 6.86069 2.76383 6.67851 2.70687 6.46495C2.6499 6.25139 2.68011 6.02395 2.79083 5.83267C3.70771 4.24453 5.12307 3.00337 6.81735 2.30174C8.51162 1.60011 10.3901 1.47722 12.1613 1.95216C13.9326 2.42709 15.4975 3.47328 16.6135 4.92844C17.7295 6.38359 18.334 8.16636 18.3333 10.0002C18.3333 10.2212 18.2455 10.4331 18.0893 10.5894C17.933 10.7457 17.721 10.8335 17.5 10.8335ZM16.5625 18.3335C16.3415 18.3335 16.1295 18.2457 15.9732 18.0894C15.817 17.9331 15.7292 17.7212 15.7292 17.5002V14.5835H12.8125C12.5915 14.5835 12.3795 14.4957 12.2232 14.3394C12.067 14.1831 11.9792 13.9712 11.9792 13.7502C11.9792 13.5292 12.067 13.3172 12.2232 13.1609C12.3795 13.0046 12.5915 12.9168 12.8125 12.9168H16.5625C16.7835 12.9168 16.9955 13.0046 17.1518 13.1609C17.308 13.3172 17.3958 13.5292 17.3958 13.7502V17.5002C17.3958 17.7212 17.308 17.9331 17.1518 18.0894C16.9955 18.2457 16.7835 18.3335 16.5625 18.3335Z" fill="#E02C2B"/>
<path d="M10.0001 18.3337C7.79076 18.331 5.67268 17.4522 4.11045 15.89C2.54822 14.3277 1.66939 12.2097 1.66675 10.0003C1.66675 9.77931 1.75455 9.56735 1.91083 9.41107C2.06711 9.25479 2.27907 9.16699 2.50008 9.16699C2.7211 9.16699 2.93306 9.25479 3.08934 9.41107C3.24562 9.56735 3.33341 9.77931 3.33341 10.0003C3.33278 11.4674 3.81638 12.8936 4.70917 14.0577C5.60196 15.2219 6.85402 16.0587 8.27105 16.4386C9.68808 16.8184 11.1909 16.7198 12.5462 16.1583C13.9015 15.5967 15.0336 14.6035 15.7667 13.3328C15.8216 13.2381 15.8945 13.1551 15.9814 13.0886C16.0683 13.0221 16.1675 12.9733 16.2732 12.9451C16.379 12.9169 16.4892 12.9098 16.5977 12.9242C16.7062 12.9386 16.8108 12.9742 16.9055 13.0291C17.0002 13.0839 17.0832 13.1568 17.1497 13.2437C17.2163 13.3306 17.265 13.4298 17.2932 13.5355C17.3214 13.6413 17.3285 13.7515 17.3141 13.86C17.2997 13.9685 17.2641 14.0731 17.2092 14.1678C16.4763 15.4316 15.4251 16.4812 14.1602 17.2121C12.8953 17.943 11.461 18.3297 10.0001 18.3337Z" fill="#E02C2B"/>
</svg>
