<svg width="70" height="50" viewBox="0 0 70 50" fill="none" xmlns="http://www.w3.org/2000/svg">
<path d="M52.4375 19.4998L54.3125 18.8748C54.625 18.7185 54.9375 18.8748 55.0938 19.031C55.4063 19.3435 55.4063 19.656 55.0938 19.9685L54.4687 21.0623L52.4375 19.4998Z" fill="#E02C2B"/>
<path opacity="0.39" d="M52.4375 19.4998L54.3125 18.8748C54.625 18.7185 54.9375 18.8748 55.0938 19.031C55.4063 19.3435 55.4063 19.656 55.0938 19.9685L54.4687 21.0623" fill="black"/>
<path opacity="0.3" d="M44.625 47.625L66.5 36.6875L25.875 16.375L4 27.3125L44.625 47.625Z" fill="black"/>
<path d="M45.4062 41.0625L63.375 32.4688L24.3125 12.7812L6.34375 21.375L45.4062 41.0625Z" fill="black"/>
<path d="M38.5312 32.1564C37.2812 31.5314 36.1875 31.5314 35.4062 31.8439L33.6875 32.7814C32.75 33.2502 32.2812 34.0314 32.2812 35.4377C32.2812 37.9377 34.3125 41.0627 36.8125 42.3127C38.0625 42.9377 39.1562 42.9377 40.0938 42.6252C40.0938 42.6252 41.8125 41.6877 41.9687 41.5314C42.75 41.0627 43.2188 40.2814 43.2188 39.0314C43.0625 36.5314 41.0312 33.5627 38.5312 32.1564Z" fill="black"/>
<path opacity="0.39" d="M39.9375 42.625C40.25 42.4687 41.6563 41.6875 41.8125 41.6875C42.5938 41.2188 43.0625 40.4375 43.0625 39.1875C43.0625 38.0938 42.75 37 42.125 36.0625L40.4062 37C41.0312 38.0938 41.3437 39.1875 41.3437 40.125C41.3437 41.375 40.875 42.1562 39.9375 42.625Z" fill="black"/>
<path d="M36.6562 34.3435C34.7812 33.406 33.2188 34.1873 33.2188 36.0623C33.2188 37.9373 34.7812 40.281 36.6562 41.2185C38.5312 42.156 40.0937 41.3748 40.0937 39.4998C40.25 37.6248 38.6875 35.281 36.6562 34.3435ZM39 36.6873C39.3125 37.156 39.4687 37.6248 39.1562 37.781C39 37.9373 37.9062 37.781 37.4375 37.6248C37.4375 37.4685 37.2812 37.4685 37.2812 37.3123C37.4375 36.8435 37.75 36.0623 38.0625 35.906C38.2187 35.7498 38.6875 36.0623 39 36.6873ZM36.6562 34.656C37.125 34.9685 37.5937 35.281 37.5937 35.5935C37.5937 35.906 37.125 36.6873 36.8125 36.9998C36.8125 36.9998 36.6562 36.9998 36.6562 36.8435H36.5C36.1875 36.2185 35.7187 35.1248 35.7187 34.8123C35.875 34.3435 36.1875 34.3435 36.6562 34.656ZM34.4687 34.3435C34.7812 34.1873 35.25 34.1873 35.5625 34.656C35.7188 34.9685 36.1875 36.2185 36.3438 36.6873C36.1875 36.6873 36.1875 36.6873 36.1875 36.8435C35.7187 36.3748 34.625 35.5935 34.4687 35.281C34 34.8123 34.1562 34.4998 34.4687 34.3435ZM33.5312 36.2185C33.5312 35.7498 33.6875 35.4373 34.1562 35.5935C34.4687 35.7498 35.4062 36.6873 35.875 37.156V37.4685C35.4062 37.4685 34.4687 37.4685 34.1562 37.3123C33.6875 37.156 33.5312 36.6873 33.5312 36.2185ZM34.4687 38.8748C34.1562 38.406 34 37.9373 34.3125 37.781C34.4687 37.6248 35.5625 37.781 36.0312 37.9373C36.0312 38.0935 36.1875 38.0935 36.1875 38.2498C36.0312 38.7185 35.7187 39.4998 35.4062 39.656C35.25 39.8123 34.7812 39.3435 34.4687 38.8748ZM36.6562 40.906C36.1875 40.5935 35.7187 40.281 35.7187 39.9685C35.7187 39.656 36.1875 38.8748 36.5 38.5623C36.5 38.5623 36.6562 38.5623 36.6562 38.7185H36.8125C37.125 39.3435 37.5937 40.4373 37.5937 40.7498C37.5937 41.2185 37.2812 41.2185 36.6562 40.906ZM39 41.0623C38.6875 41.2185 38.2188 41.2185 37.9062 40.7498C37.75 40.4373 37.2812 39.1873 37.125 38.7185C37.2812 38.7185 37.2812 38.7185 37.2812 38.5623C37.75 39.031 38.8437 39.8123 39 40.1248C39.4687 40.5935 39.3125 40.906 39 41.0623ZM39.3125 39.9685C39 39.8123 38.0625 38.8748 37.5937 38.406V38.2498V38.0935C38.0625 38.0935 39 38.0935 39.3125 38.2498C39.7812 38.406 39.9375 38.8748 39.9375 39.3435C39.9375 39.8123 39.7812 40.1248 39.3125 39.9685Z" fill="#BFC1C7"/>
<path opacity="0.06" d="M36.9687 41.0625C35.0937 40.125 33.5312 37.7813 33.5312 35.9063C33.5312 34.9688 33.8437 34.3438 34.4687 34.0312C33.6875 34.3438 33.2188 34.9688 33.2188 36.0625C33.2188 37.9375 34.7812 40.2813 36.6562 41.2188C37.5937 41.6875 38.5312 41.6875 39.1562 41.375C38.5312 41.5313 37.9062 41.5312 36.9687 41.0625Z" fill="black"/>
<path opacity="0.06" d="M41.3437 40.1248C41.3437 42.6248 39.3125 43.7186 36.8125 42.4686C34.3125 41.2186 32.2812 38.0936 32.2812 35.5936C32.2812 33.0936 34.3125 31.9998 36.8125 33.2498C39.3125 34.3436 41.3437 37.4686 41.3437 40.1248Z" fill="black"/>
<path d="M15.0938 20.5939C13.8438 19.9689 12.75 19.9689 11.9688 20.2814L10.0938 21.2189C9.3125 21.5314 8.6875 22.4689 8.6875 23.7189C8.6875 26.2189 10.7187 29.3439 13.2187 30.5939C14.4687 31.2189 15.5625 31.2189 16.5 30.9064C16.5 30.9064 18.2188 29.9689 18.375 29.8127C19.1562 29.3439 19.625 28.5627 19.625 27.3127C19.625 24.9689 17.5938 21.8439 15.0938 20.5939Z" fill="black"/>
<path opacity="0.39" d="M16.5 30.9062C16.8125 30.75 18.2187 29.9687 18.375 29.9687C19.1562 29.5 19.625 28.7188 19.625 27.4688C19.625 26.375 19.3125 25.2813 18.6875 24.3438L16.9688 25.2812C17.5938 26.375 17.9062 27.4687 17.9062 28.4062C17.9062 29.6562 17.4375 30.5938 16.5 30.9062Z" fill="black"/>
<path d="M13.2187 22.6248C11.3437 21.6873 9.78125 22.4685 9.78125 24.3435C9.78125 26.2185 11.3437 28.5623 13.2187 29.4998C15.0938 30.4373 16.6563 29.656 16.6563 27.781C16.8125 25.906 15.25 23.5623 13.2187 22.6248ZM15.5625 24.9685C15.875 25.4373 16.0313 25.906 15.7188 26.0623C15.5625 26.2185 14.4687 26.0623 14 25.906C14 25.7498 13.8438 25.7498 13.8438 25.5935C14 25.1248 14.3125 24.3435 14.625 24.1873C14.7813 24.031 15.25 24.4998 15.5625 24.9685ZM13.2187 22.9373C13.6875 23.2498 14.1563 23.5623 14.1563 23.8748C14.1563 24.1873 13.6875 24.9685 13.375 25.281C13.375 25.281 13.2187 25.281 13.2187 25.1248H13.0625C12.75 24.4998 12.2813 23.406 12.2813 23.0935C12.4375 22.6248 12.75 22.6248 13.2187 22.9373ZM11.0313 22.781C11.3438 22.6248 11.8125 22.6248 12.125 23.0935C12.2812 23.406 12.75 24.656 12.9062 25.1248C12.75 25.1248 12.75 25.1248 12.75 25.281C12.2813 24.8123 11.1875 24.031 11.0313 23.7185C10.5625 23.2498 10.7188 22.9373 11.0313 22.781ZM10.0938 24.4998C10.0938 24.031 10.25 23.7185 10.7188 23.8748C11.0313 24.031 11.9687 24.9685 12.4375 25.4373V25.7498C11.9687 25.7498 11.0313 25.7498 10.7188 25.5935C10.25 25.4373 10.0938 24.9685 10.0938 24.4998ZM11.0313 27.156C10.7188 26.6873 10.5625 26.2185 10.875 26.0623C11.0312 25.906 12.125 26.0623 12.5938 26.2185C12.5938 26.3748 12.75 26.3748 12.75 26.531C12.5938 26.9998 12.2813 27.781 11.9688 27.9373C11.8125 28.0935 11.3438 27.6248 11.0313 27.156ZM13.2187 29.1873C12.75 28.8748 12.2813 28.5623 12.2813 28.2498C12.2813 27.9373 12.75 27.156 13.0625 26.8435C13.0625 26.8435 13.2187 26.8435 13.2187 26.9998H13.375C13.6875 27.6248 14.1563 28.7185 14.1563 29.031C14.1563 29.4998 13.8437 29.4998 13.2187 29.1873ZM15.5625 29.4998C15.25 29.656 14.7812 29.656 14.4688 29.1873C14.3125 28.8748 13.8438 27.6248 13.6875 27.156C13.8438 27.156 13.8438 27.156 13.8438 26.9998C14.3125 27.4685 15.4062 28.2498 15.5625 28.5623C16.0312 29.031 15.875 29.3435 15.5625 29.4998ZM15.875 28.2498C15.5625 28.0935 14.625 27.156 14.1563 26.6873V26.531V26.3748C14.625 26.3748 15.5625 26.3748 15.875 26.531C16.3438 26.6873 16.5 27.156 16.5 27.6248C16.5 28.0935 16.3438 28.406 15.875 28.2498Z" fill="#BFC1C7"/>
<path opacity="0.06" d="M13.5313 29.3438C11.6563 28.4062 10.0938 26.0625 10.0938 24.1875C10.0938 23.25 10.4063 22.625 11.0313 22.3125C10.25 22.625 9.78125 23.25 9.78125 24.3438C9.78125 26.2188 11.3437 28.5625 13.2187 29.5C14.1562 29.9687 15.0938 29.9687 15.7188 29.6562C15.0938 29.9687 14.4688 29.8125 13.5313 29.3438Z" fill="black"/>
<path opacity="0.06" d="M17.9062 28.4061C17.9062 30.9061 15.875 31.9998 13.375 30.7498C10.875 29.4998 8.6875 26.3748 8.6875 23.7186C8.6875 21.0623 10.7187 20.1248 13.2187 21.3748C15.875 22.7811 17.9062 25.9061 17.9062 28.4061Z" fill="black"/>
<path d="M56.0313 22.625L47.75 13.25L35.25 7L26.1875 7.78125L20.25 7.3125L6.1875 14.3437V20.5938L7.90625 21.6875C8.6875 19.9687 10.875 19.3438 13.2188 20.5938C16.0312 22 18.2188 25.125 18.6875 27.9375L31.1875 34.3438C31.5 31.6875 33.8438 30.75 36.6563 32.1562C39.4688 33.5625 41.8125 36.8438 42.125 39.8125L48.375 42.4688L64.9375 34.3438V28.0938L56.0313 22.625Z" fill="#E02C2B"/>
<path d="M33.375 21.375L47.75 14.0312L54.9375 22.3125L40.5625 29.5L33.375 21.375Z" fill="#68B1FF"/>
<path d="M54.4687 21.8438L40.0938 29.0313L40.5625 29.5L54.9375 22.3125L54.4687 21.8438Z" fill="black"/>
<path opacity="0.15" d="M36.5 19.8125L47.75 14.0312L54.9375 22.3125L36.5 19.8125Z" fill="black"/>
<path d="M27.4375 8.25L32.125 7.78125L19.4687 14.0312L14.625 14.5L27.4375 8.25Z" fill="#68B1FF"/>
<path opacity="0.39" d="M27.2812 10.125L19.4687 14.0313L14.625 14.5L27.2812 10.125Z" fill="white"/>
<path d="M64.9375 28.875V31.6875L62.5938 32.7812V31.5312C62.5938 31.0625 62.75 30.5938 63.0625 30.125C63.375 29.8125 63.6875 29.5 64 29.3438L64.9375 28.875ZM48.5312 37.1562L50.25 36.375C50.5625 36.2187 51.0312 36.2187 51.3437 36.5312C51.5 36.6875 51.6562 37 51.6562 37.1562V38.25L48.5312 39.8125V37.1562Z" fill="white"/>
<path d="M48.5312 37.1562L47.75 36.6875V39.5L48.5312 39.8125V37.1562Z" fill="#FEE794"/>
<path opacity="0.39" d="M49.8855 37.4502C49.5587 37.8518 49.5107 38.3539 49.7784 38.5718C50.0461 38.7897 50.5281 38.6409 50.855 38.2393C51.1818 37.8377 51.2298 37.3356 50.962 37.1177C50.6943 36.8998 50.2124 37.0486 49.8855 37.4502Z" fill="black"/>
<path opacity="0.39" d="M49.3103 37.4263C48.9835 37.8278 48.9355 38.33 49.2032 38.5479C49.4709 38.7658 49.9529 38.6169 50.2798 38.2154C50.6066 37.8138 50.6546 37.3116 50.3869 37.0937C50.1191 36.8758 49.6372 37.0247 49.3103 37.4263Z" fill="black"/>
<path opacity="0.39" d="M63.6057 30.3604C63.2789 30.7619 63.2309 31.2641 63.4986 31.482C63.7663 31.6999 64.2483 31.551 64.5752 31.1495C64.902 30.7479 64.95 30.2457 64.6823 30.0278C64.4146 29.8099 63.9326 29.9588 63.6057 30.3604Z" fill="black"/>
<path opacity="0.39" d="M62.8709 30.7979C62.544 31.1994 62.4961 31.7016 62.7638 31.9195C63.0315 32.1374 63.5135 31.9885 63.8403 31.587C64.1672 31.1854 64.2151 30.6832 63.9474 30.4653C63.6797 30.2474 63.1977 30.3963 62.8709 30.7979Z" fill="black"/>
<path d="M53.2188 35.5937L61.0312 31.6875V33.5625L53.2188 37.4688V35.5937Z" fill="black"/>
<path d="M7.125 15.5937L6.34375 15.2812V17.1562L7.125 17.625V15.5937Z" fill="#E02C2B"/>
<path d="M24.7812 23.0938L38.8438 30.125L31.6562 21.6875L24.7812 18.25V23.0938ZM23.5312 17.7812L20.0938 16.0625L13.0625 17.1562L23.5312 22.4687V17.7812Z" fill="#68B1FF"/>
<path opacity="0.15" d="M25.5625 23.0938V18.7187L24.7812 18.25V23.0938L38.8438 30.125L38.2187 29.3438L25.5625 23.0938ZM13.8438 17.1562L20.25 16.0625H20.0938L13.0625 17.1562L23.5312 22.4687V22L13.8438 17.1562Z" fill="black"/>
<path opacity="0.06" d="M40.4062 30.4375L32.125 21.0625L19.1562 14.8125L10.7188 15.5937L6.34375 14.5V20.75L8.0625 21.8437C8.6875 19.9687 10.875 19.3437 13.2187 20.5937C16.0312 22 18.2187 25.125 18.6875 27.9375L19 28.0938L31.1875 34.5C31.5 31.8438 33.8437 30.9062 36.6562 32.3125C39.4687 33.7188 41.8125 37 42.125 39.9687L48.375 42.625V36.375L40.4062 30.4375Z" fill="black"/>
<path d="M6.03125 19.1875L7.59375 19.9688V22.3125L6.03125 21.5312V19.1875Z" fill="#E02C2B"/>
<path opacity="0.39" d="M6.03125 19.1875L7.59375 19.9688V22.3125L6.03125 21.5312V19.1875Z" fill="black"/>
<path d="M7.59375 19.9688V22.3125L7.90625 21.8438V19.5L6.34375 18.7188L6.03125 19.1875L7.59375 19.9688ZM48.2188 42.9375L66.1875 34.0312V32.4687L48.2188 41.375L46.6562 40.5938V42.1562L48.2188 42.9375Z" fill="#E02C2B"/>
<path opacity="0.39" d="M48.2188 42.9375L66.1875 34.0312V32.4688L48.2188 41.375L46.6562 40.5938V42.1563L48.2188 42.9375Z" fill="black"/>
<path d="M48.2188 40.5938L65.4062 32L66.1875 32.4687L48.2188 41.375L46.6562 40.5938L47.4375 40.2812L48.2188 40.5938Z" fill="#E02C2B"/>
<path opacity="0.39" d="M48.5312 37.1562L51.6562 38.25L48.5312 39.8125V37.1562ZM64.9375 28.875V31.6875L62.5938 32.7812L64.9375 28.875Z" fill="white"/>
<path d="M38.0625 29.6562L36.5 27.4688C36.1875 27.1563 35.875 27 35.4063 27L33.5312 27.1562C33.2187 27.1562 32.9062 27.4688 32.9062 27.7812C32.9062 28.0938 33.2187 28.4062 33.5312 28.4062L35.7187 28.7187L38.0625 29.6562Z" fill="#E02C2B"/>
<path opacity="0.39" d="M38.0625 29.6562L36.5 27.4688C36.1875 27.1563 35.875 27 35.4063 27L33.5312 27.1562C33.2187 27.1562 32.9062 27.4688 32.9062 27.7812C32.9062 28.0938 33.2187 28.4062 33.5312 28.4062L35.7187 28.7187L38.0625 29.6562Z" fill="black"/>
<path d="M44.1562 25.5937C44.1562 25.75 44.3125 25.75 44.4687 25.75L51.5 23.875C51.6563 23.875 51.6562 23.7188 51.6562 23.5625C51.6562 23.4063 51.5 23.4062 51.3437 23.4062L44.3125 25.2812C44.1562 25.2812 44.1562 25.4375 44.1562 25.5937ZM40.25 27.625C40.25 27.7812 40.4062 27.7813 40.5625 27.7813L47.5937 25.9063C47.75 25.9063 47.75 25.75 47.75 25.5937C47.75 25.4375 47.5937 25.4375 47.4375 25.4375L40.4062 27.3125C40.25 27.3125 40.25 27.4688 40.25 27.625Z" fill="black"/>
<path opacity="0.5" d="M52.9064 23.25C53.0627 22.3125 52.9064 21.375 52.2814 20.9063C51.1877 20.125 49.4689 20.5938 48.2189 22.1563C47.1252 23.4063 46.8127 24.9688 47.4377 25.9063L48.5314 25.4375C48.0627 24.8125 48.2189 23.5625 49.0002 22.625C49.9377 21.5313 51.1877 21.0625 51.9689 21.6875C52.4377 22 52.4377 22.7813 52.1252 23.5625L52.9064 23.25Z" fill="black"/>
<path opacity="0.39" d="M56.0312 22.625L40.4062 30.4375L32.125 21.0625L47.75 13.25L56.0312 22.625ZM64.9375 28.0938L48.5312 36.375V40.2812L64.9375 32.1563V28.0938Z" fill="black"/>
</svg>
