<svg width="20" height="20" viewBox="0 0 20 20" fill="none" xmlns="http://www.w3.org/2000/svg">
<g clip-path="url(#clip0_41_2844)">
<path d="M9.91698 17.4378C9.10068 17.4308 8.29405 17.2605 7.54461 16.9369C6.79518 16.6133 6.11812 16.1429 5.55334 15.5535C4.40667 14.3505 3.77391 12.7481 3.78934 11.0863C3.80477 9.42446 4.46718 7.83406 5.63598 6.65263L9.47069 2.80966C9.54542 2.72921 9.63636 2.66552 9.7375 2.62278C9.83864 2.58005 9.9477 2.55923 10.0575 2.56172C10.1674 2.56325 10.2759 2.5867 10.3767 2.63069C10.4774 2.67468 10.5684 2.73833 10.6442 2.81792L14.4128 6.71875C15.5606 7.92061 16.1948 9.52243 16.181 11.1842C16.1671 12.8461 15.5061 14.4371 14.3385 15.6196C13.7634 16.2067 13.0748 16.6707 12.3147 16.9833C11.5545 17.2959 10.7388 17.4505 9.91698 17.4378ZM10.0244 4.56999L6.80954 7.80966C5.94146 8.6875 5.44981 9.86918 5.43901 11.1037C5.42821 12.3382 5.89911 13.5283 6.75169 14.4212C7.16339 14.8459 7.65498 15.185 8.1982 15.419C8.74142 15.6531 9.32554 15.7774 9.91698 15.7849C10.5159 15.7898 11.1097 15.6746 11.6633 15.4461C12.217 15.2175 12.7191 14.8803 13.1401 14.4543C14.011 13.5774 14.5038 12.3944 14.5131 11.1586C14.5223 9.92283 14.0473 8.73255 13.1897 7.84271L10.0244 4.56999Z" fill="#BFC1C7"/>
</g>
<defs>
<clipPath id="clip0_41_2844">
<rect width="20" height="20" fill="white"/>
</clipPath>
</defs>
</svg>
