<svg width="20" height="20" viewBox="0 0 20 20" fill="none" xmlns="http://www.w3.org/2000/svg">
<path d="M17.117 5.2415L15.8337 3.95817L14.6587 2.78317C14.581 2.70547 14.4887 2.64384 14.3872 2.60179C14.2857 2.55974 14.1769 2.53809 14.067 2.53809C13.9571 2.53809 13.8483 2.55974 13.7468 2.60179C13.6453 2.64384 13.553 2.70547 13.4753 2.78317C13.3976 2.86087 13.336 2.95311 13.2939 3.05463C13.2519 3.15615 13.2302 3.26495 13.2302 3.37484C13.2302 3.48472 13.2519 3.59353 13.2939 3.69504C13.336 3.79656 13.3976 3.88881 13.4753 3.9665L14.3087 4.79984L13.617 6.87484C13.4707 7.31569 13.4502 7.78857 13.5576 8.24045C13.6651 8.69233 13.8963 9.10534 14.2253 9.43317L16.6837 11.9332V15.8332C16.6837 16.0542 16.5959 16.2661 16.4396 16.4224C16.2833 16.5787 16.0713 16.6665 15.8503 16.6665C15.6293 16.6665 15.4174 16.5787 15.2611 16.4224C15.1048 16.2661 15.017 16.0542 15.017 15.8332V14.1665C15.017 13.5035 14.7536 12.8676 14.2848 12.3987C13.8159 11.9299 13.18 11.6665 12.517 11.6665H11.667V4.1665C11.667 3.50346 11.4036 2.86758 10.9348 2.39874C10.4659 1.9299 9.83003 1.6665 9.16699 1.6665H4.16699C3.50395 1.6665 2.86807 1.9299 2.39923 2.39874C1.93038 2.86758 1.66699 3.50346 1.66699 4.1665V15.8332C1.66699 16.4962 1.93038 17.1321 2.39923 17.6009C2.86807 18.0698 3.50395 18.3332 4.16699 18.3332H9.16699C9.83003 18.3332 10.4659 18.0698 10.9348 17.6009C11.4036 17.1321 11.667 16.4962 11.667 15.8332V13.3332H12.5003C12.7213 13.3332 12.9333 13.421 13.0896 13.5772C13.2459 13.7335 13.3337 13.9455 13.3337 14.1665V15.8332C13.3337 16.4962 13.5971 17.1321 14.0659 17.6009C14.5347 18.0698 15.1706 18.3332 15.8337 18.3332C16.4967 18.3332 17.1326 18.0698 17.6014 17.6009C18.0703 17.1321 18.3337 16.4962 18.3337 15.8332V8.1915C18.3346 7.64396 18.2277 7.1016 18.0189 6.59542C17.8102 6.08923 17.5037 5.62916 17.117 5.2415ZM10.0003 15.8332C10.0003 16.0542 9.91253 16.2661 9.75625 16.4224C9.59997 16.5787 9.38801 16.6665 9.16699 16.6665H4.16699C3.94598 16.6665 3.73402 16.5787 3.57774 16.4224C3.42146 16.2661 3.33366 16.0542 3.33366 15.8332V9.99984H10.0003V15.8332ZM10.0003 8.33317H3.33366V4.1665C3.33366 3.94549 3.42146 3.73353 3.57774 3.57725C3.73402 3.42097 3.94598 3.33317 4.16699 3.33317H9.16699C9.38801 3.33317 9.59997 3.42097 9.75625 3.57725C9.91253 3.73353 10.0003 3.94549 10.0003 4.1665V8.33317ZM16.667 9.5165L15.3837 8.23317C15.278 8.1254 15.2036 7.99095 15.1683 7.84418C15.1331 7.69741 15.1384 7.54383 15.1837 7.39984L15.6087 6.1165L15.9337 6.44984C16.3966 6.91209 16.6598 7.53736 16.667 8.1915V9.5165Z" fill="#BFC1C7"/>
</svg>
